<svg xmlns="http://www.w3.org/2000/svg" width="226.02" height="297.23" viewBox="0 0 226.02 297.23"><title>arrow_down</title><path d="M113,297.23a27.28,27.28,0,0,0,7.6-1.14,28.87,28.87,0,0,0,8.48-4.16,25.08,25.08,0,0,0,3.4-2.94q15.08-15,30.09-30.07,27.7-27.72,55.42-55.43a26.69,26.69,0,0,0,7.54-14.07,27,27,0,0,0-46-24q-19.31,19.42-38.72,38.74l-.63.63-.17-.08V27.18a26.42,26.42,0,0,0-7.62-19,26.16,26.16,0,0,0-16-8A27,27,0,0,0,86.8,20.41a27.72,27.72,0,0,0-.8,6.73V204.68l-.17.07-.66-.63q-19.28-19.27-38.54-38.56a27.47,27.47,0,0,0-11.49-7.12A27,27,0,0,0,.59,178.82c-1.84,9.42.62,17.73,7.39,24.54Q33.45,229,59.06,254.47,76.32,271.75,93.59,289a26.53,26.53,0,0,0,4,3.32,28.23,28.23,0,0,0,7.53,3.65A27.42,27.42,0,0,0,113,297.23Z" fill="#fff"/></svg>