<svg xmlns="http://www.w3.org/2000/svg" width="472" height="472" viewBox="0 0 472 472"><title>btn_arrow</title><circle cx="236" cy="236" r="236" fill="#4f8632"/><path d="M395.31,257a27.28,27.28,0,0,1-1.14,7.6,28.65,28.65,0,0,1-4.17,8.48,25,25,0,0,1-2.93,3.4Q372,291.54,357,306.56L301.57,362a27.06,27.06,0,0,1-44.76-10,27.2,27.2,0,0,1,6.67-28.41q19.42-19.31,38.74-38.72l.63-.63-.08-.17H125.25A27,27,0,0,1,98.3,260.43a27,27,0,0,1,20.19-29.63,27.64,27.64,0,0,1,6.72-.8H302.75a.87.87,0,0,0,.07-.17c-.21-.22-.41-.44-.63-.66q-19.26-19.28-38.55-38.54a27.59,27.59,0,0,1-7.13-11.49,27,27,0,0,1,20.39-34.55c9.42-1.84,17.72.62,24.54,7.39q25.63,25.47,51.11,51.08,17.26,17.26,34.53,34.53a26.53,26.53,0,0,1,3.32,3.95,28.23,28.23,0,0,1,3.65,7.53A27.42,27.42,0,0,1,395.31,257Z" fill="#3e6927"/><path d="M384.31,236a27.28,27.28,0,0,1-1.14,7.6,28.65,28.65,0,0,1-4.17,8.48,25,25,0,0,1-2.93,3.4Q361,270.54,346,285.56L290.57,341a27.06,27.06,0,0,1-44.76-10,27.2,27.2,0,0,1,6.67-28.41q19.43-19.31,38.74-38.72l.63-.63-.08-.17H114.25A27,27,0,0,1,87.3,239.43a27,27,0,0,1,20.19-29.63,27.64,27.64,0,0,1,6.72-.8H291.75a.87.87,0,0,0,.07-.17c-.21-.22-.41-.44-.63-.66q-19.26-19.28-38.55-38.54a27.59,27.59,0,0,1-7.13-11.49,27,27,0,0,1,20.39-34.55c9.42-1.84,17.72.62,24.54,7.39q25.63,25.47,51.11,51.08,17.26,17.26,34.53,34.53a26.53,26.53,0,0,1,3.32,3.95,28.23,28.23,0,0,1,3.65,7.53A27.42,27.42,0,0,1,384.31,236Z" fill="#79c92a"/></svg>