<svg xmlns="http://www.w3.org/2000/svg" width="30px" height="30px" viewBox="0 0 141.77 137.09"><defs><style>.cls-1{fill:#ffae64;}.cls-2{fill:#f48f56;}.cls-3{fill:#ced4f4;}.cls-4{fill:#f7f7f7;}.cls-5{fill:#fcc79a;}</style></defs><title>item_mushroom</title><g id="Layer_2" data-name="Layer 2"><g id="Layer_1-2" data-name="Layer 1"><g id="Mushroom"><path class="cls-1" d="M140.27,58.33l-.65-1.72c-18.36-49-57.54-67.32-94.53-50.52A87.23,87.23,0,0,0,24.41,19.5,113.5,113.5,0,0,0,12,32L7.59,37.13C-2.61,49-3.16,67.62,9.84,71.71,17.61,74.16,28.53,78,43.73,81.87h0c8.52,2.19,16.7,4.14,21.55,4.91,3.45.55,8.56,1,14.36,1.49l-1.22-.72a51.35,51.35,0,0,0-24.6-7.06L45,80.25c1.31-1.66,2.23-2.81,2.48-3.14,1.45-1.84,2.82-3.58,4-5.16A24.45,24.45,0,0,1,36.78,57.61c6.58.28,14.07.91,22.09,1.9,1.91-5.09,3.26-9.85,8.2-12.38a11.71,11.71,0,0,1,4.27-.88,5.12,5.12,0,0,1,.69,0,.61.61,0,0,1,.19,0,4.55,4.55,0,0,1,.66.1,2.71,2.71,0,0,1,.41.09l.07,0,.47.14h0l.4.16.26.11,0,0a2.2,2.2,0,0,1,.31.15,8.21,8.21,0,0,1,1.12.72l.3.24.4.36.21.21c.16.16.31.32.45.49a3.54,3.54,0,0,1,.35.42c.16.19.31.4.46.61s.27.39.4.6c.29.46.56,1,.82,1.46.12.23.24.46.35.7.36.78.7,1.61,1,2.46L81,56c.13.35.25.71.36,1.07l.36,1.17c.15.52.3,1,.44,1.56a29.33,29.33,0,0,1,.72,3.53c.88,5.57.73,12.52,0,19.63-.17,1.83-.39,3.67-.63,5.5,18.54,1.33,34.59,3.71,44.6.26C135.31,85.79,145.71,72.87,140.27,58.33Z"/><path class="cls-1" d="M82.83,63.32l-3.65-.69c-1.4-.26-2.83-.5-4.27-.75-.72-.12-1.44-.25-2.17-.36l-2.2-.36c-4-.63-7.89-1.18-11.67-1.65,1.91-5.09,3.26-9.85,8.2-12.38a10.4,10.4,0,0,1,5.81-.73,2.71,2.71,0,0,1,.41.09,4.41,4.41,0,0,1,.58.17l.4.16a1.08,1.08,0,0,1,.29.13l.31.15a8.36,8.36,0,0,1,2.48,2,4.87,4.87,0,0,1,.35.42,21,21,0,0,1,3,5.83L81,56c.26.73.49,1.48.72,2.24.15.52.3,1,.44,1.56A29.33,29.33,0,0,1,82.83,63.32Z"/><path class="cls-2" d="M51.54,72c-1.22,1.58-2.59,3.32-4,5.16C25,72.16,9.26,66,9.93,61.69c.53-3.37,11.12-4.74,26.85-4.08A24.45,24.45,0,0,0,51.54,72Z"/><path class="cls-2" d="M128.05,80.33c-.72,4.55-19.84,5.46-45.18,2.62.69-7.11.84-14.06,0-19.63C109.39,68.47,128.8,75.59,128.05,80.33Z"/><path class="cls-3" d="M82.87,83c-.17,1.83-.39,3.67-.63,5.5l-2.59-.18-1.22-.72a51.35,51.35,0,0,0-24.6-7.06L45,80.25c1.31-1.66,2.23-2.81,2.48-3.14,6.19,1.37,12.9,2.64,19.93,3.75C72.75,81.7,77.93,82.4,82.87,83Z"/><path class="cls-3" d="M82.24,88.45c0,.42-.11.83-.17,1.24l-2.42-1.42Z"/><path class="cls-4" d="M82.07,89.69c-.14,1.06-.29,2.12-.45,3.16C79.44,107,67.05,133.44,51.36,136.58c-19.89,4-31.24-16.15-23.49-33.49,1.85-3.23,10.69-14.61,15.87-21.22L45,80.25l8.81.24a51.35,51.35,0,0,1,24.6,7.06l1.22.72Z"/><path class="cls-3" d="M82.87,83c-4.94-.55-10.12-1.25-15.44-2.09-7-1.11-13.74-2.38-19.93-3.75,1.45-1.84,2.82-3.58,4-5.16a23.52,23.52,0,0,0,7.63,1.25,25.28,25.28,0,0,0,20-10.57l3.65.69C83.71,68.89,83.56,75.84,82.87,83Z"/><path class="cls-2" d="M58.87,59.51c0,.12-.09.25-.14.37a33.45,33.45,0,0,1-3.08,6.4c-.91,1.41-2.35,3.37-4.11,5.67A24.45,24.45,0,0,1,36.78,57.61C43.36,57.89,50.85,58.52,58.87,59.51Z"/><path class="cls-3" d="M79.18,62.63a25.28,25.28,0,0,1-20,10.57A23.52,23.52,0,0,1,51.54,72c1.76-2.3,3.2-4.26,4.11-5.67a33.45,33.45,0,0,0,3.08-6.4c.05-.12.09-.25.14-.37,3.78.47,7.69,1,11.67,1.65l2.2.36,2.17.36C76.35,62.13,77.78,62.37,79.18,62.63Z"/><path class="cls-5" d="M81.67,58.23a23,23,0,0,1-2.49,4.4c-1.4-.26-2.83-.5-4.27-.75l-2.17-.36-2.2-.36c-4-.63-7.89-1.18-11.67-1.65-8-1-15.51-1.62-22.09-1.9A26.32,26.32,0,0,1,34.93,49c-.59-13.1,11.56-24.25,24.24-24.25,13.6,0,23.66,11.11,24.25,24.25A20.78,20.78,0,0,1,81.67,58.23Z"/><path class="cls-5" d="M105.34,37.13l4.5,6.91c2.14,3.28,6.75,5,10.27,2.69,3.28-2.11,5-6.75,2.69-10.26l-4.5-6.91c-2.14-3.29-6.75-5-10.27-2.69-3.27,2.11-5,6.74-2.69,10.26Z"/></g></g></g></svg>