<svg xmlns="http://www.w3.org/2000/svg" xmlns:xlink="http://www.w3.org/1999/xlink" width="60px" height="60px" viewBox="0 0 146.43 183.16"><defs><clipPath id="a"><path d="M2.2,107.27a.1.1,0,0,1,.2,0c1.37,4.44,10.1,28.42,41.8,39.29,3.9,1.33,16.7,5,29,5,13.27,0,27.22-3.17,32-5,34-13,39-40,39-40a71,71,0,0,1-142,.75Z" fill="none"/></clipPath><clipPath id="b"><path d="M2.22,107.15a.1.1,0,0,1,.2,0c1.37,4.44,10.1,28.42,41.79,39.29,3.9,1.34,16.71,5,29,5,13.27,0,27.21-3.17,32-5,34-13,39-40,39-40a71,71,0,0,1-142,.75Z" fill="none"/></clipPath></defs><title>Asset 17</title><path d="M63.42,65.87c6.15,1.86,13.16.73,19.4-.1,5.88-.79,11.94-1.88,16.82-5.51,2.38-1.77,3.59-4.76,2-7.53-1.37-2.34-5.13-3.75-7.52-2-3.73,2.78-8.21,3.59-12.73,4.2-4.68.62-10.41,1.7-15,.3-6.79-2.06-9.7,8.56-2.93,10.61Z" fill="#8c5d48"/><path d="M111.85,55.26C164.17,92.12,140.09,175,76.13,177.11c-1,0-2,0-2.94,0s-1.93,0-2.89,0c-64-2.07-88-85-35.7-121.87h0a67.06,67.06,0,0,1,77.24,0Z" fill="#999"/><path d="M73.19,183.16c-1,0-2.06,0-3.08,0-31.55-1-57.81-21.33-66.9-51.73C-6,100.65,4.92,68.93,31,50.48l.2-.14a73.25,73.25,0,0,1,84.16,0c26.15,18.42,37.11,50.22,27.91,81-9.09,30.39-35.34,50.71-66.89,51.75C75.29,183.14,74.24,183.16,73.19,183.16Zm-35-123.09-.11.08C16.17,75.56,7,102.17,14.71,127.94c6,20.19,23.86,42.14,55.79,43.18,1.8,0,3.63,0,5.43,0,31.93-1.05,49.76-23,55.79-43.19,7.7-25.75-1.46-52.35-23.33-67.75h0A61.2,61.2,0,0,0,38.17,60.07Z" fill="#fff"/><g clip-path="url(#a)"><path d="M111.85,55.26C164.17,92.12,140.09,175,76.13,177.11c-1,0-2,0-2.94,0s-1.93,0-2.89,0c-64-2.07-88-85-35.7-121.87h0a67.06,67.06,0,0,1,77.24,0Z" fill="#85858e"/></g><path d="M94.17,68.52c-1.24-4.07-4.62-7.55-9.23-9.8l-.44-.21a29.27,29.27,0,0,0-23.14-.21c-.31.14-.61.27-.9.42-4.61,2.25-8,5.73-9.23,9.8A11.78,11.78,0,0,0,50.7,72c0,8.84,9.85,16,22,16s22-7.16,22-16A11.78,11.78,0,0,0,94.17,68.52ZM72.7,81a28.89,28.89,0,0,1-8.08-1.12,10,10,0,0,1-3.28-7.76A17.73,17.73,0,0,0,72.7,75.93a17.51,17.51,0,0,0,11.66-4.06v0a13.65,13.65,0,0,1-3.3,7.9A28.92,28.92,0,0,1,72.7,81Z" fill="#85858e"/><path d="M94.7,65a11.78,11.78,0,0,1-.53,3.5c-1.57,5.14-6.55,9.34-13.11,11.3a13.65,13.65,0,0,0,3.3-7.9v0A17.51,17.51,0,0,1,72.7,75.93a17.73,17.73,0,0,1-11.36-3.79,10,10,0,0,0,3.28,7.76C57.92,78,52.83,73.73,51.23,68.52A11.78,11.78,0,0,1,50.7,65c0-5.51,3.83-10.37,9.65-13.25A28.13,28.13,0,0,1,72.7,49a28.42,28.42,0,0,1,11,2.12C90.25,53.9,94.7,59.08,94.7,65Z" fill="#999"/><path d="M87.7,65a9.21,9.21,0,0,1-3.34,6.85A17.51,17.51,0,0,1,72.7,75.93a17.73,17.73,0,0,1-11.36-3.79A9.36,9.36,0,0,1,57.7,65a9,9,0,0,1,2.76-6.3,10.73,10.73,0,0,1,.86-.79h0A17.73,17.73,0,0,1,72.7,54.11a17.48,17.48,0,0,1,11.78,4.16h0c.16.14.31.29.46.44A9,9,0,0,1,87.7,65Z" fill="#85858e"/><polygon points="73.29 56.39 62.03 45.98 46.7 45.28 53.13 31.35 49.05 16.56 64.29 18.36 77.1 9.92 80.09 24.97 92.08 34.54 78.69 42.03 73.29 56.39" fill="#f4d790"/><path d="M75.77,66.85l-16.21-15-22-1,9.24-20L40.9,9.55l21.92,2.6L81.24,0l4.31,21.65,17.24,13.77L83.54,46.2ZM55.89,39.69l8.6.39,6.33,5.85,3-8.06,7.51-4.21-6.73-5.37L73,19.84l-7.19,4.74-8.55-1,2.28,8.31Z" fill="#fff"/><path d="M84.36,71.87A17.51,17.51,0,0,1,72.7,75.93a17.73,17.73,0,0,1-11.36-3.79c0-.07,0-.15,0-.22a69.64,69.64,0,0,0,0-13.62c0-.13,0-.25,0-.37h0q-.33-3.08-1-6.15c-.37-1.83-.83-3.68-1.38-5.53C54.76,32,77,26,81.15,40.13a86.38,86.38,0,0,1,2.5,11c.38,2.36.65,4.74.83,7.13h0c0,.08,0,.15,0,.23A82.78,82.78,0,0,1,84.36,71.87Z" fill="#99694f"/><path d="M48.52,93.9l-10,3.1a19.45,19.45,0,0,0-7.75,5l-9.16,9.31L23.8,98.93a8.88,8.88,0,0,0-.76-6l-4.73-8,10.22-3.19a18,18,0,0,0,7.23-4.69l9.41-9.57L43.29,78.45a12.44,12.44,0,0,0,1.07,8.44Z" fill="#aaa"/><path d="M64.77,60.93c5.46,1.66,11.86.55,17.4-.19,5.27-.71,10.61-1.67,15-4.91.51-.38,0-1.25-.5-.87-4.25,3.17-9.46,4.11-14.59,4.79-5.39.72-11.71,1.82-17,.22-.61-.19-.88.77-.26,1Z" fill="#8c5d48"/><path d="M111.87,55.14C164.18,92,140.11,174.89,76.14,177c-1,0-2,0-2.93,0s-1.93,0-2.89,0c-64-2.08-88-85-35.7-121.87h0a67.1,67.1,0,0,1,77.25,0Z" fill="#999"/><g clip-path="url(#b)"><path d="M111.87,55.14C164.18,92,140.11,174.89,76.14,177c-1,0-2,0-2.93,0s-1.93,0-2.89,0c-64-2.08-88-85-35.7-121.87h0a67.1,67.1,0,0,1,77.25,0Z" fill="#85858e"/></g><path d="M94.18,68.4c-1.24-4.07-4.62-7.55-9.23-9.8l-.44-.21a29.27,29.27,0,0,0-23.14-.21c-.31.14-.61.27-.9.42-4.61,2.25-8,5.73-9.23,9.8a11.78,11.78,0,0,0-.53,3.5c0,8.84,9.85,16,22,16s22-7.16,22-16A11.78,11.78,0,0,0,94.18,68.4ZM72.71,80.9a28.89,28.89,0,0,1-8.08-1.12A10,10,0,0,1,61.35,72a17.73,17.73,0,0,0,11.36,3.79,17.51,17.51,0,0,0,11.66-4.06v0a13.65,13.65,0,0,1-3.3,7.9A28.92,28.92,0,0,1,72.71,80.9Z" fill="#85858e"/><path d="M94.71,64.9a11.78,11.78,0,0,1-.53,3.5c-1.57,5.14-6.55,9.34-13.11,11.3a13.65,13.65,0,0,0,3.3-7.9v0a17.51,17.51,0,0,1-11.66,4.06A17.73,17.73,0,0,1,61.35,72a10,10,0,0,0,3.28,7.76c-6.7-1.92-11.79-6.17-13.39-11.38a11.78,11.78,0,0,1-.53-3.5c0-5.51,3.83-10.37,9.65-13.25A28.13,28.13,0,0,1,72.71,48.9a28.42,28.42,0,0,1,11,2.12C90.26,53.78,94.71,59,94.71,64.9Z" fill="#999"/><path d="M87.71,64.9a9.21,9.21,0,0,1-3.34,6.85,17.51,17.51,0,0,1-11.66,4.06A17.73,17.73,0,0,1,61.35,72a9.36,9.36,0,0,1-3.64-7.12,9,9,0,0,1,2.76-6.3,10.73,10.73,0,0,1,.86-.79h0A17.73,17.73,0,0,1,72.71,54a17.48,17.48,0,0,1,11.78,4.16h0c.16.14.31.29.46.44A9,9,0,0,1,87.71,64.9Z" fill="#85858e"/><polygon points="73.31 56.28 62.04 45.86 46.72 45.16 53.14 31.23 49.07 16.44 64.31 18.25 77.11 9.8 80.11 24.85 92.09 34.42 78.71 41.92 73.31 56.28" fill="#f4d790"/><path d="M84.37,71.75a17.51,17.51,0,0,1-11.66,4.06A17.73,17.73,0,0,1,61.35,72c0-.07,0-.15,0-.22a69.64,69.64,0,0,0,0-13.62c0-.13,0-.25,0-.37h0q-.33-3.07-1-6.15C60,49.82,59.53,48,59,46.12,54.77,31.87,77,25.84,81.16,40a86.38,86.38,0,0,1,2.5,11c.38,2.36.65,4.74.83,7.13h0c0,.08,0,.15,0,.23A82.78,82.78,0,0,1,84.37,71.75Z" fill="#99694f"/><path d="M48.53,93.78l-9.94,3.11a19.31,19.31,0,0,0-7.75,5l-9.16,9.32,2.14-12.42a8.9,8.9,0,0,0-.77-6l-4.72-8,10.22-3.19A18.05,18.05,0,0,0,35.77,77l9.42-9.57L43.3,78.34c-.57,3.34-.2,6.3,1.07,8.44Z" fill="#aaa"/></svg>