<svg xmlns="http://www.w3.org/2000/svg" xmlns:xlink="http://www.w3.org/1999/xlink" width="30px" height="30px" viewBox="0 0 100 155.86"><defs><style>.cls-1,.cls-57{fill:none;}.cls-2{isolation:isolate;}.cls-3{clip-path:url(#clip-path);}.cls-4{fill:#55585e;}.cls-5{fill:#585b62;}.cls-6{fill:#5b5f65;}.cls-7{fill:#5f6269;}.cls-8{fill:#62656d;}.cls-9{fill:#656970;}.cls-10{fill:#686c74;}.cls-11{fill:#6c7077;}.cls-12{fill:#6f737b;}.cls-13{fill:#72767f;}.cls-14{fill:#757a82;}.cls-15{fill:#797d86;}.cls-16{fill:#7c808a;}.cls-17{fill:#7f848d;}.cls-18{fill:#828791;}.cls-19{fill:#868b94;}.cls-20{fill:#898e98;}.cls-21{fill:#8c919c;}.cls-22{fill:#8f959f;}.cls-23{fill:#9398a3;}.cls-24{fill:#969ba7;}.cls-25{fill:#999faa;}.cls-26{fill:#9ca2ae;}.cls-27{fill:#a0a6b1;}.cls-28{fill:#a3a9b5;}.cls-29{fill:#aeb3be;}.cls-30{fill:#b3b8c2;}.cls-31{fill:#b6bbc4;}.cls-32{fill:#b9bec7;}.cls-33{fill:#bcc0c9;}.cls-34{fill:#bec2cb;}.cls-35{fill:#c0c4cc;}.cls-36{fill:#c2c6ce;}.cls-37{fill:#c4c8d0;}.cls-38{fill:#c6cad1;}.cls-39{fill:#c8cbd2;}.cls-40{fill:#c9cdd4;}.cls-41{fill:#cbced5;}.cls-42{fill:#ccd0d6;}.cls-43{fill:#737780;}.cls-44{clip-path:url(#clip-path-2);}.cls-45{clip-path:url(#clip-path-3);}.cls-46{fill:#9eabb7;}.cls-47{fill:#bec4cc;}.cls-48{fill:#d5dbe2;}.cls-49{fill:#aeb8c4;}.cls-50{fill:#af92ff;}.cls-51{fill:#fff;}.cls-52{fill:#c0ffea;}.cls-53{fill:#d3d3d3;}.cls-54{fill:#3d3e3f;}.cls-55{fill:#bca9ff;}.cls-56{fill:#f9f9f9;}.cls-57{stroke:#fff;stroke-linecap:round;stroke-miterlimit:10;stroke-width:17px;}.cls-58{fill:#c7ffcf;}.cls-58,.cls-59{opacity:0.65;}.cls-59{fill:#94ffa8;}</style><clipPath id="clip-path" transform="translate(0 0)"><path class="cls-1" d="M16,148.3c-1.67-2.07-.9-4.32,2.74-6.39,8.49-4.83,29.41-6.86,46.73-4.53,14.77,2,22.15,6.51,18.74,10.8q7.29-9.18,14.59-18.34c4.87-6.12-5.68-12.58-26.77-15.42-24.75-3.33-54.64-.44-66.77,6.47C.1,123.84-1,127.05,1.38,130Q8.7,139.17,16,148.3Z"/></clipPath><clipPath id="clip-path-2" transform="translate(0 0)"><path class="cls-1" d="M1.06,27.13a13.27,13.27,0,0,1,4.05-3.26c12.13-6.91,42-9.81,66.77-6.47C86.21,19.33,95.67,22.93,98.74,27l-7.35-9.64-1.47-1.93-.73-1-1.47-1.93-1.47-1.93-.73-1L84.05,7.66C81.9,4.84,75.28,2.32,65.25,1,47.93-1.37,27,.66,18.51,5.5a9.11,9.11,0,0,0-2.83,2.29Z"/></clipPath><clipPath id="clip-path-3" transform="translate(0 0)"><path class="cls-1" d="M.18,127c0-2.06,1.64-4.14,5.11-6.12,12.13-6.91,42-9.8,66.77-6.47C89.73,116.8,100,121.71,100,126.84l-.18-97c0-5.13-10.27-10-27.94-12.42C47.13,14.06,17.24,17,5.11,23.87,1.64,25.84,0,27.93,0,30,.05,59.09.13,97.9.18,127Z"/></clipPath></defs><title>item_soda</title><g id="Layer_2" data-name="Layer 2"><g id="Layer_1-2" data-name="Layer 1"><g id="Soda"><g class="cls-2"><g class="cls-3"><g class="cls-2"><path class="cls-4" d="M16,148.3,1.38,130c-1.8-2.24-1.61-4.62.82-6.92l14.4,20.36c-1.7,1.61-1.83,3.28-.57,4.84" transform="translate(0 0)"/><path class="cls-5" d="M16.6,143.46,2.2,123.1a14.58,14.58,0,0,1,2.14-1.64l13.77,20.85a9.75,9.75,0,0,0-1.51,1.15" transform="translate(0 0)"/><path class="cls-6" d="M18.11,142.31,4.34,121.46c.3-.19.62-.38,1-.57s.8-.44,1.23-.66l13.1,21.22-.85.46c-.24.13-.46.27-.66.4" transform="translate(0 0)"/><path class="cls-7" d="M19.62,141.45,6.52,120.23c.66-.33,1.37-.65,2.12-1l12.47,21.51c-.52.22-1,.45-1.49.68" transform="translate(0 0)"/><path class="cls-8" d="M21.11,140.77,8.64,119.26c.67-.27,1.36-.55,2.09-.81l11.85,21.76c-.51.18-1,.37-1.47.56" transform="translate(0 0)"/><path class="cls-9" d="M22.58,140.21,10.73,118.45c.67-.24,1.37-.47,2.09-.7l11.22,22c-.51.15-1,.32-1.46.49" transform="translate(0 0)"/><path class="cls-10" d="M24,139.72l-11.22-22c.68-.21,1.38-.42,2.1-.62l10.59,22.15-1.47.44" transform="translate(0 0)"/><path class="cls-11" d="M25.51,139.28,14.92,117.13c.69-.19,1.39-.37,2.11-.55l10,22.31-1.47.39" transform="translate(0 0)"/><path class="cls-12" d="M27,138.89,17,116.58c.69-.17,1.39-.34,2.11-.5l9.32,22.47-1.48.34" transform="translate(0 0)"/><path class="cls-13" d="M28.46,138.55l-9.32-22.47,2.15-.45L30,138.23l-1.51.32" transform="translate(0 0)"/><path class="cls-14" d="M30,138.23l-8.68-22.6,2.19-.41,8,22.73-1.53.28" transform="translate(0 0)"/><path class="cls-15" d="M31.5,138l-8-22.73,2.17-.36L33,137.69,31.5,138" transform="translate(0 0)"/><path class="cls-16" d="M33,137.69l-7.37-22.83,2.18-.33,6.72,22.93-1.53.23" transform="translate(0 0)"/><path class="cls-17" d="M34.55,137.46l-6.72-22.93,2.17-.28,6.06,23-1.51.2" transform="translate(0 0)"/><path class="cls-18" d="M36.06,137.26l-6.06-23,2-.24,5.45,23.09-1.42.16" transform="translate(0 0)"/><path class="cls-19" d="M37.48,137.1,32,114l2-.21L38.89,137l-1.41.15" transform="translate(0 0)"/><path class="cls-20" d="M38.89,137,34,113.8l1.73-.15,4.33,23.19-1.21.11" transform="translate(0 0)"/><path class="cls-21" d="M40.1,136.84l-4.33-23.19,1.76-.14,3.8,23.24-1.23.09" transform="translate(0 0)"/><path class="cls-22" d="M41.33,136.75l-3.8-23.24,1.42-.1,3.38,23.27-1,.07" transform="translate(0 0)"/><path class="cls-23" d="M42.33,136.68,39,113.41l1.41-.09,3,23.29-1,.07" transform="translate(0 0)"/><path class="cls-24" d="M43.32,136.61l-3-23.29,1.34-.07,2.55,23.31-.93.05" transform="translate(0 0)"/><path class="cls-25" d="M44.25,136.56,41.7,113.25l1.13,0,2.22,23.33-.8,0" transform="translate(0 0)"/><path class="cls-26" d="M45.05,136.53,42.83,113.2l1.14,0,1.87,23.35-.79,0" transform="translate(0 0)"/><path class="cls-27" d="M45.84,136.5,44,113.15l1.14,0,1.53,23.36-.8,0" transform="translate(0 0)"/><path class="cls-28" d="M46.64,136.47l-1.53-23.36,1,0,1.24,23.36-.68,0" transform="translate(0 0)"/><path class="cls-29" d="M47.32,136.45l-1.24-23.36,1,0,1,23.37h-.67" transform="translate(0 0)"/><path class="cls-30" d="M48,136.44l-1-23.37,1,0,.66,23.38H48" transform="translate(0 0)"/><path class="cls-31" d="M48.67,136.43,48,113.05h1l.37,23.38h-.67" transform="translate(0 0)"/><path class="cls-32" d="M49.34,136.42,49,113h.93L50,136.42h-.65" transform="translate(0 0)"/><path class="cls-33" d="M50,136.42,49.9,113h.92l-.19,23.38H50" transform="translate(0 0)"/><path class="cls-34" d="M50.63,136.42,50.82,113h.92l-.46,23.38h-.65" transform="translate(0 0)"/><path class="cls-35" d="M51.28,136.42,51.74,113h.92l-.73,23.37h-.65" transform="translate(0 0)"/><path class="cls-36" d="M51.93,136.42l.73-23.37,1,0-1,23.37-.71,0" transform="translate(0 0)"/><path class="cls-37" d="M52.64,136.44l1-23.37,1.06,0-1.36,23.36h-.74" transform="translate(0 0)"/><path class="cls-38" d="M53.38,136.45l1.36-23.36,1,0-1.67,23.35-.74,0" transform="translate(0 0)"/><path class="cls-39" d="M54.12,136.47l1.67-23.35,1.1,0-2,23.35-.76,0" transform="translate(0 0)"/><path class="cls-40" d="M54.88,136.5l2-23.35,1.73.08L56.1,136.55l-1.22-.05" transform="translate(0 0)"/><path class="cls-41" d="M56.1,136.55l2.52-23.32q.87,0,1.74.09l-3,23.29-1.21-.06" transform="translate(0 0)"/><path class="cls-42" d="M57.31,136.61l3-23.29c1.69.09,3.38.21,5,.36l-4.56,23.19c-1.17-.11-2.35-.19-3.54-.26" transform="translate(0 0)"/><path class="cls-41" d="M60.85,136.87l4.56-23.19,2.2.21L62.39,137l-1.54-.14" transform="translate(0 0)"/><path class="cls-40" d="M62.39,137l5.22-23.12,1.58.17L63.5,137.13,62.39,137" transform="translate(0 0)"/><path class="cls-39" d="M63.5,137.13l5.69-23.07,1.3.16-6.09,23-.9-.11" transform="translate(0 0)"/><path class="cls-38" d="M64.4,137.24l6.09-23,1.28.16-6.47,23-.9-.12" transform="translate(0 0)"/><path class="cls-37" d="M65.3,137.36l6.47-23,.29,0,.89.12-6.83,22.93-.62-.09-.2,0" transform="translate(0 0)"/><path class="cls-36" d="M66.12,137.47,73,114.54l1.12.17-7.16,22.87-.79-.11" transform="translate(0 0)"/><path class="cls-35" d="M66.91,137.58l7.16-22.87,1.11.17L67.69,137.7l-.78-.12" transform="translate(0 0)"/><path class="cls-34" d="M67.69,137.7l7.49-22.82,1.18.19-7.85,22.77-.82-.14" transform="translate(0 0)"/><path class="cls-33" d="M68.51,137.84l7.85-22.77,1.24.22L69.38,138l-.87-.15" transform="translate(0 0)"/><path class="cls-32" d="M69.38,138l8.22-22.7,1.2.23-8.58,22.63-.84-.16" transform="translate(0 0)"/><path class="cls-31" d="M70.22,138.15l8.58-22.63,1.48.29-9,22.55-1-.21" transform="translate(0 0)"/><path class="cls-30" d="M71.26,138.36l9-22.55,1.5.33-9.47,22.45-1-.23" transform="translate(0 0)"/><path class="cls-29" d="M72.31,138.59l9.47-22.45c.63.14,1.24.29,1.84.44l-10,22.32-1.29-.31" transform="translate(0 0)"/><path class="cls-28" d="M73.6,138.9l10-22.32c.68.17,1.35.35,2,.53L75,139.26l-1.39-.36" transform="translate(0 0)"/><path class="cls-27" d="M75,139.26l10.62-22.15c.77.21,1.5.43,2.21.66l-11.28,22c-.5-.16-1-.32-1.55-.47" transform="translate(0 0)"/><path class="cls-26" d="M76.54,139.73l11.28-22c.77.25,1.5.5,2.2.76L78.08,140.26c-.49-.18-1-.36-1.54-.53" transform="translate(0 0)"/><path class="cls-25" d="M78.08,140.26,90,118.53c.68.25,1.33.5,1.94.77L79.43,140.8q-.65-.28-1.35-.54" transform="translate(0 0)"/><path class="cls-24" d="M79.43,140.8,92,119.3q.87.38,1.65.75l-13,21.28c-.37-.18-.75-.36-1.16-.53" transform="translate(0 0)"/><path class="cls-23" d="M80.59,141.33l13-21.28c.49.25,1,.5,1.4.75l-13.44,21c-.31-.18-.64-.35-1-.52" transform="translate(0 0)"/><path class="cls-22" d="M81.57,141.85,95,120.8c.42.24.81.48,1.18.73l-13.8,20.83c-.25-.17-.53-.34-.82-.51" transform="translate(0 0)"/><path class="cls-21" d="M82.39,142.36l13.8-20.83q.53.36,1,.72l-14.1,20.61c-.21-.16-.44-.33-.69-.5" transform="translate(0 0)"/><path class="cls-20" d="M83.08,142.86l14.1-20.61c.29.23.56.47.81.71l-14.33,20.4c-.18-.17-.37-.33-.58-.5" transform="translate(0 0)"/><path class="cls-19" d="M83.66,143.36,98,123a9,9,0,0,1,.68.71L84.13,143.86a5.47,5.47,0,0,0-.47-.5" transform="translate(0 0)"/><path class="cls-18" d="M84.13,143.86l14.54-20.19a8.58,8.58,0,0,1,.53.7l-14.7,20a4.2,4.2,0,0,0-.37-.49" transform="translate(0 0)"/><path class="cls-17" d="M84.5,144.35l14.7-20a6.24,6.24,0,0,1,.39.71L84.77,144.84a4,4,0,0,0-.27-.49" transform="translate(0 0)"/><path class="cls-16" d="M84.77,144.84l14.82-19.76a3.79,3.79,0,0,1,.26.71L85,145.34a3.9,3.9,0,0,0-.19-.5" transform="translate(0 0)"/><path class="cls-15" d="M85,145.34l14.89-19.55a3.64,3.64,0,0,1,.13.72L85.05,145.85a3,3,0,0,0-.09-.51" transform="translate(0 0)"/><path class="cls-14" d="M85.05,145.85,100,126.51a3,3,0,0,1,0,.73L85.05,146.36a2.9,2.9,0,0,0,0-.51" transform="translate(0 0)"/><path class="cls-13" d="M85.05,146.36,100,127.24a3.32,3.32,0,0,1-.15.75L84.94,146.88a3.21,3.21,0,0,0,.11-.52" transform="translate(0 0)"/><path class="cls-12" d="M84.94,146.88,99.83,128a4.27,4.27,0,0,1-.3.76l-14.8,18.66a2.66,2.66,0,0,0,.21-.53" transform="translate(0 0)"/><path class="cls-11" d="M84.73,147.41l14.8-18.66a5.56,5.56,0,0,1-.48.79L84.4,148a4.09,4.09,0,0,0,.33-.56" transform="translate(0 0)"/><path class="cls-10" d="M84.4,148l14.65-18.43-.22.3L84.24,148.18l.16-.21" transform="translate(0 0)"/></g></g></g><path class="cls-43" d="M75.83,140.56l.3-.08.25-.08Z" transform="translate(0 0)"/><path class="cls-43" d="M72.89,153.47l.53-.13.51-.13,1-.27.43-.12.67-.2.66-.21h0l1.2-.42.36-.14.8-.32.39-.16.38-.17.36-.17.29-.13,0,0,1-.51a11.26,11.26,0,0,0,1.57-1.05l.2-.16a6.47,6.47,0,0,0,1-1c1.62-2,.81-4.11-2.06-5.95-2.64,3.32-5.27,6.64-7.92,9.95A8.22,8.22,0,0,1,72.89,153.47Z" transform="translate(0 0)"/><path class="cls-43" d="M15.94,148.18l.09.12a5.59,5.59,0,0,0,.47.53l.19.17c.13.11.25.23.39.34l0,0a1.88,1.88,0,0,0,.24.18c.14.11.27.21.42.31l.33.21.46.29.28.15c.22.13.45.25.69.37l.39.19.27.12.43.2.44.19.77.31.47.18.46.16.48.16.26.09.15.06.26.08.19,0,.4.12a2.77,2.77,0,0,0,.41.12l.52.15.8.22.58.14.83.2.62.14.88.19.64.13.95.18.63.12h0l1.07.17.55.09,1.73.25,2.28.28.19,0,.45.05,1.47.14,1,.08.46,0,2.36.16h.2c.85.05,1.69.08,2.53.11l.4,0c1.44,0,2.88.06,4.3.06h.3c.51,0,1,0,1.55,0l1.26,0h.28c.29-.14,9.08-9.53,11.79-13h0l2.36-3h0l.61-.06.26,0,.13,0,2.12-.26c.22,0,.43-.06.65-.09l.15,0q.85-.1,1.68-.24l.65-.1c-.79-.21-1.61-.41-2.48-.59s-1.52-.32-2.32-.46l-.45-.08c-.88-.15-1.8-.3-2.75-.44l-.67-.09-2.1-.26c-.92-.11-1.85-.2-2.79-.28s-1.86-.15-2.8-.2-1.88-.11-2.83-.14-1.87-.06-2.81-.08H49.32c-1,0-2,0-3,.06s-2.11.08-3.15.14c-1.33.07-2.64.17-3.91.29A82.3,82.3,0,0,0,26,139.13a31.42,31.42,0,0,0-7.26,2.78C15.2,143.94,14.39,146.14,15.94,148.18Z" transform="translate(0 0)"/><g class="cls-2"><g class="cls-44"><g class="cls-2"><path class="cls-4" d="M1.06,27.13,15.68,7.79A9.11,9.11,0,0,1,18.51,5.5C23.54,2.63,32.93.76,43.35.18L40.59,16.27c-14.88.82-28.3,3.51-35.48,7.6a13.27,13.27,0,0,0-4.05,3.26" transform="translate(0 0)"/><path class="cls-5" d="M40.59,16.27,43.35.18C46,0,48.65,0,51.35,0L52,16c-3.86,0-7.69.05-11.43.25" transform="translate(0 0)"/><path class="cls-6" d="M52,16,51.35,0A114.78,114.78,0,0,1,63,.69L68.66,17A165.94,165.94,0,0,0,52,16" transform="translate(0 0)"/><path class="cls-7" d="M68.66,17,63,.69,65.25,1c1.5.2,2.93.43,4.27.68L78,18.37c-1.92-.36-4-.69-6.1-1-1.07-.15-2.14-.28-3.22-.4" transform="translate(0 0)"/><path class="cls-6" d="M78,18.37,69.52,1.65A50.7,50.7,0,0,1,78.14,4L90.29,21.67A71.93,71.93,0,0,0,78,18.37" transform="translate(0 0)"/><path class="cls-5" d="M90.29,21.67,78.14,4A21.26,21.26,0,0,1,82.08,5.9L95.92,24.45a29.21,29.21,0,0,0-5.63-2.78" transform="translate(0 0)"/><path class="cls-4" d="M95.92,24.45,82.08,5.9a8.25,8.25,0,0,1,2,1.76L98.74,27a11.59,11.59,0,0,0-2.82-2.5" transform="translate(0 0)"/></g></g></g><g class="cls-2"><g class="cls-45"><g class="cls-2"><path class="cls-4" d="M.18,127,0,30c0-2.06,1.64-4.15,5.11-6.12a39.43,39.43,0,0,1,7.73-3.2l.18,97a39.43,39.43,0,0,0-7.73,3.2C1.82,122.87.18,125,.18,127" transform="translate(0 0)"/><path class="cls-5" d="M13,117.69l-.18-97c1.18-.37,2.42-.72,3.72-1l.17,97c-1.29.33-2.53.67-3.71,1" transform="translate(0 0)"/><path class="cls-6" d="M16.73,116.65l-.17-97c1-.26,2.09-.51,3.19-.74l.18,97c-1.1.23-2.16.48-3.2.74" transform="translate(0 0)"/><path class="cls-7" d="M19.93,115.91l-.18-97c1-.21,1.94-.4,2.95-.58l.18,97c-1,.18-2,.38-2.95.58" transform="translate(0 0)"/><path class="cls-8" d="M22.88,115.33l-.18-97c.93-.17,1.87-.33,2.83-.48l.18,97c-1,.15-1.91.31-2.83.48" transform="translate(0 0)"/><path class="cls-9" d="M25.71,114.85l-.18-97c.91-.15,1.84-.28,2.78-.41l.18,97-2.78.41" transform="translate(0 0)"/><path class="cls-10" d="M28.49,114.44l-.18-97,2.76-.35.18,97-2.76.34" transform="translate(0 0)"/><path class="cls-11" d="M31.25,114.1l-.18-97,2.76-.29.18,97c-.93.09-1.85.18-2.76.29" transform="translate(0 0)"/><path class="cls-12" d="M34,113.81l-.18-97c.91-.08,1.83-.17,2.76-.24l.18,97q-1.4.11-2.76.24" transform="translate(0 0)"/><path class="cls-13" d="M36.77,113.57l-.18-97c.92-.07,1.85-.14,2.79-.19l.18,97c-.94.06-1.87.12-2.79.2" transform="translate(0 0)"/><path class="cls-14" d="M39.56,113.37l-.18-97,2.8-.16.18,97c-.94,0-1.87.09-2.8.15" transform="translate(0 0)"/><path class="cls-15" d="M42.36,113.22l-.18-97,2.82-.1.18,97-2.82.11" transform="translate(0 0)"/><path class="cls-16" d="M45.18,113.11l-.18-97q1.41,0,2.82-.06l.18,97-2.82.06" transform="translate(0 0)"/><path class="cls-17" d="M48,113.05l-.18-97,2.85,0,.18,97c-1,0-1.9,0-2.85,0" transform="translate(0 0)"/><path class="cls-18" d="M50.85,113l-.18-97c1,0,2,0,3,0l.18,97c-1,0-2,0-3,0" transform="translate(0 0)"/><path class="cls-19" d="M53.81,113.07l-.18-97q1.57,0,3.15.09l.18,97-3.15-.09" transform="translate(0 0)"/><path class="cls-20" d="M57,113.16l-.18-97c1.31.05,2.62.11,3.92.19l.18,97c-1.3-.08-2.61-.15-3.92-.19" transform="translate(0 0)"/><path class="cls-21" d="M60.88,113.35l-.18-97c3.79.23,7.54.59,11.18,1.08q4.07.54,7.59,1.26l.18,97c-2.35-.47-4.88-.9-7.59-1.26-3.64-.49-7.39-.85-11.18-1.07" transform="translate(0 0)"/><path class="cls-20" d="M79.65,115.68l-.18-97c1.73.35,3.37.73,4.9,1.13l.18,97c-1.53-.41-3.17-.78-4.9-1.14" transform="translate(0 0)"/><path class="cls-19" d="M84.55,116.82l-.18-97c1.16.31,2.27.63,3.31,1l.18,97c-1-.33-2.15-.66-3.31-1" transform="translate(0 0)"/><path class="cls-18" d="M87.86,117.78l-.18-97c.86.27,1.69.56,2.47.86l.18,97c-.78-.3-1.61-.58-2.47-.86" transform="translate(0 0)"/><path class="cls-17" d="M90.33,118.64l-.18-97c.69.26,1.36.53,2,.81l.18,97c-.62-.28-1.29-.55-2-.81" transform="translate(0 0)"/><path class="cls-16" d="M92.31,119.45l-.18-97c.58.25,1.13.51,1.64.77l.18,97c-.51-.27-1.06-.53-1.64-.78" transform="translate(0 0)"/><path class="cls-15" d="M94,120.23l-.18-97c.49.26,1,.51,1.39.77l.18,97c-.43-.26-.9-.52-1.39-.77" transform="translate(0 0)"/><path class="cls-14" d="M95.34,121l-.18-97c.42.25.82.51,1.18.77l.18,97c-.36-.26-.76-.51-1.18-.76" transform="translate(0 0)"/><path class="cls-13" d="M96.52,121.76l-.18-97c.36.25.69.51,1,.77l.18,97c-.31-.26-.64-.52-1-.77" transform="translate(0 0)"/><path class="cls-12" d="M97.52,122.53l-.18-97a10.34,10.34,0,0,1,.83.77l.18,97c-.25-.26-.53-.52-.83-.78" transform="translate(0 0)"/><path class="cls-11" d="M98.35,123.31l-.18-97a7.75,7.75,0,0,1,.66.8l.18,97a6.82,6.82,0,0,0-.66-.8" transform="translate(0 0)"/><path class="cls-10" d="M99,124.11l-.18-97a6.19,6.19,0,0,1,.51.83l.18,97a6.11,6.11,0,0,0-.51-.82" transform="translate(0 0)"/><path class="cls-9" d="M99.52,124.93l-.18-97a5.12,5.12,0,0,1,.34.86l.18,97a5.21,5.21,0,0,0-.34-.87" transform="translate(0 0)"/><path class="cls-8" d="M99.86,125.8l-.18-97a4.18,4.18,0,0,1,.14.92l.18,97a4.1,4.1,0,0,0-.14-.91" transform="translate(0 0)"/><path class="cls-7" d="M100,126.71l-.18-97v.13l.18,97v-.13" transform="translate(0 0)"/></g></g></g><path class="cls-46" d="M75.83,140.56l.3-.08.25-.08Z" transform="translate(0 0)"/><path class="cls-46" d="M79.79,139.28l.31-.12-.53.19Z" transform="translate(0 0)"/><path class="cls-46" d="M72.89,153.47l.53-.13.51-.13,1-.27.43-.12.67-.2.66-.21h0l1.2-.42.36-.14.8-.32.39-.16.38-.17.36-.17.29-.13,0,0,1-.51a11.26,11.26,0,0,0,1.57-1.05l.2-.16a6.47,6.47,0,0,0,1-1L98.61,130.1l-.13.13c-.12.13-.24.27-.38.4A15.07,15.07,0,0,1,94.89,133c-.47.27-1,.53-1.49.78l-.34.16-1,.48-.35.15-.21.09-1.1.44-.92.34-.37.13-1.6.54-.29.09-.23.07c-1.59,2-3.18,4-4.76,6-2.64,3.32-5.27,6.64-7.92,9.95A8.22,8.22,0,0,1,72.89,153.47Z" transform="translate(0 0)"/><path class="cls-46" d="M1.38,130l14.56,18.16.09.12a5.59,5.59,0,0,0,.47.53l.19.17c.13.11.25.23.39.34l0,0a1.88,1.88,0,0,0,.24.18c.14.11.27.21.42.31l.33.21.46.29.28.15c.22.13.45.25.69.37l.39.19.27.12.43.2.44.19.77.31.47.18.46.16.48.16.26.09.15.06.26.08.19,0,.4.12a2.77,2.77,0,0,0,.41.12l.52.15.8.22.58.14.83.2.62.14.88.19.64.13.95.18.63.12h0l1.07.17.55.09,1.73.25,2.28.28.19,0,.45.05,1.47.14,1,.08.46,0,2.36.16h.2c.85.05,1.69.08,2.53.11l.4,0c1.44,0,2.88.06,4.3.06h.3c.51,0,1,0,1.55,0l1.26,0h.28c.29-.14,9.08-9.53,11.79-13h0l2.36-3c-.56.07-1.12.13-1.69.18h0l-.24,0-.74.07-1.71.15h-.07l-.62.05-1.74.12-.43,0-.55,0-.38,0-1.28.06-.59,0-.39,0H57l-1.34,0h-.86c-.78,0-1.56,0-2.35,0h-.28c-.89,0-1.78,0-2.65,0h-.79l-1.95,0h-.94l-1.43,0h-.32l-.4,0-.46,0H43c-1.14,0-2.27-.1-3.39-.16l-.51,0-1.88-.13c-1.09-.08-2.16-.17-3.24-.27l-.47-.05-1.16-.11-.66-.07-.87-.1c-.88-.1-1.77-.21-2.65-.33-.58-.07-1.14-.15-1.7-.24l-.14,0-.25,0-.31,0-1.23-.19-.64-.11-1.14-.2-.59-.11-1.28-.24-.31-.07h0l-.37-.08-1.27-.27-.64-.15-.33-.07L16,137.11l-.32-.08h0l-.22-.05-1.29-.35-.25-.07-1.43-.44-.13,0L12,136l-.33-.12-.67-.23-.2-.07-.69-.25-.25-.09h0l-.19-.07-.82-.32L8,134.45l-.06,0-.07,0-.44-.2L6.93,134l-.58-.28-.12-.07c-.2-.1-.4-.2-.59-.31l-.72-.4-.08-.05-.11-.06-.39-.25c-.16-.1-.32-.2-.47-.31l-.21-.15-.38-.28c-.13-.1-.27-.19-.39-.29s-.38-.33-.56-.49l-.27-.25A9.22,9.22,0,0,1,1.38,130Z" transform="translate(0 0)"/><path class="cls-47" d="M88.88,38.5l-.39.14.56-.19Z" transform="translate(0 0)"/><path class="cls-47" d="M79.7,41l-2,.4.88-.17Z" transform="translate(0 0)"/><path class="cls-47" d="M77.27,15.7l-.1,0,.19.24.39.5a1.34,1.34,0,0,0,.11.14l1.24,1.65a1.34,1.34,0,0,1,.11.14l.73,1a2,2,0,0,1,.17.23l.35.45c.25.33.5.66.74,1L88.76,31a5.85,5.85,0,0,1,.49.77l.1.17a6.2,6.2,0,0,1,.31.77.3.3,0,0,1,0,.1,3.32,3.32,0,0,1,.13.7.88.88,0,0,1,0,.17,3.63,3.63,0,0,1,0,.57c0-.13,0-.25,0-.38v4.33c.36-.13.72-.26,1.06-.4s.84-.35,1.25-.53l.31-.15c.27-.12.53-.24.78-.37.51-.25,1-.5,1.46-.76l.71-.42c.37-.24.73-.47,1.06-.71l.12-.09c.29-.21.54-.43.79-.64l.22-.19a9.32,9.32,0,0,0,.77-.77l.07-.08a6.75,6.75,0,0,0,.54-.72l.12-.17a6.2,6.2,0,0,0,.39-.77l0-.15a3.55,3.55,0,0,0,.19-.69.58.58,0,0,0,0-.14,4,4,0,0,0,0-.77.88.88,0,0,0,0-.17,3.32,3.32,0,0,0-.13-.7.3.3,0,0,0,0-.1,6.2,6.2,0,0,0-.31-.77l-.1-.17a5.85,5.85,0,0,0-.49-.77L91.18,17c-.24-.3-.49-.63-.74-1l-.35-.45a2,2,0,0,0-.17-.23l-.73-1a1.34,1.34,0,0,0-.11-.14l-1.25-1.65a1.34,1.34,0,0,1-.11-.14c-.12-.16-.24-.33-.38-.5l-.45-.59q-.24-.33-.48-.63l-.49-.66,0-.06L84.05,7.66a4.32,4.32,0,0,1,.34.53.54.54,0,0,1,.07.13,2.7,2.7,0,0,1,.22.53s0,.05,0,.07a4.21,4.21,0,0,1,.09.49s0,.08,0,.12a2.45,2.45,0,0,1,0,.54.36.36,0,0,1,0,.1,3.24,3.24,0,0,1-.13.49.36.36,0,0,1,0,.09,3.4,3.4,0,0,1-.27.54.83.83,0,0,0-.08.12,5.61,5.61,0,0,1-.38.51l0,.06a6.87,6.87,0,0,1-.54.54.34.34,0,0,0-.06.06l-.09.07c-.18.15-.35.3-.56.45l-.08.06c-.23.16-.48.33-.74.49l-.08,0-.42.25c-.32.18-.66.36-1,.53l-.11.06-.17.08c-.4.18-.81.37-1.24.54l-.09,0h0C78.15,15.38,77.72,15.54,77.27,15.7Z" transform="translate(0 0)"/><path class="cls-47" d="M0,29.82c0,.16,0,.32,0,.48s0,.12,0,.19a3.67,3.67,0,0,0,.14.64.14.14,0,0,0,0,.07,4.12,4.12,0,0,0,.23.58A2.12,2.12,0,0,0,.54,32c.08.14.16.29.26.44a2.17,2.17,0,0,0,.15.22,4.67,4.67,0,0,0,.35.46l.15.18c.19.21.39.42.61.63a1.31,1.31,0,0,0,.12.11c.19.17.4.35.62.52l.25.2.67.48L4,35.4c.33.21.68.43,1,.64l.21.11,1,.56.32.15c.45.23.92.44,1.42.66l.23.09c.5.21,1,.42,1.56.62l.28.11,1.85.64.43.13c.6.19,1.22.38,1.86.56h0c.56.16,1.14.31,1.72.46l.62.16,1,.25.9.21.53.12,1.21.25.36.07,1.53.3.33,0,1.61.28.09,0,1.74.27.08,0,1.91.27,2.27.28.1,0,1.92.21.69.07,1.64.15.58,0,.91.07,1.63.13.88,0,1.83.11,1.69.08h.23c.78,0,1.57.06,2.36.08h0l2.31,0h5l2.32,0h0l2.27-.08h.23l2.06-.1.36,0c.69,0,1.37-.08,2.05-.12l.32,0,1.75-.13.51,0c.68-.05,1.36-.11,2-.18l.62-.06,1.49-.15.82-.1,1.24-.15,1.06-.14,1.09-.14.63-.09.46-.07.43-.07-.89.13s0-1,0-1.36v-.14s0,0,0-.06a7.76,7.76,0,0,0-.13-.82v0l0-.06a7,7,0,0,1-.31-.8h0a3.21,3.21,0,0,0-.47-.75l0-.07,0,0-.09-.12c-2.1-3.77-4.88-12.41-7.32-15.62L64.23,22l-.73-1c-.12-.16-.23-.31-.35-.45l-1-1.33-.34-.44-.28,0-.42.05H61l-1.17.1h-.16l-.37,0-.65.05-.55,0-.24,0h-.16l-.94.06-.33,0h-.26l-.32,0-.74,0-.38,0h-.37l-.73,0-.63,0h-.67l-.62,0H47.5l-.66,0h-.67l-.67,0-.89,0h-.22l-.88,0h-.29l-1.3-.08-.45,0h-.16l-1.16-.09-.51,0h-.1l-.43,0-.84-.08-.29,0-.48-.05-.51,0-.8-.09h-.11l-.68-.09-.78-.1H34.5l-.61-.09-.71-.1h-.07l-.62-.1-.59-.09-.09,0h0L31,17.93l-.3-.05-.22,0-.24-.05-.8-.15h0l-.26-.05-.68-.14-.15,0-.38-.08-.43-.09-.19-.05L26.55,17l-.31-.08-.12,0-1.2-.32h0l-1.31-.39-.17-.05-.13-.05c-.45-.14-.89-.29-1.3-.45l-.07,0-.12,0c-.38-.14-.74-.28-1.09-.43l-.11,0-.05,0-1-.45-.1,0-.12-.07c-.26-.12-.51-.25-.74-.38L18.48,14l0,0c-.26-.15-.51-.3-.74-.45l-.06,0-.11-.08c-.16-.11-.32-.22-.47-.34L17,13,16.89,13l-.43-.37-.07-.06,0,0L16,12.09l0,0L15.85,12l-.25-.33a.18.18,0,0,1,0-.07l-.05-.08a2.48,2.48,0,0,1-.18-.31l-.06-.1s0,0,0,0a3.47,3.47,0,0,1-.16-.41.08.08,0,0,0,0,0,4.14,4.14,0,0,1-.09-.46s0,0,0,0A.27.27,0,0,1,15,10a1.9,1.9,0,0,1,0-.34s0-.05,0-.07,0-.06,0-.08A1.86,1.86,0,0,1,15,9.17a.34.34,0,0,1,0-.1s0,0,0,0a3.12,3.12,0,0,1,.18-.48v0l0-.06a2.91,2.91,0,0,1,.23-.42.16.16,0,0,0,0-.07l.15-.21L1.07,27.13c-.11.14-.19.27-.28.4a5.24,5.24,0,0,0-.34.61l0,.1a4,4,0,0,0-.25.68,1.29,1.29,0,0,0,0,.19A2.78,2.78,0,0,0,0,29.6C0,29.67,0,29.75,0,29.82Z" transform="translate(0 0)"/><path class="cls-48" d="M74.33,15.29c0,.05-.07.11-.11.15l0,0A.83.83,0,0,1,74.33,15.29Z" transform="translate(0 0)"/><path class="cls-48" d="M73.23,16.57a.1.1,0,0,1,0,0l0,0Z" transform="translate(0 0)"/><path class="cls-48" d="M70.83,17.46l-.8.17,1.24-.26Z" transform="translate(0 0)"/><path class="cls-48" d="M34.5,18.48a120,120,0,0,0,27.3.35l-.91-1.21-.5-.64c-.14-.2-.29-.39-.45-.59l-.48-.63c-.05-.07-.11-.14-.15-.21s-.22-.29-.33-.45l0-.06-.35-.45-1.47-1.93a4.87,4.87,0,0,0-.43-.49c0-.06-.11-.11-.16-.16l-.35-.33-.23-.18-.38-.3L55.3,11l-.17-.12-.23-.14-.43-.26a3.81,3.81,0,0,0-.4-.23L53.58,10l-.46-.23-.54-.24-.5-.22-.6-.24L51.19,9,51,8.89l-1.63-.57-.14,0c-.54-.17-1.11-.34-1.7-.5l-.46-.12c-.64-.17-1.3-.34-2-.49l-.24-.06c-.63-.14-1.29-.27-2-.4l-.3-.06-.29-.05L41,6.37l-.62-.1c-.66-.11-1.33-.21-2-.3s-1.34-.18-2-.25l-.24,0-.27,0-2.54-.25H33c-.83-.07-1.68-.13-2.51-.18l-.33,0c-.86,0-1.71-.09-2.57-.12l-.49,0L24.62,5A119,119,0,0,1,55.27,5C65.4,6.33,72.05,8.89,74.12,11.74a.56.56,0,0,0-.05-.08L75.89,14l0,.06.49.66.48.63.26.35A25,25,0,0,0,81.23,14c8.5-4.84,1.34-10.65-16-13S27,.66,18.51,5.49,17.17,16.14,34.5,18.48Z" transform="translate(0 0)"/><path class="cls-49" d="M88.8,133.89l-1.63,2.05v.22l.29-.09,1.6-.54.37-.13c.63-.22,1.23-.45,1.81-.69l.42-.18L93,134l.45-.22c.52-.25,1-.51,1.49-.78,3.47-2,5.11-4.06,5.11-6.12l-.18-97c0,2.05-1.64,4.14-5.11,6.12-.47.26-1,.52-1.49.78l-.45.21c-.42.2-.84.39-1.29.58l-.42.18c-.39.16-.8.31-1.21.46l0,16L90,126.51v4.33A4.85,4.85,0,0,1,88.8,133.89Z" transform="translate(0 0)"/><path class="cls-49" d="M87.1,101l.05,26.19h0Z" transform="translate(0 0)"/><path class="cls-49" d="M87.17,135.94c-.07.1-.15.19-.23.29l.23-.07Z" transform="translate(0 0)"/><path class="cls-49" d="M87,54.87h0L87.1,101Z" transform="translate(0 0)"/><path class="cls-49" d="M83.38,105.48l0,22.53h0Z" transform="translate(0 0)"/><path class="cls-49" d="M83.26,40.7h0Z" transform="translate(0 0)"/><path class="cls-49" d="M81.08,41.69l.42-.18-.54.22Z" transform="translate(0 0)"/><path class="cls-49" d="M83.29,55.65h0l.09,37.07,0-23.2Z" transform="translate(0 0)"/><path class="cls-49" d="M80.18,101.05l0,27.51h0l-.06-25.25Z" transform="translate(0 0)"/><path class="cls-49" d="M79.27,42.38l.62-.23-.78.28Z" transform="translate(0 0)"/><polygon class="cls-49" points="80.19 103.31 80.18 101.05 80.23 128.56 80.19 103.31"/><path class="cls-49" d="M80.1,56.2h0l.11,44.84V98.84Z" transform="translate(0 0)"/><path class="cls-49" d="M77.23,101.75l0,27.24h0Z" transform="translate(0 0)"/><path class="cls-49" d="M77.12,43.09h0L77.3,43l-.14,0Z" transform="translate(0 0)"/><path class="cls-49" d="M74.45,129.35l0,9.64.66-.1.92-.15.71-.12.42-.08.12,0,.61-.11,1.3-.26,1-.21,0-9.38-.35.05-2.26.34-.32,0h0l-.1,0-2.52.32-.19,0Z" transform="translate(0 0)"/><path class="cls-49" d="M75.13,138.89l-.66.1h0l.19,0Z" transform="translate(0 0)"/><path class="cls-49" d="M77,43.14l.11,0h0l-.28.1Z" transform="translate(0 0)"/><polygon class="cls-49" points="77.15 56.64 77.12 56.64 77.21 92.37 77.15 56.64"/><path class="cls-49" d="M74.4,101l0,28.31h0Z" transform="translate(0 0)"/><path class="cls-49" d="M74.47,139l-.11,0h.11Z" transform="translate(0 0)"/><polygon class="cls-49" points="74.32 57 74.29 57 74.4 101.03 74.32 57"/><path class="cls-49" d="M71.51,42.38l.17,92.71.2-.25.23-.3.06-.1a6.49,6.49,0,0,0,.37-.6s0-.06,0-.09v0a5.33,5.33,0,0,0,.27-.68.14.14,0,0,0,0-.06.61.61,0,0,0,0-.13,4.42,4.42,0,0,0,.1-.5s0-.07,0-.11a.4.4,0,0,0,0-.11c0-.16,0-.33,0-.49,0,.07,0,.14,0,.2v-2.33l-.14-72.36,0-12.88V42.18l-1,.14Z" transform="translate(0 0)"/><path class="cls-49" d="M68.74,42.73l.18,95.18v.65l.45-.57c.77-1,1.55-1.93,2.31-2.9l-.17-92.71-.41,0-1.83.23Z" transform="translate(0 0)"/><path class="cls-49" d="M66,43l.18,97h0c.57,0,1.13-.11,1.69-.18h0l.81-.09.19,0v-1.84l-.18-95.18-.18,0L66,43Z" transform="translate(0 0)"/><path class="cls-49" d="M63.23,43.26l.18,97h.24l2.28-.21.24,0L66,43l-.24,0-2.28.2Z" transform="translate(0 0)"/><path class="cls-49" d="M60.87,43.43l1.74-.12.62-.05.18,97-.62,0c-.58,0-1.15.09-1.73.12l-.44,0-.18-97Z" transform="translate(0 0)"/><path class="cls-49" d="M58.22,43.58l1.67-.09.55,0,.18,97-.55,0c-.55,0-1.11.07-1.67.09l-.58,0-.18-97Z" transform="translate(0 0)"/><path class="cls-49" d="M55.47,43.69l1.78-.06.39,0,.18,97-.39,0-1.78.07-.65,0-.18-97Z" transform="translate(0 0)"/><path class="cls-49" d="M52.26,43.77l2.35-.05h.21l.18,97h-.21l-2.35.05h-.26l-.18-97Z" transform="translate(0 0)"/><path class="cls-49" d="M49.32,43.79H52l.18,97h0l-2.66,0h-.17l-.18-97Z" transform="translate(0 0)"/><path class="cls-49" d="M87.15,127.23l0,8.71,1.63-2.05a4.85,4.85,0,0,0,1.22-3v-4.33l-.58.16-.37.09-1.6.41-.29.06Z" transform="translate(0 0)"/><path class="cls-49" d="M46.59,43.77l1.95,0h.61l.18,97h-.61l-1.95,0h-.4l-.18-97Z" transform="translate(0 0)"/><path class="cls-49" d="M43.6,43.69l2,.06h.54l.18,97h-.54c-.68,0-1.37,0-2-.06h-.56l-.18-97Z" transform="translate(0 0)"/><path class="cls-49" d="M39.37,43.5c1.13.06,2.26.12,3.4.16H43l.18,97H43c-1.14-.05-2.27-.1-3.4-.17H39.3l-.18-97Z" transform="translate(0 0)"/><path class="cls-49" d="M20.65,41.2l1.29.25.59.11,1.14.2.64.11,1.23.19.56.09,1.84.26c1.76.24,3.54.44,5.33.61l.48,0c1.69.16,3.4.29,5.12.4h.25l.18,97-.25,0c-1.72-.11-3.43-.24-5.12-.4l-.48,0c-1.79-.18-3.57-.38-5.33-.62l-1.84-.26-.56-.08-1.23-.2-.64-.11-1.14-.2-.59-.1-1.29-.25-.3-.06-.18-97Z" transform="translate(0 0)"/><path class="cls-49" d="M15.64,40.06l2.06.51.33.07c.74.17,1.5.34,2.28.5h0l.18,97h-.05c-.77-.16-1.53-.32-2.27-.49l-.33-.08c-.71-.16-1.39-.33-2.06-.51l-.19-.05-.18-97Z" transform="translate(0 0)"/><path class="cls-49" d="M12.27,39.09l1.43.44.25.07,1.29.35.21.06.18,97-.21-.05-1.29-.36-.25-.07c-.49-.14-1-.29-1.43-.44l-.13,0-.18-97Z" transform="translate(0 0)"/><path class="cls-49" d="M9.93,38.28l.69.25.46.17.75.24.31.11.18,97L12,136l-.75-.25-.46-.16-.69-.25-.26-.1-.18-97Z" transform="translate(0 0)"/><path class="cls-49" d="M7.81,37.43c.56.24,1.14.48,1.76.72l.1,0,.18,97-.1,0c-.62-.23-1.2-.47-1.76-.71l-.12-.06-.18-97Z" transform="translate(0 0)"/><path class="cls-49" d="M6.16,36.66c.46.23.93.45,1.43.67l.1.05.18,97-.1,0c-.5-.22-1-.45-1.43-.68l-.11-.06-.18-97Z" transform="translate(0 0)"/><path class="cls-49" d="M4.74,35.88c.38.22.78.45,1.2.66l.11.06.18,97-.11-.05c-.42-.22-.82-.44-1.2-.67l-.08-.05-.18-97Z" transform="translate(0 0)"/><path class="cls-49" d="M3.5,35.08q.5.35,1,.69l.11.07.18,97-.11-.06c-.37-.23-.72-.45-1.05-.68l0,0-.18-97Z" transform="translate(0 0)"/><path class="cls-49" d="M2.56,34.36c.27.23.56.45.87.67l0,0,.18,97-.05,0c-.31-.23-.6-.45-.87-.67a.27.27,0,0,0-.08-.07l-.18-97Z" transform="translate(0 0)"/><path class="cls-49" d="M1.73,33.59c.22.23.46.45.72.68l0,0,.18,97,0,0a9.42,9.42,0,0,1-.72-.68l-.08-.07-.18-97Z" transform="translate(0 0)"/><path class="cls-49" d="M1,32.76a9,9,0,0,0,.58.7l0,.06.18,97-.05-.06a6.14,6.14,0,0,1-.58-.7l0,0L1,32.72Z" transform="translate(0 0)"/><path class="cls-49" d="M.48,31.9a7.57,7.57,0,0,0,.46.75l.05.07.18,97,0-.06a6.68,6.68,0,0,1-.46-.76h0l-.18-97Z" transform="translate(0 0)"/><path class="cls-49" d="M.17,31.09a5.38,5.38,0,0,0,.31.81h0l.18,97h0a5.27,5.27,0,0,1-.31-.8l0-.08L.14,31Z" transform="translate(0 0)"/><path class="cls-49" d="M0,30.18A4.77,4.77,0,0,0,.14,31v0l.18,97h0a4.66,4.66,0,0,1-.13-.82c0-.06,0-.11,0-.16L0,30.12S0,30.16,0,30.18Z" transform="translate(0 0)"/><path class="cls-49" d="M0,30.12l.18,96.93v0L0,30Z" transform="translate(0 0)"/><path class="cls-50" d="M89.88,54.13,90,126.51l1.23-.36.42-.13,1.29-.43.45-.16c.52-.19,1-.38,1.49-.58,3.47-1.47,5.11-3,5.11-4.57l-.18-72.35c0,1.53-1.64,3.09-5.11,4.56-.47.2-1,.39-1.49.59l-.45.15c-.42.15-.84.29-1.29.43l-.42.14Z" transform="translate(0 0)"/><path class="cls-50" d="M71.51,57.3l.17,69.14v3.21l.15,0,1.22-.12-.14-72.36h0l-1,.1Z" transform="translate(0 0)"/><path class="cls-50" d="M68.74,57.56l.18,71v1.37l2.12-.19.65-.07v-3.21L71.51,57.3l-.41,0-1.83.17Z" transform="translate(0 0)"/><path class="cls-50" d="M66,57.78l.18,70.43v1.92h0l1.69-.13h0l.81-.07.19,0v-1.37l-.18-71-.18,0-2.54.2Z" transform="translate(0 0)"/><path class="cls-50" d="M63.47,57.94c.76,0,1.53-.09,2.28-.15H66l.18,72.35-.24,0-2.28.15h-.24L63.23,58Z" transform="translate(0 0)"/><path class="cls-50" d="M60.87,58.08,62.61,58l.62,0,.18,72.35-.62,0-1.73.09-.44,0L60.44,58.1Z" transform="translate(0 0)"/><path class="cls-50" d="M58.22,58.19l1.67-.06.55,0,.18,72.36-.55,0-1.67.07-.58,0-.18-72.35Z" transform="translate(0 0)"/><path class="cls-50" d="M55.47,58.28l1.78-.05h.39l.18,72.35h-.39l-1.78,0-.65,0-.18-72.36Z" transform="translate(0 0)"/><path class="cls-50" d="M52.26,58.34l2.35,0h.21L55,130.65h-.21l-2.35,0h-.26L52,58.34Z" transform="translate(0 0)"/><path class="cls-50" d="M49.32,58.35H52l.18,72.36H49.33l-.18-72.36Z" transform="translate(0 0)"/><path class="cls-50" d="M46.59,58.33l1.95,0h.61l.18,72.36h-3l-.18-72.35Z" transform="translate(0 0)"/><path class="cls-50" d="M43.6,58.27l2,0h.54l.18,72.35h-.54l-2,0h-.56L43,58.26Z" transform="translate(0 0)"/><path class="cls-50" d="M39.37,58.13c1.13,0,2.26.09,3.4.12H43l.18,72.36H43c-1.14,0-2.27-.07-3.4-.12l-.25,0-.18-72.35Z" transform="translate(0 0)"/><path class="cls-50" d="M39.31,130.47h-.26c-1.71-.08-3.42-.18-5.12-.3l-.47,0c-1.8-.13-3.58-.28-5.33-.46l-1.85-.19-.56-.07-1.23-.14-.63-.08L22.71,129l-.46-.06a8,8,0,0,0,1.42-4.49l.48-67.6.16,0,1.23.15.56.06,1.85.2c1.75.17,3.53.32,5.33.45l.47,0c1.7.12,3.41.21,5.12.29l.26,0Z" transform="translate(0 0)"/><path class="cls-50" d="M8.17,53.71v.16l-.35,50L7.69,53.57l.13,0Z" transform="translate(0 0)"/><path class="cls-50" d="M7.82,105.21l-.15,19.16a7.78,7.78,0,0,0,.14,1.53h0l-1.42-.51-.12,0L6.05,53l.12,0c.45.17.93.34,1.42.5l.1,0,.13,50.33Z" transform="translate(0 0)"/><path class="cls-50" d="M4.74,52.45c.38.17.78.33,1.2.5l.11,0,.18,72.35-.11,0c-.42-.16-.82-.33-1.2-.49l-.08,0L4.66,52.42Z" transform="translate(0 0)"/><path class="cls-50" d="M3.5,51.85c.33.18.68.35,1,.52l.11.05.18,72.35-.11,0-1.05-.51h0L3.48,51.85Z" transform="translate(0 0)"/><path class="cls-50" d="M2.56,51.32c.27.17.56.33.87.5l0,0,.18,72.35-.05,0c-.31-.16-.6-.33-.87-.5l-.08,0L2.48,51.27Z" transform="translate(0 0)"/><path class="cls-50" d="M1.73,50.74q.33.25.72.51l0,0,.18,72.35,0,0a8.26,8.26,0,0,1-.72-.5L1.83,123,1.65,50.69Z" transform="translate(0 0)"/><path class="cls-50" d="M1,50.12a5.93,5.93,0,0,0,.58.52l0,0L1.83,123l-.05,0a6.06,6.06,0,0,1-.58-.52l0,0L1,50.1Z" transform="translate(0 0)"/><path class="cls-50" d="M.48,49.48A4.7,4.7,0,0,0,.94,50L1,50.1l.18,72.35,0,0a5.67,5.67,0,0,1-.46-.56h0L.48,49.48Z" transform="translate(0 0)"/><path class="cls-50" d="M.17,48.88a3.43,3.43,0,0,0,.31.6h0l.18,72.36h0a3.43,3.43,0,0,1-.31-.6l0-.06L.14,48.84Z" transform="translate(0 0)"/><path class="cls-50" d="M0,48.2a2.74,2.74,0,0,0,.13.62v0l.18,72.34h0a2.66,2.66,0,0,1-.13-.61s0-.08,0-.12L0,48.15A.43.43,0,0,0,0,48.2Z" transform="translate(0 0)"/><path class="cls-50" d="M0,48.15l.18,72.29v0L0,48.05Z" transform="translate(0 0)"/><path class="cls-51" d="M76.38,140.4l-.25.08-.3.08Zm3.72-1.24-.31.12-.22.07ZM83.27,40.7h0Zm-2,.92-.15.07-.12,0Zm-1.34.53-.62.23-.16,0Zm3.38-1.45h0Zm-2,.92-.15.07-.12,0Zm-1.34.53-.62.23-.16,0Zm-2.77.94h0l.14,0-.18.06-.11,0-.17,0ZM62.52,18.76l-.15,0-.3,0Zm10.71-2.18,0,0a.1.1,0,0,0,0,0Zm1-1.17,0,0s.07-.1.11-.15A.83.83,0,0,0,74.25,15.41ZM74.38,42l1.1-.18-1,.17-.19,0L73.9,42Zm5.79-1.07-.1,0-.22,0Zm7-1.81.14,0-.29.1-.16,0Zm-7.25,3.07-.62.23-.16,0Zm1.34-.53-.15.07-.12,0Zm2-.92h0Zm-2,.92-.15.07-.12,0Zm2-.92h0Zm-4.06,97.45-.17,0-1.13.22Zm-10.29.41v1.19l-.13,0-.26,0-.61.06h0C68.24,139.42,68.59,139,68.92,138.56Z" transform="translate(0 0)"/><path class="cls-48" d="M55.27,5C65.4,6.33,72.05,8.89,74.12,11.74a.56.56,0,0,0-.05-.08L75.89,14l0,.06.49.66.48.63.26.35h0l-.26.09-.95.31-.25.08-.19.05-1,.29-.28.08-.08,0c-.45.13-.9.24-1.37.36h0l-.21,0-1.17.27-.09,0-.44.09-.8.17-.1,0-.16,0-.46.08-.83.16-.22,0L67.8,18l-.8.13-.25,0-.47.07-.77.11-.26,0-.49.07-.75.09-.26,0-.59.07-.58.06h-.06l-.45,0-.27,0-.91-1.21-.5-.64c-.14-.2-.29-.39-.45-.59l-.48-.63c-.05-.07-.11-.14-.15-.21s-.22-.29-.33-.45l0-.06-.35-.45-1.47-1.93a4.87,4.87,0,0,0-.43-.49c0-.06-.11-.11-.16-.16l-.35-.33-.23-.18-.38-.3L55.3,11l-.17-.12-.23-.14-.43-.26a3.81,3.81,0,0,0-.4-.23L53.58,10l-.46-.23-.54-.24-.5-.22-.6-.24L51.19,9,51,8.89l-1.63-.57-.14,0c-.54-.17-1.11-.34-1.7-.5l-.46-.12c-.64-.17-1.3-.34-2-.49l-.24-.06c-.63-.14-1.29-.27-2-.4l-.3-.06-.29-.05L41,6.37l-.62-.1c-.66-.11-1.33-.21-2-.3s-1.34-.18-2-.25l-.24,0-.27,0-2.54-.25H33c-.83-.07-1.68-.13-2.51-.18l-.33,0c-.86,0-1.71-.09-2.57-.12l-.49,0L24.62,5A119,119,0,0,1,55.27,5Zm19,10.44a.83.83,0,0,1,.08-.12c0,.05-.07.11-.11.15Zm-1,1.17h0a.1.1,0,0,1,0,0Z" transform="translate(0 0)"/><path class="cls-47" d="M61.8,18.83l.34.44,1,1.33c.12.14.23.29.35.45l.73,1,.22.29c2.44,3.21,5.22,11.85,7.32,15.62l.09.12,0,0,0,.07a3.21,3.21,0,0,1,.47.75h0a7,7,0,0,0,.31.8l0,.06v0a7.76,7.76,0,0,1,.13.82s0,0,0,.06v.14c0,.34,0,1.36,0,1.36l.89-.13.11,0,.48-.07,1.1-.18,1-.17.53-.09.12,0,.31-.06L79.7,41l.15,0,.32-.07.12,0c.95-.21,1.87-.42,2.76-.64l.21,0,.53-.14,1-.28.8-.22,1-.29.23-.07.31-.1.14,0,.54-.18.6-.2.46-.16.37-.12.6-.23V33.82c0,.13,0,.25,0,.38a3.63,3.63,0,0,0,0-.57.88.88,0,0,0,0-.17,3.32,3.32,0,0,0-.13-.7.3.3,0,0,0,0-.1,6.2,6.2,0,0,0-.31-.77l-.1-.17a5.85,5.85,0,0,0-.49-.77L81.2,21c-.24-.3-.49-.63-.74-1l-.35-.45a2,2,0,0,0-.17-.23l-.73-1a1.34,1.34,0,0,0-.11-.14l-1.24-1.65a1.34,1.34,0,0,1-.11-.14l-.39-.5-.19-.24h0l-.26.09-.95.31-.25.08-.19.05-1,.29-.28.08-.08,0c-.45.13-.9.24-1.37.36h0l-.21,0-1.17.27-.09,0-.44.09-.8.17-.1,0-.16,0-.46.08-.83.16-.22,0L67.8,18l-.8.13-.25,0-.47.07-.77.11-.26,0-.49.07-.75.09-.26,0-.59.07-.58.06h-.06l-.15,0-.3,0Z" transform="translate(0 0)"/><path class="cls-49" d="M74.29,42l0,15,.16,0c.85-.1,1.7-.2,2.52-.32h.15l0-13.54-.11,0-.17,0,.28-.1V41.5l-.12,0-.53.09-1,.17-1,.17Z" transform="translate(0 0)"/><path class="cls-49" d="M72.9,42.18v2.09l0,12.88.87-.1.5,0h0l0-15L73.9,42l-.11,0Z" transform="translate(0 0)"/><path class="cls-49" d="M77.12,43.09V41.5l.31-.06L79.7,41l.15,0,.22,0v1.16l0,14.12h0l-.37,0-2.27.34-.28,0,0-13.54L77.3,43l-.14,0Zm2.15-.71.62-.23-.78.28Z" transform="translate(0 0)"/><path class="cls-49" d="M80.17,40.89l.12,0c.95-.21,1.87-.42,2.76-.64l.21,0v.53l0,14.94h0l-.21,0c-.89.17-1.81.32-2.76.48l-.19,0,0-14.12V40.92Zm.91.8.15-.07-.27.11Z" transform="translate(0 0)"/><path class="cls-49" d="M83.26,40.7h0l0,14.94.5-.1c.34-.07.69-.13,1-.21l.8-.16,1-.22.39-.08h0l0-15.73-.16,0-.23.07-1,.29-.8.22-1,.28-.53.14Z" transform="translate(0 0)"/><path class="cls-49" d="M87,39.14l0,15.73.26-.06,1.6-.41.37-.09.63-.18,0-16-.6.23-.37.12-.46.16-.6.2-.54.18Z" transform="translate(0 0)"/><path class="cls-49" d="M68.92,138.56v1.19l2.12-.26c.22,0,.43-.06.65-.09v-4.31c-.76,1-1.54,1.93-2.31,2.9Z" transform="translate(0 0)"/><path class="cls-49" d="M71.68,135.09v4.31l.15,0q.85-.1,1.68-.24l.65-.1.19,0,.11,0,0-9.64h-.09l-.19,0-.65.08-.46,0v2.33c0-.06,0-.13,0-.2,0,.16,0,.33,0,.49a.4.4,0,0,1,0,.11s0,.07,0,.11a4.42,4.42,0,0,1-.1.5.61.61,0,0,1,0,.13.14.14,0,0,1,0,.06,5.33,5.33,0,0,1-.27.68v0s0,.06,0,.09a6.49,6.49,0,0,1-.37.6l-.06.1-.23.3Z" transform="translate(0 0)"/><path class="cls-49" d="M80.23,128.56l0,9.38,1-.22.69-.16,1.45-.35h.06l0-9.19-.19,0c-.89.16-1.81.32-2.76.47l-.22,0Z" transform="translate(0 0)"/><path class="cls-49" d="M83.42,128l0,9.19.66-.17c.45-.12.89-.23,1.32-.36l.09,0,.3-.08.3-.08.55-.17.28-.08c.08-.1.16-.19.23-.29l0-8.71-.37.09-1,.21-.8.17-1,.2-.53.11Z" transform="translate(0 0)"/><path class="cls-49" d="M72.92,57.15l.14,72.36.46,0,.65-.08.19,0h.09l0-28.31h0l-.11-44-.5,0Z" transform="translate(0 0)"/><path class="cls-52" d="M74.4,101l0,28.31h0Z" transform="translate(0 0)"/><path class="cls-49" d="M74.32,57l.08,44h0l.07,28.3h0l.19,0,2.52-.32.1,0,0-27.24V101l0-8.67-.09-35.73H77c-.82.12-1.67.22-2.52.32Z" transform="translate(0 0)"/><path class="cls-52" d="M77.3,129l-.07-27.24,0,27.24Z" transform="translate(0 0)"/><polygon class="cls-52" points="74.29 57 74.4 101.03 74.32 57 74.29 57"/><path class="cls-49" d="M77.15,56.64l.06,35.73,0,8.67v.71L77.3,129l.32,0,2.26-.34.35-.05,0-27.51-.11-44.84-.37,0-2.27.34Z" transform="translate(0 0)"/><path class="cls-52" d="M80.19,103.31v-2.26l0,27.51h0Z" transform="translate(0 0)"/><polygon class="cls-52" points="80.18 98.84 80.07 56.21 80.18 101.05 80.18 98.84"/><polygon class="cls-52" points="77.12 56.64 77.21 92.37 77.15 56.64 77.12 56.64"/><path class="cls-49" d="M80.1,56.2l.08,42.64v4.47l.06,25.25.22,0c1-.15,1.87-.31,2.76-.47l.19,0,0-22.53V92.73l-.09-37.07-.21,0c-.89.17-1.81.32-2.76.48Z" transform="translate(0 0)"/><path class="cls-52" d="M83.44,128l-.06-22.53,0,22.53Z" transform="translate(0 0)"/><path class="cls-52" d="M80.07,56.21l.11,44.84V98.84L80.1,56.2Z" transform="translate(0 0)"/><path class="cls-49" d="M83.29,55.65l0,13.88,0,23.2v12.75L83.44,128l.53-.11,1-.2.8-.17,1-.21.37-.09L87.1,101,87,54.88,86.6,55l-1,.22-.8.16c-.34.08-.69.14-1,.21Z" transform="translate(0 0)"/><path class="cls-52" d="M87.17,127.23,87.1,101l.05,26.19Z" transform="translate(0 0)"/><path class="cls-52" d="M83.26,55.66l.09,37.07,0-23.2,0-13.88Z" transform="translate(0 0)"/><path class="cls-49" d="M87,54.87,87.1,101l.07,26.19.29-.06,1.6-.41.37-.09.58-.16-.13-72.38-.63.18-.37.09-1.6.41Z" transform="translate(0 0)"/><path class="cls-52" d="M87,54.88,87.1,101,87,54.87Z" transform="translate(0 0)"/><path class="cls-53" d="M79.79,139.28l.31-.12-.53.19Z" transform="translate(0 0)"/><path class="cls-46" d="M74.17,139l1.26.35c.41.11.81.24,1.19.36s.76.25,1.12.38.52.19.77.29c0,0,0,0,0,0l.28.11.76.32.25.11.82.39c.26.13.52.27.76.41a8.61,8.61,0,0,1,.79.46c1.58-2,3.17-4,4.76-6l-.28.08-.55.17-.3.08-.3.08-.09,0c-.43.13-.87.24-1.32.36l-.66.17h-.06l-1.45.35-.69.16-1,.22-1,.21-.17,0-1.13.22-.61.11-.12,0-.42.08-.71.12-.92.15-.66.1-.11,0Z" transform="translate(0 0)"/><path class="cls-46" d="M65.52,142.83h0l2.36-3h0l.61-.06.26,0,.13,0,2.12-.26c.22,0,.43-.06.65-.09l.15,0q.85-.1,1.68-.24l.65-.1,1.26.35c.41.11.81.24,1.19.36s.76.25,1.12.38.52.19.77.29c0,0,0,0,0,0l.28.11.76.32.25.11.82.39c.26.13.52.26.76.41a8.61,8.61,0,0,1,.79.46c-2.64,3.32-5.27,6.64-7.92,9.95a8.22,8.22,0,0,1-1.37,1.3l-.48.11-.48.11-1.22.27-.2,0-.12,0c-.53.11-1.06.2-1.61.3l-.48.08h0l-1.13.19-.59.09-1.19.17-.55.07-1.56.19-.2,0-.15,0-1.64.16-.55,0-1.3.11-.65,0-1.27.08-.63,0-1.61.08-.27,0-.61,0h-.62C54,155.65,62.81,146.26,65.52,142.83Zm10.61-2.35.25-.08-.55.16Z" transform="translate(0 0)"/><path class="cls-51" d="M73.08,44.23l.21,0,.52-.14Z" transform="translate(0 0)"/><path class="cls-51" d="M64.16,20.68l.08,0,.28-.08Z" transform="translate(0 0)"/><path class="cls-51" d="M65.51,20.29l.19-.06.25-.08h0Z" transform="translate(0 0)"/><path class="cls-51" d="M66.9,19.84l.26-.08.13-.05h0Z" transform="translate(0 0)"/><path class="cls-51" d="M68.59,19.22l0,0,.09,0Z" transform="translate(0 0)"/><path class="cls-51" d="M70,18.62l.17-.08.11-.05h0Z" transform="translate(0 0)"/><path class="cls-51" d="M71.25,18l.42-.24.07-.05.06,0C71.62,17.73,71.45,17.84,71.25,18Z" transform="translate(0 0)"/><path class="cls-51" d="M72.34,17.26l.15-.1.08-.06h0Z" transform="translate(0 0)"/><path class="cls-51" d="M73.18,16.61l0,0h0A.1.1,0,0,1,73.18,16.61Z" transform="translate(0 0)"/><path class="cls-51" d="M73.78,16s0,0,0,0l.05-.06,0-.06Z" transform="translate(0 0)"/><path class="cls-51" d="M83.26,40.7h0Z" transform="translate(0 0)"/><path class="cls-51" d="M81.47,138.62l.55-.23.43-.2-.77.34-.22.1Z" transform="translate(0 0)"/><path class="cls-51" d="M81,41.73l.12,0,.42-.18Z" transform="translate(0 0)"/><path class="cls-51" d="M79.57,139.35l.22-.07.31-.12Z" transform="translate(0 0)"/><path class="cls-51" d="M79.11,42.43l.16,0,.62-.23Z" transform="translate(0 0)"/><path class="cls-51" d="M78,139.9l.07,0c.2-.06.38-.13.57-.2l-.91.31Z" transform="translate(0 0)"/><path class="cls-51" d="M76.84,43.19l.17,0,.11,0L77.3,43l-.14,0h0Z" transform="translate(0 0)"/><path class="cls-51" d="M74.22,15.44l0,0a.83.83,0,0,1,.08-.12C74.29,15.34,74.26,15.4,74.22,15.44Z" transform="translate(0 0)"/><path class="cls-51" d="M75.83,140.56l.3-.08.25-.08Z" transform="translate(0 0)"/><path class="cls-51" d="M75.64,43.54l.56-.16-.87.25Z" transform="translate(0 0)"/><path class="cls-51" d="M74.82,13.58v-.05s0-.08,0-.12h0C74.81,13.46,74.82,13.52,74.82,13.58Z" transform="translate(0 0)"/><path class="cls-51" d="M74.8,14.07V14s0,.08,0,.13S74.79,14.09,74.8,14.07Z" transform="translate(0 0)"/><path class="cls-51" d="M74.73,13a.07.07,0,0,1,0-.05.64.64,0,0,1,0-.07h0Z" transform="translate(0 0)"/><path class="cls-51" d="M74.61,14.76v0l0,.06Z" transform="translate(0 0)"/><path class="cls-51" d="M74.43,12.23v0l0,0Z" transform="translate(0 0)"/><path class="cls-51" d="M74.12,141l.25-.07-.38.1-.16.05Z" transform="translate(0 0)"/><path class="cls-51" d="M71.26,141.72l.68-.15L73,141.3q-1.12.28-2.31.54Z" transform="translate(0 0)"/><path class="cls-51" d="M69.06,142.19l.17,0,.71-.15h0c-.64.14-1.28.26-1.93.39Z" transform="translate(0 0)"/><path class="cls-46" d="M69.64,144.11a14.61,14.61,0,0,1,4.25-.92c1.47-.25,2.91-.59,4.34-1a1.51,1.51,0,0,0-.8-2.9c-3,.83-6.52.8-9.31,2.21-1.72.87-.2,3.46,1.52,2.59Z" transform="translate(0 0)"/><path class="cls-46" d="M78.05,140.44l4.79-1.84c.6-.23.34-1.2-.26-1l-4.8,1.84c-.59.23-.34,1.2.27,1Z" transform="translate(0 0)"/><path class="cls-46" d="M81.66,138.48a44.36,44.36,0,0,1-9.49,3.39c-.62.15-.36,1.12.27,1a46.06,46.06,0,0,0,9.72-3.5c.58-.28.07-1.15-.5-.86Z" transform="translate(0 0)"/><ellipse class="cls-54" cx="60.33" cy="9.69" rx="13.5" ry="3.76" transform="translate(-0.02 0.11) rotate(-0.11)"/><path class="cls-49" d="M78.62,110.28a132.69,132.69,0,0,1-.5,16.92,1.51,1.51,0,0,0,2.8.76c2.33-5.21,4.38-10.31,4-16.12a1.5,1.5,0,0,0-3,0c-.39,4.5-2.21,13.07.68,16.94a1.52,1.52,0,0,0,2.59,0A12.12,12.12,0,0,0,87,121l-2.79.76a7,7,0,0,1,1.21,5.11h3a14.41,14.41,0,0,0-1.09-5.2,1.5,1.5,0,0,0-2.89.8c1.36,6.49-2.55,6.11-6.85,7.59A13.68,13.68,0,0,0,72,133.41a1.5,1.5,0,0,0,2.12,2.12c3.52-3.53,8.78-2.46,12.45-5.32,2.52-2,1.32-5.92.76-8.57l-2.89.8a8.9,8.9,0,0,1,1,4.4,1.5,1.5,0,0,0,3,0,11.55,11.55,0,0,0-1.62-6.63c-.7-1.22-2.94-.76-2.8.76a9.56,9.56,0,0,1-1.38,6.3h2.59c-2.33-3.14-.59-11.77-.27-15.43H82c.32,5.35-1.47,9.8-3.62,14.6l2.79.76a132.69,132.69,0,0,0,.5-16.92c0-1.93-3-1.94-3,0Z" transform="translate(0 0)"/><path class="cls-49" d="M68.8,135.61c-.15.17-.3.33-.46.48a2.32,2.32,0,0,1-.42.33,3.57,3.57,0,0,1-1.07.5,1.5,1.5,0,0,0-1.08,1.64,1.54,1.54,0,0,0,1.48,1.3,4.39,4.39,0,0,0,2.65-.54,1.5,1.5,0,0,0-1.51-2.59,1.35,1.35,0,0,1-.45.16,3.38,3.38,0,0,1-.69,0l.4,2.95a7,7,0,0,0,3.27-2.07,1.55,1.55,0,0,0,0-2.13,1.52,1.52,0,0,0-2.12,0Z" transform="translate(0 0)"/><path class="cls-49" d="M79.63,127.49a57,57,0,0,0-.36-9.95,1.5,1.5,0,0,0-3,0,52.54,52.54,0,0,1-1.87,11.75h2.9c-2.8-7.42,1.74-15.4,3.32-22.67a93.23,93.23,0,0,0,2-21.27h-3L80,97.88a1.5,1.5,0,0,0,3,0c.3-6.94.33-13.87,0-20.81-.14-3.15-.36-6.29-.64-9.44s-2-9,.69-11.64H81c1.92,1.6,1.23,6.46,1.34,8.73.16,3.42.32,6.84.45,10.27.25,6.7.31,13.39,0,20.09-.09,1.73,2.47,2,3,.4C87.51,89.35,87,82.93,87.13,76.6c.22-7.28.77-14.54,1.31-21.8.12-1.67-2.7-2.08-3-.4a90.19,90.19,0,0,0-.09,25.94c.25,1.81,2.79,1.14,2.95-.4A5.29,5.29,0,0,0,88,76.68c-.46-1.58-3-1.34-3,.4a403,403,0,0,1-.11,41c-.1,1.93,2.9,1.92,3,0a403,403,0,0,0,.11-41l-3,.4.21,2.46,2.94-.39a85.26,85.26,0,0,1,.09-24.35l-2.94-.4c-.5,6.6-1,13.2-1.24,19.82s.5,13.63-1.43,20.07l2.94.39c.42-8.29.2-16.58-.17-24.88-.15-3.48-.27-7-.49-10.45-.15-2.39,0-4.28-2-5.88a1.53,1.53,0,0,0-2.12,0c-4.35,4.22-1.64,12.26-1.26,17.54A231.43,231.43,0,0,1,80,97.88h3l-.35-12.53c0-1.92-3-1.93-3,0a89.69,89.69,0,0,1-3.33,26c-1.8,6.3-4.37,12.24-1.93,18.72a1.52,1.52,0,0,0,2.9,0,57.28,57.28,0,0,0,2-12.55h-3a57,57,0,0,1,.36,9.95c-.09,1.93,2.91,1.93,3,0Z" transform="translate(0 0)"/><path class="cls-49" d="M80,112.58c-2.35-9.6-4.13-19.29-1.44-29l-2.89-.8a13.39,13.39,0,0,0-.09,5.53c.24,1.42,2.06,1.28,2.74.36a27.35,27.35,0,0,0,4-7.8l-3-.4,0,4.76,2.8-.75c-3.17-4.46-2.93-8.67-2.88-13.92q.08-7.35.08-14.69a1.5,1.5,0,0,0-3,0c0,6.2-.07,12.4-.12,18.6,0,4.62.64,7.73,3.33,11.52a1.51,1.51,0,0,0,2.79-.76l0-4.76a1.5,1.5,0,0,0-2.94-.39,24.69,24.69,0,0,1-3.71,7.08l2.74.36.09-3.94a1.5,1.5,0,0,0-2.89-.8c-2.83,10.23-1,20.51,1.43,30.62.46,1.88,3.35,1.08,2.9-.8Z" transform="translate(0 0)"/><path class="cls-49" d="M73.62,56.37c1.22,11.94-.46,23.9.27,35.86.09,1.39,2.08,2.18,2.8.76a13.66,13.66,0,0,0,1.68-5.14c.2-2.22-.53-4.25.08-6.47L76,82l.59.68c1.28,1.45,3.4-.68,2.13-2.12l-.6-.68a1.51,1.51,0,0,0-2.51.66c-1,3.76.46,7.13-1.46,10.9l2.79.75c-.73-12,1-23.92-.27-35.86-.2-1.91-3.2-1.93-3,0Z" transform="translate(0 0)"/><path class="cls-49" d="M73.87,92.61c-.77,8.19-.91,16.36,2.2,24.12.7,1.76,3.61,1,2.89-.8-3-7.53-2.84-15.38-2.09-23.32.18-1.92-2.82-1.91-3,0Z" transform="translate(0 0)"/><path class="cls-49" d="M75.44,107.35c.63,1.77-.27,3.63-.57,5.4a24.67,24.67,0,0,0-.32,5.22l3-.4a28.84,28.84,0,0,1-.2-7.71c.13-1.93-2.88-1.92-3,0a31.5,31.5,0,0,0,.31,8.51c.33,1.65,3,1.28,2.94-.4a24.47,24.47,0,0,1,.71-6.66,8,8,0,0,0,.07-4.75c-.64-1.81-3.54-1-2.89.79Z" transform="translate(0 0)"/><path class="cls-49" d="M73,46.2c4.53-1.58,9.41-1.75,14-3.41,1.79-.65,1.08-3.46-.8-2.89a109.32,109.32,0,0,1-12,2.92c-1.9.35-1.1,3.24.79,2.89a107.25,107.25,0,0,0,12-2.92l-.8-2.89c-4.53,1.66-9.42,1.82-14,3.41-1.81.64-1,3.54.8,2.89Z" transform="translate(0 0)"/><path class="cls-47" d="M63,23.84c5.16-2.81,12-2.48,17.73-3,1.9-.19,1.92-3.19,0-3-6.31.6-13.54.34-19.25,3.44-1.69.92-.18,3.51,1.52,2.59Z" transform="translate(0 0)"/><path class="cls-55" d="M20.47,101.92a12.44,12.44,0,0,0,3.36-.56l-.16,23.13A8,8,0,0,1,22.25,129l-.12,0-1.3-.19-.3,0Z" transform="translate(0 0)"/><path class="cls-55" d="M24.15,56.89,24.07,68.8c-2.05-3.44-3.65-5.87-3.65-5.87l0,0,0-6.61.29.05,1.3.18.58.08,1.15.15Z" transform="translate(0 0)"/><path class="cls-55" d="M20.38,63c-.33.47-2.44,3.53-4.88,7.5l0-15,.18,0c.67.13,1.36.26,2.07.38L18,56c.73.13,1.49.25,2.27.37h.05l0,6.61Z" transform="translate(0 0)"/><path class="cls-55" d="M20.53,128.73h0l-2.27-.36-.33-.06c-.71-.12-1.4-.25-2.07-.38l-.18,0-.07-26.75a12.76,12.76,0,0,0,4.48.8h.42Z" transform="translate(0 0)"/><path class="cls-55" d="M15.5,70.49c-1.08,1.75-2.22,3.65-3.3,5.6l0-21.28.12,0,1.44.33.24,0,1.29.26.22.05Z" transform="translate(0 0)"/><path class="cls-55" d="M15.64,127.88l-.22,0-1.29-.27-.24,0-1.44-.32-.12,0-.07-27.86a12.69,12.69,0,0,0,3.31,1.82Z" transform="translate(0 0)"/><path class="cls-55" d="M12.2,76.11c-.88,1.59-1.72,3.2-2.45,4.75L9.68,54.17l.25.07.69.19.47.12.74.18.32.08,0,21.28Z" transform="translate(0 0)"/><path class="cls-55" d="M12.33,127.17l-.32-.08-.74-.19-.47-.12-.69-.18-.25-.08L9.79,96.83a12.89,12.89,0,0,0,2.47,2.48Z" transform="translate(0 0)"/><path class="cls-55" d="M9.75,80.89A39.55,39.55,0,0,0,8,85.23l.22-31.36v-.16c.45.15.92.29,1.4.43l.11,0,.07,26.69Z" transform="translate(0 0)"/><path class="cls-55" d="M9.86,126.52l-.11,0c-.61-.17-1.2-.35-1.75-.53l-.13,0,0-20.71V103.9l.07-10.56a12.4,12.4,0,0,0,1.9,3.46v0Z" transform="translate(0 0)"/><path class="cls-55" d="M7.87,125.92l-.06,0a7.78,7.78,0,0,1-.14-1.53l.15-19.16Z" transform="translate(0 0)"/><path class="cls-56" d="M22.25,129a8,8,0,0,1-6.58,3.45h-.06a8,8,0,0,1-7.8-6.53l.06,0L8,126c.55.18,1.14.36,1.75.53l.11,0,.25.08.69.18.47.12.74.19.32.08.12,0,1.44.32.24,0,1.29.27.22,0,.18,0c.67.13,1.36.26,2.07.38l.33.06,2.27.36h0l.3,0,1.3.19Z" transform="translate(0 0)"/><path class="cls-56" d="M24.17,54l0,2.9-.47-.06-1.15-.15L22,56.6l-1.3-.18-.29-.05h-.05c-.78-.12-1.54-.24-2.27-.37l-.33-.06c-.71-.12-1.4-.25-2.07-.38l-.18,0-.22-.05L14,55.22l-.24,0-1.44-.33-.12,0-.32-.08-.74-.18-.47-.12-.69-.19-.25-.07-.11,0c-.48-.14-1-.28-1.4-.43a8,8,0,0,1,8-7.78h.06A8,8,0,0,1,24.17,54Z" transform="translate(0 0)"/><line class="cls-57" x1="20.67" y1="30.43" x2="22.67" y2="26.43"/><path class="cls-58" d="M24.07,68.8l-.24,32.56a12.44,12.44,0,0,1-3.36.56L20.38,63h0l0,0S22,65.36,24.07,68.8Z" transform="translate(0 0)"/><path class="cls-58" d="M20.47,101.92h-.42a12.76,12.76,0,0,1-4.48-.8L15.5,70.49c2.44-4,4.55-7,4.88-7.5Z" transform="translate(0 0)"/><path class="cls-58" d="M15.57,101.13a12.69,12.69,0,0,1-3.31-1.82l-.06-23.2v0c1.08-2,2.22-3.85,3.3-5.6Z" transform="translate(0 0)"/><path class="cls-58" d="M12.26,99.31a12.89,12.89,0,0,1-2.47-2.48v0l0-15.91v0c.73-1.55,1.57-3.16,2.45-4.75Z" transform="translate(0 0)"/><path class="cls-58" d="M9.79,96.8a12.4,12.4,0,0,1-1.9-3.46v0L8,85.23a39.55,39.55,0,0,1,1.8-4.34Z" transform="translate(0 0)"/><path class="cls-58" d="M8,85.23l-.06,8.08A11.21,11.21,0,0,1,8,85.23Z" transform="translate(0 0)"/><path class="cls-59" d="M32.92,89.05a12.87,12.87,0,0,1-9.09,12.31l.24-32.56C27.76,75,32.92,84.48,32.92,89.05Z" transform="translate(0 0)"/><path class="cls-59" d="M68.18,110.42a16.51,16.51,0,1,1-33,0c0-9.11,17-33.49,17-33.49S68.18,101.31,68.18,110.42Z" transform="translate(0 0)"/></g></g></g></svg>