<svg xmlns="http://www.w3.org/2000/svg" width="156.52" height="152.06" viewBox="0 0 156.52 152.06"><title>item_mushroom_outline</title><path d="M154.94,63.84c-6.74-17.83-16.18-35-31.17-47.28C110.61,5.82,94.28-.64,77.13.05c-20.69.84-39.55,11-54.38,25.06C10.86,36.34-2.29,50.9.34,68.53c1.55,10.39,8.53,15.84,18,18.89,4.65,1.5,9.3,3,14,4.44,5.74,1.75,12.84,5,18.86,5l-5.3-12.8C42.25,88.69,38.64,93.33,35.1,98c-2.83,3.75-5.84,7.38-7.53,11.8-3.81,9.93-2.72,22,3.6,30.67A28.56,28.56,0,0,0,61.29,151.2c10.34-2.52,18-11.34,23.49-20A83.23,83.23,0,0,0,96.91,98l-7.23,5.5c15.19,1.12,33.82,5.35,48.44-.75s21.79-24.07,16.82-38.86c-3.06-9.11-17.55-5.2-14.46,4,3.21,9.57-1.69,20.32-12.08,22.15-12.47,2.19-26.24-.61-38.72-1.53-2.9-.21-6.82,2.46-7.23,5.51a73.19,73.19,0,0,1-9.59,28c-4.43,7.41-11.11,16.28-20.85,15-8.62-1.13-12.68-10.18-11.46-18.08.67-4.41,2.89-7.16,5.51-10.7,3.4-4.58,6.91-9.08,10.42-13.57,3.81-4.86,1.76-12.8-5.3-12.8-.91,0-3.81-1.27-5.27-1.67q-3.67-1-7.33-2.12c-3.91-1.16-7.8-2.39-11.68-3.64-5.08-1.64-10.85-2.14-11.84-8.27-1.91-11.8,10.65-23.25,18.29-30.45C44.92,24.82,59.78,16.08,76,15.11a54.2,54.2,0,0,1,35.76,11c13.87,10.3,22.74,25.88,28.75,41.77C143.86,76.77,158.36,72.89,154.94,63.84Z" fill="#fff"/><path d="M147.71,65.83l-.65-1.72c-18.36-49-57.54-67.32-94.53-50.52A87.23,87.23,0,0,0,31.85,27,113.5,113.5,0,0,0,19.44,39.48L15,44.63C4.83,56.53,4.28,75.12,17.28,79.21,25.05,81.66,36,85.46,51.17,89.37h0c8.52,2.19,16.7,4.14,21.55,4.91,3.45.55,8.56,1,14.36,1.49l-1.22-.72A51.35,51.35,0,0,0,61.27,88l-8.81-.24c1.31-1.66,2.23-2.81,2.48-3.14,1.45-1.84,2.82-3.58,4-5.16A24.45,24.45,0,0,1,44.22,65.11c6.58.28,14.07.91,22.09,1.9,1.91-5.09,3.26-9.85,8.2-12.38a11.71,11.71,0,0,1,4.27-.88,5.12,5.12,0,0,1,.69,0,.61.61,0,0,1,.19,0,4.55,4.55,0,0,1,.66.1,2.71,2.71,0,0,1,.41.09l.07,0,.47.14h0l.4.16.26.11,0,0a2.2,2.2,0,0,1,.31.15,8.21,8.21,0,0,1,1.12.72l.3.24.4.36.21.21c.16.16.31.32.45.49a3.54,3.54,0,0,1,.35.42c.16.19.31.4.46.61s.27.39.4.6c.29.46.56,1,.82,1.46.12.23.24.46.35.7.36.78.7,1.61,1,2.46l.21.62c.13.35.25.71.36,1.07l.36,1.17c.15.52.3,1,.44,1.56a29.33,29.33,0,0,1,.72,3.53c.88,5.57.73,12.52,0,19.63-.17,1.83-.39,3.67-.63,5.5,18.54,1.33,34.59,3.71,44.6.26C142.75,93.29,153.15,80.37,147.71,65.83Z" fill="#ffae64"/><path d="M90.27,70.82l-3.65-.69c-1.4-.26-2.83-.5-4.27-.75-.72-.12-1.44-.25-2.17-.36L78,68.66C74,68,70.09,67.48,66.31,67c1.91-5.09,3.26-9.85,8.2-12.38a10.4,10.4,0,0,1,5.81-.73,2.71,2.71,0,0,1,.41.09,4.41,4.41,0,0,1,.58.17l.4.16a1.08,1.08,0,0,1,.29.13l.31.15a8.36,8.36,0,0,1,2.48,2,4.87,4.87,0,0,1,.35.42,21,21,0,0,1,3,5.83l.21.62c.26.73.49,1.48.72,2.24.15.52.3,1,.44,1.56A29.33,29.33,0,0,1,90.27,70.82Z" fill="#ffae64"/><path d="M59,79.45c-1.22,1.58-2.59,3.32-4,5.16-22.54-5-38.24-11.15-37.57-15.42.53-3.37,11.12-4.74,26.85-4.08A24.45,24.45,0,0,0,59,79.45Z" fill="#f48f56"/><path d="M135.49,87.83c-.72,4.55-19.84,5.46-45.18,2.62.69-7.11.84-14.06,0-19.63C116.83,76,136.24,83.09,135.49,87.83Z" fill="#f48f56"/><path d="M90.31,90.45c-.17,1.83-.39,3.67-.63,5.5l-2.59-.18-1.22-.72A51.35,51.35,0,0,0,61.27,88l-8.81-.24c1.31-1.66,2.23-2.81,2.48-3.14,6.19,1.37,12.9,2.64,19.93,3.75C80.19,89.2,85.37,89.9,90.31,90.45Z" fill="#ced4f4"/><path d="M89.68,96c-.05.42-.11.83-.17,1.24l-2.42-1.42Z" fill="#ced4f4"/><path d="M89.51,97.19c-.14,1.06-.29,2.12-.45,3.16-2.18,14.15-14.57,40.59-30.26,43.73-19.89,4-31.24-16.15-23.49-33.49C37.16,107.36,46,96,51.18,89.37l1.28-1.62,8.81.24a51.35,51.35,0,0,1,24.6,7.06l1.22.72Z" fill="#f7f7f7"/><path d="M90.31,90.45c-4.94-.55-10.12-1.25-15.44-2.09-7-1.11-13.74-2.38-19.93-3.75,1.45-1.84,2.82-3.58,4-5.16a23.52,23.52,0,0,0,7.63,1.25,25.28,25.28,0,0,0,20-10.57l3.65.69C91.15,76.39,91,83.34,90.31,90.45Z" fill="#ced4f4"/><path d="M66.31,67c0,.12-.09.25-.14.37a33.45,33.45,0,0,1-3.08,6.4c-.91,1.41-2.35,3.37-4.11,5.67A24.45,24.45,0,0,1,44.22,65.11C50.8,65.39,58.29,66,66.31,67Z" fill="#f48f56"/><path d="M86.62,70.13a25.28,25.28,0,0,1-20,10.57A23.52,23.52,0,0,1,59,79.45c1.76-2.3,3.2-4.26,4.11-5.67a33.45,33.45,0,0,0,3.08-6.4c0-.12.09-.25.14-.37,3.78.47,7.69,1,11.67,1.65l2.2.36,2.17.36C83.79,69.63,85.22,69.87,86.62,70.13Z" fill="#ced4f4"/><path d="M89.11,65.73a23,23,0,0,1-2.49,4.4c-1.4-.26-2.83-.5-4.27-.75L80.18,69,78,68.66C74,68,70.09,67.48,66.31,67c-8-1-15.51-1.62-22.09-1.9a26.32,26.32,0,0,1-1.85-8.65c-.59-13.1,11.56-24.25,24.24-24.25,13.6,0,23.66,11.11,24.25,24.25A20.78,20.78,0,0,1,89.11,65.73Z" fill="#fcc79a"/><path d="M112.79,44.63l4.5,6.91c2.13,3.28,6.74,5,10.26,2.69,3.28-2.11,5-6.74,2.69-10.26l-4.5-6.91c-2.14-3.28-6.75-5-10.26-2.69-3.28,2.11-5,6.74-2.69,10.26Z" fill="#fcc79a"/></svg>