<svg xmlns="http://www.w3.org/2000/svg"   width="60px" height="60px" viewBox="0 0 187.13 124.43"><defs><style>.cls-1{fill:#eae8ea;}.cls-2{fill:#9e6b49;}.cls-3{fill:#965544;}.cls-4{fill:#e8b3e8;}.cls-5{fill:#fff;}</style></defs><title>item_meat</title><g id="Layer_2" data-name="Layer 2"><g id="Layer_1-2" data-name="Layer 1"><g id="Meat"><circle class="cls-1" cx="14.7" cy="49.97" r="14.7"/><circle class="cls-1" cx="14.7" cy="70.8" r="14.7"/><rect class="cls-1" x="18.38" y="42.62" width="52.68" height="35.53"/><path class="cls-2" d="M31,59.38c0-84.53,34-54,75.88-54S187-24.68,187,59.85,148.78,117,106.87,117,31,143.9,31,59.38Z"/><path class="cls-3" d="M31,62.58c0-84.52,34,31.47,75.88,31.47S187-21.47,187,63.05s-38.24,57.15-80.15,57.15S31,147.11,31,62.58Z"/><path class="cls-2" d="M170.32,31.94c2.22,23.08,7,47-1.33,69.33-2.7,7.25,8.9,10.38,11.57,3.19,8.73-23.45,4.09-48.31,1.76-72.52-.73-7.62-12.74-7.69-12,0Z"/><path class="cls-2" d="M179.17,32.41a80.89,80.89,0,0,1,.93,13.64c0,3.86,6,3.86,6,0A90.28,90.28,0,0,0,185,30.82c-.59-3.81-6.38-2.19-5.78,1.59Z"/><path class="cls-2" d="M175.62,115.25a75.49,75.49,0,0,0,10.43-33.14c1.08-13.9,1.84-27.75-.16-41.6-.56-3.81-6.34-2.19-5.79,1.59,1.83,12.63,1,25.4.1,38.07a71.43,71.43,0,0,1-9.76,32.05c-1.94,3.34,3.24,6.37,5.18,3Z"/><path class="cls-2" d="M186.18,45.93a37.4,37.4,0,0,1-.4-9.74c.05-.64-.95-.64-1,0a38.08,38.08,0,0,0,.44,10c.11.64,1.07.37,1-.26Z"/><path class="cls-2" d="M176.85,113.7a59.78,59.78,0,0,0,8.22-25.14c.38-3.84-5.62-3.81-6,0a52.84,52.84,0,0,1-7.4,22.11c-2,3.33,3.2,6.35,5.18,3Z"/><path class="cls-2" d="M174.56,115.43c13.94-14.35,11.74-36.78,10-55.07-.37-3.81-6.37-3.85-6,0,1.57,16.42,4.34,37.87-8.24,50.83-2.69,2.77,1.55,7,4.24,4.24Z"/><path class="cls-2" d="M185.05,88.75c1.67-7.52,1.59-15.08,1.33-22.73-.14-3.85-6.14-3.87-6,0,.24,7.09.43,14.16-1.12,21.13-.83,3.76,5,5.37,5.79,1.6Z"/><path class="cls-2" d="M185.43,88.42v-22c0-3.86-6-3.87-6,0v22c0,3.86,6,3.87,6,0Z"/><path class="cls-2" d="M185,90.09A103.08,103.08,0,0,0,186.64,67c-.16-3.85-6.16-3.87-6,0a95.87,95.87,0,0,1-1.46,21.46c-.7,3.78,5.08,5.4,5.78,1.6Z"/><path class="cls-4" d="M161.86,109.37c-2.34,0-6.53-5-10.2-16a112.18,112.18,0,0,1-5.49-32.46,120.29,120.29,0,0,1,5.54-33.59c4.29-13.43,8.6-17,10.28-17a1.53,1.53,0,0,1,.3,0c8.15,1.63,13.22,20.79,13.22,50,0,26.69-5.58,47.28-13.27,48.95A1.69,1.69,0,0,1,161.86,109.37Z"/><path class="cls-5" d="M162.22,14C166.37,16,172,29.31,172,60.38c0,11.58-1.17,23-3.21,31.38-2.29,9.41-5.14,13.07-6.8,13.95-1.34-1.07-4.58-5.28-7.75-15.73a108.31,108.31,0,0,1-4.58-29.06,116.76,116.76,0,0,1,4.61-30c3.23-11.12,6.56-15.67,7.94-16.85M162,6.85c-10.56,0-19.32,33.74-19.32,54.07s8.72,52,19.19,52a5.4,5.4,0,0,0,1.12-.12c12.29-2.67,16-31.41,16-52.37S176.34,9.62,163,7a4.75,4.75,0,0,0-1-.1Z"/></g></g></g></svg>