<svg xmlns="http://www.w3.org/2000/svg"  width="60px" height="60px" viewBox="0 0 202.13 139.43"><title>item_meat_outline</title><circle cx="22.2" cy="57.47" r="14.7" fill="#eae8ea" stroke="#fff" stroke-miterlimit="10" stroke-width="15"/><circle cx="22.2" cy="78.3" r="14.7" fill="#eae8ea" stroke="#fff" stroke-miterlimit="10" stroke-width="15"/><rect x="25.88" y="50.12" width="52.68" height="35.53" fill="#eae8ea" stroke="#fff" stroke-miterlimit="10" stroke-width="15"/><path d="M38.49,66.88c0-84.53,34-54,75.88-54s80.15-30,80.15,54.49-38.24,57.15-80.15,57.15S38.49,151.4,38.49,66.88Z" fill="#9e6b49" stroke="#fff" stroke-miterlimit="10" stroke-width="15"/><path d="M38.49,70.08c0-84.52,34,31.47,75.88,31.47s80.15-115.52,80.15-31-38.24,57.15-80.15,57.15S38.49,154.61,38.49,70.08Z" fill="#965544" stroke="#fff" stroke-miterlimit="10" stroke-width="15"/><path d="M177.82,39.44c2.22,23.08,7,47-1.33,69.33-2.7,7.25,8.9,10.38,11.57,3.19,8.73-23.45,4.09-48.31,1.76-72.52-.73-7.62-12.74-7.69-12,0Z" fill="#9e6b49" stroke="#fff" stroke-miterlimit="10" stroke-width="15"/><path d="M186.67,39.91a80.89,80.89,0,0,1,.93,13.64c0,3.86,6,3.86,6,0a90.28,90.28,0,0,0-1.15-15.23c-.59-3.81-6.38-2.19-5.78,1.59Z" fill="#9e6b49" stroke="#fff" stroke-miterlimit="10" stroke-width="15"/><path d="M183.12,122.75a75.49,75.49,0,0,0,10.43-33.14c1.08-13.9,1.84-27.75-.16-41.6-.56-3.81-6.34-2.19-5.79,1.59,1.83,12.63,1,25.4.1,38.07a71.43,71.43,0,0,1-9.76,32.05c-1.94,3.34,3.24,6.37,5.18,3Z" fill="#9e6b49" stroke="#fff" stroke-miterlimit="10" stroke-width="15"/><path d="M193.68,53.43a37.4,37.4,0,0,1-.4-9.74c.05-.64-.95-.64-1,0a38.08,38.08,0,0,0,.44,10c.11.64,1.07.37,1-.26Z" fill="#9e6b49" stroke="#fff" stroke-miterlimit="10" stroke-width="15"/><path d="M184.35,121.2a59.78,59.78,0,0,0,8.22-25.14c.38-3.84-5.62-3.81-6,0a52.84,52.84,0,0,1-7.4,22.11c-2,3.33,3.2,6.35,5.18,3Z" fill="#9e6b49" stroke="#fff" stroke-miterlimit="10" stroke-width="15"/><path d="M182.06,122.93c13.94-14.35,11.74-36.78,10-55.07-.37-3.81-6.37-3.85-6,0,1.57,16.42,4.34,37.87-8.24,50.83-2.69,2.77,1.55,7,4.24,4.24Z" fill="#9e6b49" stroke="#fff" stroke-miterlimit="10" stroke-width="15"/><path d="M192.55,96.25c1.67-7.52,1.59-15.08,1.33-22.73-.14-3.85-6.14-3.87-6,0,.24,7.09.43,14.16-1.12,21.13-.83,3.76,5,5.37,5.79,1.6Z" fill="#9e6b49" stroke="#fff" stroke-miterlimit="10" stroke-width="15"/><path d="M192.93,95.92V74c0-3.86-6-3.87-6,0v22c0,3.86,6,3.87,6,0Z" fill="#9e6b49" stroke="#fff" stroke-miterlimit="10" stroke-width="15"/><path d="M192.46,97.59a103.08,103.08,0,0,0,1.68-23.06c-.16-3.85-6.16-3.87-6,0A95.87,95.87,0,0,1,186.68,96c-.7,3.78,5.08,5.4,5.78,1.6Z" fill="#9e6b49" stroke="#fff" stroke-miterlimit="10" stroke-width="15"/><path d="M169.36,116.87c-2.34,0-6.53-5-10.2-16a112.18,112.18,0,0,1-5.49-32.46,120.29,120.29,0,0,1,5.54-33.59c4.29-13.43,8.6-17,10.28-17a1.53,1.53,0,0,1,.3,0c8.15,1.63,13.22,20.79,13.22,50,0,26.69-5.58,47.28-13.27,49A1.69,1.69,0,0,1,169.36,116.87Z" fill="#e8b3e8" stroke="#fff" stroke-miterlimit="10" stroke-width="15"/><path d="M169.72,21.52c4.15,1.93,9.79,15.29,9.79,46.36,0,11.58-1.17,23-3.21,31.38-2.29,9.41-5.14,13.07-6.8,13.95-1.34-1.07-4.58-5.28-7.75-15.73a108.31,108.31,0,0,1-4.58-29.06,116.76,116.76,0,0,1,4.61-30.05c3.23-11.12,6.56-15.67,7.94-16.85m-.23-7.17c-10.56,0-19.32,33.74-19.32,54.07s8.72,52,19.19,52a5.4,5.4,0,0,0,1.12-.12c12.29-2.67,16-31.41,16-52.37s-2.67-50.76-16-53.43a4.75,4.75,0,0,0-1-.1Z" fill="#fff" stroke="#fff" stroke-miterlimit="10" stroke-width="15"/><circle cx="22.2" cy="57.47" r="14.7" fill="#eae8ea"/><circle cx="22.2" cy="78.3" r="14.7" fill="#eae8ea"/><rect x="25.88" y="50.12" width="52.68" height="35.53" fill="#eae8ea"/><path d="M38.49,66.88c0-84.53,34-54,75.88-54s80.15-30,80.15,54.49-38.24,57.15-80.15,57.15S38.49,151.4,38.49,66.88Z" fill="#9e6b49"/><path d="M38.49,70.08c0-84.52,34,31.47,75.88,31.47s80.15-115.52,80.15-31-38.24,57.15-80.15,57.15S38.49,154.61,38.49,70.08Z" fill="#965544"/><path d="M177.82,39.44c2.22,23.08,7,47-1.33,69.33-2.7,7.25,8.9,10.38,11.57,3.19,8.73-23.45,4.09-48.31,1.76-72.52-.73-7.62-12.74-7.69-12,0Z" fill="#9e6b49"/><path d="M186.67,39.91a80.89,80.89,0,0,1,.93,13.64c0,3.86,6,3.86,6,0a90.28,90.28,0,0,0-1.15-15.23c-.59-3.81-6.38-2.19-5.78,1.59Z" fill="#9e6b49"/><path d="M183.12,122.75a75.49,75.49,0,0,0,10.43-33.14c1.08-13.9,1.84-27.75-.16-41.6-.56-3.81-6.34-2.19-5.79,1.59,1.83,12.63,1,25.4.1,38.07a71.43,71.43,0,0,1-9.76,32.05c-1.94,3.34,3.24,6.37,5.18,3Z" fill="#9e6b49"/><path d="M193.68,53.43a37.4,37.4,0,0,1-.4-9.74c.05-.64-.95-.64-1,0a38.08,38.08,0,0,0,.44,10c.11.64,1.07.37,1-.26Z" fill="#9e6b49"/><path d="M184.35,121.2a59.78,59.78,0,0,0,8.22-25.14c.38-3.84-5.62-3.81-6,0a52.84,52.84,0,0,1-7.4,22.11c-2,3.33,3.2,6.35,5.18,3Z" fill="#9e6b49"/><path d="M182.06,122.93c13.94-14.35,11.74-36.78,10-55.07-.37-3.81-6.37-3.85-6,0,1.57,16.42,4.34,37.87-8.24,50.83-2.69,2.77,1.55,7,4.24,4.24Z" fill="#9e6b49"/><path d="M192.55,96.25c1.67-7.52,1.59-15.08,1.33-22.73-.14-3.85-6.14-3.87-6,0,.24,7.09.43,14.16-1.12,21.13-.83,3.76,5,5.37,5.79,1.6Z" fill="#9e6b49"/><path d="M192.93,95.92V74c0-3.86-6-3.87-6,0v22c0,3.86,6,3.87,6,0Z" fill="#9e6b49"/><path d="M192.46,97.59a103.08,103.08,0,0,0,1.68-23.06c-.16-3.85-6.16-3.87-6,0A95.87,95.87,0,0,1,186.68,96c-.7,3.78,5.08,5.4,5.78,1.6Z" fill="#9e6b49"/><path d="M169.36,116.87c-2.34,0-6.53-5-10.2-16a112.18,112.18,0,0,1-5.49-32.46,120.29,120.29,0,0,1,5.54-33.59c4.29-13.43,8.6-17,10.28-17a1.53,1.53,0,0,1,.3,0c8.15,1.63,13.22,20.79,13.22,50,0,26.69-5.58,47.28-13.27,49A1.69,1.69,0,0,1,169.36,116.87Z" fill="#e8b3e8"/><path d="M169.72,21.52c4.15,1.93,9.79,15.29,9.79,46.36,0,11.58-1.17,23-3.21,31.38-2.29,9.41-5.14,13.07-6.8,13.95-1.34-1.07-4.58-5.28-7.75-15.73a108.31,108.31,0,0,1-4.58-29.06,116.76,116.76,0,0,1,4.61-30.05c3.23-11.12,6.56-15.67,7.94-16.85m-.23-7.17c-10.56,0-19.32,33.74-19.32,54.07s8.72,52,19.19,52a5.4,5.4,0,0,0,1.12-.12c12.29-2.67,16-31.41,16-52.37s-2.67-50.76-16-53.43a4.75,4.75,0,0,0-1-.1Z" fill="#fff"/></svg>