<svg xmlns="http://www.w3.org/2000/svg" xmlns:xlink="http://www.w3.org/1999/xlink" width="30px" height="30px" viewBox="0 0 115 170.86"><defs><clipPath id="a"><path d="M23.53,155.8c-1.67-2.08-.9-4.32,2.74-6.39,8.49-4.84,29.41-6.86,46.73-4.53,14.77,2,22.15,6.51,18.74,10.79l14.59-18.33c4.87-6.13-5.68-12.58-26.77-15.42-24.75-3.34-54.64-.44-66.77,6.47-5.19,3-6.29,6.16-3.91,9.13Q16.2,146.66,23.53,155.8Z" fill="none"/></clipPath><clipPath id="b"><path d="M8.56,34.63a13.28,13.28,0,0,1,4-3.27c12.13-6.9,42-9.8,66.77-6.47,14.33,1.93,23.79,5.53,26.86,9.56L98.89,24.8l-1.47-1.93-.73-1L95.22,20l-1.47-1.93-.73-1-1.47-1.93c-2.15-2.82-8.77-5.34-18.8-6.69C55.43,6.13,34.51,8.16,26,13a9.4,9.4,0,0,0-2.83,2.29C18.8,21.09,13,28.83,8.56,34.63Z" fill="none"/></clipPath><clipPath id="c"><path d="M7.68,134.51c0-2.06,1.64-4.15,5.11-6.12,12.13-6.91,42-9.81,66.77-6.47,17.67,2.38,27.93,7.29,27.94,12.42l-.18-97c0-5.13-10.27-10-27.94-12.43-24.75-3.33-54.64-.43-66.77,6.47-3.47,2-5.11,4.07-5.11,6.12C7.55,66.59,7.63,105.4,7.68,134.51Z" fill="none"/></clipPath></defs><title>item_soda_outline</title><path d="M107.5,134.32v-6.46s0,0,0-.08l0-17.6-.14-72.86v-.13s0,0,0-.06h0v0a4.55,4.55,0,0,0-.13-.81v0l0-.06v-.08a5.42,5.42,0,0,0-.29-.72h0a7.57,7.57,0,0,0-.46-.75l0-.07,0,0,0,0s0,0,0-.06l-7.56-9.94c-.22-.27-.44-.57-.67-.86l-.84-1.12c-.14-.18-.28-.35-.4-.52l-.08-.1h0l-.18-.23-.23-.32-.09-.12-.85-1.11a1.34,1.34,0,0,1-.11-.14l-.11-.15-.9-1.18L94,18.37l-.24-.32,0-.05-.29-.4,0-.06-1.59-2.08-.23-.3a.69.69,0,0,0-.11-.13l-.18-.22a.86.86,0,0,1-.13-.14L91,14.55l-.19-.18-.21-.19-.13-.11-.17-.14L90,13.7l-.15-.11-.13-.09-.14-.1-.18-.11-.24-.15L88.92,13l-.32-.18-.24-.13L88,12.51l-.3-.15-.23-.11L87,12l0,0-.47-.2-.5-.21-.25-.1-.13,0-.19-.07-.53-.19-.5-.17-.6-.21-.14,0h0c-.53-.17-1.1-.33-1.68-.49l-.44-.12-.2-.05-.93-.23L80,9.77l-.45-.1-.25-.06L79,9.55l-.42-.09-1.08-.22-.23,0-.24,0-.29-.05L75.92,9l-.16,0-.35-.06-.63-.1c-.66-.11-1.33-.21-2-.3l-2-.25-.23,0-.27,0-2.55-.25h-.23c-.83-.07-1.67-.13-2.51-.18l-.33,0c-.85,0-1.71-.09-2.57-.12l-.49,0L59,7.51h-.34c-1.23,0-2.45,0-3.67,0h-.32c-1,0-2.06.07-3.08.12l-.73,0h0l-.22,0-1.57.09-.52,0-1.3.11-.55,0-1.28.12-.49.05-1.41.16-.3,0c-1.19.15-2.34.31-3.46.5h-.07c-.52.08-1,.17-1.54.27l-.25,0-1.34.26-.26.05-1.36.31-.13,0c-1.52.36-2.94.76-4.24,1.19h0l-1.2.43-.1,0c-.38.14-.74.29-1.09.44l-.07,0A22,22,0,0,0,26,13c-.33.19-.62.37-.9.56l0,0c-.25.17-.48.34-.7.52l-.11.08c-.19.16-.36.32-.52.48l-.09.08a5.84,5.84,0,0,0-.53.62l-.07.09.12-.16-10,13.28L10.56,32l-2,2.64,0,0,0,0c-.11.14-.19.27-.28.4l0,0-.2.36c0,.06-.08.13-.11.2l0,.1,0,.07c0,.13-.1.26-.14.39s-.06.15-.08.22a.45.45,0,0,0,0,.16c0,.13,0,.26-.07.39s0,.09,0,.13,0,.15,0,.22v.06s0,.07,0,.1h0l0,18.32a.36.36,0,0,0,0-.1s0,0,0-.05v-.1l.13,53,0,26v0a.17.17,0,0,0,0,.07,2.11,2.11,0,0,0,0,.25,1.23,1.23,0,0,0,0,.19c0,.14,0,.28.08.41s0,0,0,.07h0l0,.08s0,0,0,0,0,.1,0,.15v0a5,5,0,0,0,.25.59h0a.05.05,0,0,1,0,0l.07.12.11.19.25.38s0,0,0,0l.05.06,0,0,.05.06.13.18h0l.82,1,13.82,17.24h0c.14.18.3.35.47.53l.19.17c.13.11.25.23.39.34l0,0a1.88,1.88,0,0,0,.24.18c.14.11.27.21.42.31l.33.21.46.29.28.15c.22.13.45.25.69.37l.39.19.27.12.43.2.44.19.77.31.47.18.46.16.48.16L31,160l.15.06.26.08.19,0,.4.12a2.77,2.77,0,0,0,.41.12l.52.15.8.22.58.14.83.2.62.14.88.19.64.13.95.18.63.12h0l1.07.17.55.09,1.73.25,2.28.28.19,0,.45.05,1.47.14,1,.08.46,0,2.36.16h.2c.85.05,1.69.08,2.53.11l.4,0c1.44,0,2.88.06,4.3.06h.3c.51,0,1,0,1.55,0l1.26,0h.9l.61,0,.27,0,1.61-.08.63,0,1.27-.08.65,0,1.3-.11.55,0,1.64-.16.15,0,.2,0,1.56-.19.55-.07,1.19-.17.59-.09,1.13-.19h0l.48-.08c.55-.1,1.08-.19,1.61-.3l.12,0,.2,0,1.22-.27.48-.11.48-.11.53-.13.51-.13,1-.27.43-.12.67-.2.66-.21h0l1.2-.42.36-.14.8-.32.39-.16.38-.17.36-.17.29-.13,0,0,1-.51a11.26,11.26,0,0,0,1.57-1.05l.2-.16a6.47,6.47,0,0,0,1-1h0l.33-.41q7.13-9,14.26-17.92l.22-.3.06-.1.17-.25.06-.12c0-.08.09-.16.14-.23s0-.06,0-.09v0a2.44,2.44,0,0,0,.1-.24,1.34,1.34,0,0,0,.07-.18,2.77,2.77,0,0,0,.1-.26.14.14,0,0,0,0-.06.5.5,0,0,0,0-.13c0-.06,0-.11,0-.17a.29.29,0,0,0,0-.09,2,2,0,0,0,0-.24s0-.07,0-.11v-.11a2.09,2.09,0,0,0,0-.25v-.06Z" fill="#94ffa8" stroke="#fff" stroke-miterlimit="10" stroke-width="15"/><g style="isolation:isolate"><g clip-path="url(#a)"><g style="isolation:isolate"><path d="M23.53,155.8,8.88,137.52c-1.8-2.24-1.61-4.62.82-6.92L24.1,151c-1.7,1.61-1.83,3.27-.57,4.84" fill="#55585e"/><path d="M24.1,151,9.7,130.6A14.58,14.58,0,0,1,11.84,129l13.77,20.85A9.75,9.75,0,0,0,24.1,151" fill="#585b62"/><path d="M25.61,149.81,11.84,129l.95-.57c.39-.23.8-.44,1.23-.66L27.12,149c-.29.15-.58.3-.85.46a6.78,6.78,0,0,0-.66.4" fill="#5b5f65"/><path d="M27.12,149,14,127.73c.66-.33,1.37-.66,2.12-1l12.47,21.51c-.52.22-1,.45-1.49.68" fill="#5f6269"/><path d="M28.61,148.27,16.14,126.76c.67-.28,1.36-.55,2.09-.81L30.08,147.7l-1.47.57" fill="#62656d"/><path d="M30.08,147.7,18.23,126c.67-.24,1.37-.48,2.09-.7l11.22,22c-.51.16-1,.33-1.46.49" fill="#656970"/><path d="M31.54,147.21l-11.22-22c.68-.22,1.38-.42,2.1-.62L33,146.78l-1.47.43" fill="#686c74"/><path d="M33,146.78,22.42,124.63c.69-.19,1.39-.38,2.11-.56l9.95,22.32c-.5.13-1,.25-1.47.39" fill="#6c7077"/><path d="M34.48,146.39l-9.95-22.32,2.11-.49L36,146l-1.48.35" fill="#6f737b"/><path d="M36,146l-9.32-22.46c.71-.16,1.42-.31,2.15-.45l8.68,22.6L36,146" fill="#72767f"/><path d="M37.47,145.73l-8.68-22.6,2.19-.41,8,22.72-1.53.29" fill="#757a82"/><path d="M39,145.44l-8-22.72c.71-.13,1.44-.25,2.17-.36l7.37,22.83-1.52.25" fill="#797d86"/><path d="M40.52,145.19l-7.37-22.83c.72-.12,1.45-.22,2.18-.33L42.05,145l-1.53.23" fill="#7c808a"/><path d="M42.05,145,35.33,122l2.17-.28,6.06,23-1.51.2" fill="#7f848d"/><path d="M43.56,144.76l-6.06-23c.67-.09,1.35-.17,2-.24L45,144.6l-1.42.16" fill="#828791"/><path d="M45,144.6l-5.45-23.09,2-.21,4.85,23.15L45,144.6" fill="#868b94"/><path d="M46.39,144.45,41.54,121.3l1.73-.16,4.33,23.2-1.21.11" fill="#898e98"/><path d="M47.6,144.34l-4.33-23.2L45,121l3.8,23.23-1.23.1" fill="#8c919c"/><path d="M48.83,144.24,45,121l1.42-.1,3.38,23.26-1,.07" fill="#8f959f"/><path d="M49.83,144.17l-3.38-23.26,1.41-.09,3,23.29-1,.06" fill="#9398a3"/><path d="M50.82,144.11l-3-23.29,1.34-.07,2.55,23.31-.93.05" fill="#969ba7"/><path d="M51.75,144.06,49.2,120.75l1.13,0L52.55,144l-.8,0" fill="#999faa"/><path d="M52.55,144,50.33,120.7l1.14,0L53.34,144l-.79,0" fill="#9ca2ae"/><path d="M53.34,144l-1.87-23.34,1.14,0L54.14,144l-.8,0" fill="#a0a6b1"/><path d="M54.14,144l-1.53-23.36,1,0L54.82,144l-.68,0" fill="#a3a9b5"/><path d="M54.82,144l-1.24-23.36,1,0,1,23.36-.67,0" fill="#aeb3be"/><path d="M55.49,143.93l-1-23.36,1,0,.66,23.37h-.68" fill="#b3b8c2"/><path d="M56.17,143.92l-.66-23.37h1l.37,23.38h-.67" fill="#b6bbc4"/><path d="M56.84,143.92l-.37-23.38h.93l.09,23.38h-.65" fill="#b9bec7"/><path d="M57.49,143.91l-.09-23.38h.92l-.19,23.38h-.64" fill="#bcc0c9"/><path d="M58.13,143.91l.19-23.38h.92l-.46,23.38h-.65" fill="#bec2cb"/><path d="M58.78,143.92l.46-23.38h.92l-.73,23.37h-.65" fill="#c0c4cc"/><path d="M59.43,143.92l.73-23.37h1l-1,23.37h-.71" fill="#c2c6ce"/><path d="M60.14,143.93l1-23.37,1.06,0L60.88,144l-.74,0" fill="#c4c8d0"/><path d="M60.88,144l1.36-23.37,1,0L61.62,144l-.74,0" fill="#c6cad1"/><path d="M61.62,144l1.67-23.36,1.1,0-2,23.34-.76,0" fill="#c8cbd2"/><path d="M62.38,144l2-23.34,1.73.07L63.6,144l-1.22,0" fill="#c9cdd4"/><path d="M63.6,144l2.52-23.32,1.74.09-3,23.3L63.6,144" fill="#cbced5"/><path d="M64.81,144.11l3-23.3c1.69.1,3.38.22,5,.37l-4.56,23.18c-1.17-.1-2.35-.18-3.54-.25" fill="#ccd0d6"/><path d="M68.35,144.36l4.56-23.18c.73.06,1.47.13,2.2.21l-5.22,23.12-1.54-.15" fill="#cbced5"/><path d="M69.89,144.51l5.22-23.12,1.58.17L71,144.63l-1.11-.12" fill="#c9cdd4"/><path d="M71,144.63l5.69-23.07,1.3.15-6.09,23-.9-.11" fill="#c8cbd2"/><path d="M71.9,144.74l6.09-23,1.28.17-6.47,23-.9-.11" fill="#c6cad1"/><path d="M72.8,144.85l6.47-23,.29,0,.89.12L73.62,145l-.62-.09-.2,0" fill="#c4c8d0"/><path d="M73.62,145,80.45,122l1.12.16-7.16,22.88-.79-.11" fill="#c2c6ce"/><path d="M74.41,145.08l7.16-22.88,1.11.18L75.19,145.2l-.78-.12" fill="#c0c4cc"/><path d="M75.19,145.2l7.49-22.82,1.18.19L76,145.34l-.82-.14" fill="#bec2cb"/><path d="M76,145.34l7.85-22.77,1.24.22-8.22,22.7-.87-.15" fill="#bcc0c9"/><path d="M76.88,145.49l8.22-22.7,1.2.22-8.58,22.64-.84-.16" fill="#b9bec7"/><path d="M77.72,145.65,86.3,123l1.48.3-9,22.55-1-.21" fill="#b6bbc4"/><path d="M78.76,145.86l9-22.55,1.5.33-9.47,22.45-1-.23" fill="#b3b8c2"/><path d="M79.81,146.09l9.47-22.45c.63.14,1.24.29,1.84.44l-10,22.31-1.29-.3" fill="#aeb3be"/><path d="M81.1,146.39l10-22.31c.68.17,1.35.34,2,.52L82.49,146.76l-1.39-.37" fill="#a3a9b5"/><path d="M82.49,146.76,93.11,124.6c.77.22,1.5.44,2.21.67L84,147.23c-.5-.16-1-.32-1.55-.47" fill="#a0a6b1"/><path d="M84,147.23l11.28-22c.77.24,1.5.49,2.2.75L85.58,147.75c-.49-.18-1-.35-1.54-.52" fill="#9ca2ae"/><path d="M85.58,147.75,97.52,126c.68.25,1.33.51,1.94.77l-12.53,21.5-1.35-.54" fill="#999faa"/><path d="M86.93,148.29l12.53-21.5c.58.25,1.13.51,1.65.76l-13,21.28c-.37-.18-.75-.36-1.16-.54" fill="#969ba7"/><path d="M88.09,148.83l13-21.28c.49.25,1,.49,1.4.75l-13.44,21c-.31-.18-.64-.35-1-.52" fill="#9398a3"/><path d="M89.07,149.35l13.44-21c.42.24.81.48,1.18.73l-13.8,20.83c-.25-.17-.53-.34-.82-.51" fill="#8f959f"/><path d="M89.89,149.86,103.69,129q.53.36,1,.72l-14.1,20.61a7.67,7.67,0,0,0-.69-.5" fill="#8c919c"/><path d="M90.58,150.36l14.1-20.61c.29.23.56.47.81.7L91.16,150.86c-.18-.17-.37-.33-.58-.5" fill="#898e98"/><path d="M91.16,150.86l14.33-20.41c.25.24.47.47.68.71L91.63,151.35c-.14-.16-.3-.33-.47-.49" fill="#868b94"/><path d="M91.63,151.35l14.54-20.19c.19.24.37.47.53.71l-14.7,20a5.35,5.35,0,0,0-.37-.5" fill="#828791"/><path d="M92,151.85l14.7-20a5.49,5.49,0,0,1,.39.71L92.27,152.34a4,4,0,0,0-.27-.49" fill="#7f848d"/><path d="M92.27,152.34l14.82-19.76a3.79,3.79,0,0,1,.26.71L92.46,152.84a3.41,3.41,0,0,0-.19-.5" fill="#7c808a"/><path d="M92.46,152.84l14.89-19.55a3.64,3.64,0,0,1,.13.72L92.55,153.34a2.92,2.92,0,0,0-.09-.5" fill="#797d86"/><path d="M92.55,153.34,107.48,134a3,3,0,0,1,0,.73L92.55,153.86a3,3,0,0,0,0-.52" fill="#757a82"/><path d="M92.55,153.86l14.93-19.12a3.14,3.14,0,0,1-.15.74l-14.89,18.9a3.46,3.46,0,0,0,.11-.52" fill="#72767f"/><path d="M92.44,154.38l14.89-18.9a4.08,4.08,0,0,1-.3.77l-14.8,18.66a2.92,2.92,0,0,0,.21-.53" fill="#6f737b"/><path d="M92.23,154.91,107,136.25a5.56,5.56,0,0,1-.48.79L91.9,155.47a4.09,4.09,0,0,0,.33-.56" fill="#6c7077"/><path d="M91.9,155.47,106.55,137l-.22.3L91.74,155.67l.16-.2" fill="#686c74"/></g></g></g><path d="M83.33,148.06l.3-.08.25-.08Z" fill="#737780"/><path d="M80.39,161l.53-.13.51-.13,1-.27.43-.12.67-.2.66-.21h0l1.2-.42.36-.14.8-.32.39-.16.38-.17.36-.17.29-.13,0,0,1-.51a11.26,11.26,0,0,0,1.57-1.05l.2-.16a6.47,6.47,0,0,0,1-1c1.62-2,.81-4.11-2.06-5.95-2.64,3.32-5.27,6.64-7.92,9.95A8.22,8.22,0,0,1,80.39,161Z" fill="#737780"/><path d="M23.44,155.68l.09.12c.14.18.3.35.47.53l.19.17c.13.11.25.23.39.34l0,0a1.88,1.88,0,0,0,.24.18c.14.11.27.21.42.31l.33.21.46.29.28.15c.22.13.45.25.69.37l.39.19.27.12.43.2.44.19.77.31.47.18.46.16.48.16L31,160l.15.06.26.08.19,0,.4.12a2.77,2.77,0,0,0,.41.12l.52.15.8.22.58.14.83.2.62.14.88.19.64.13.95.18.63.12h0l1.07.17.55.09,1.73.25,2.28.28.19,0,.45.05,1.47.14,1,.08.46,0,2.36.16h.2c.85.05,1.69.08,2.53.11l.4,0c1.44,0,2.88.06,4.3.06h.3c.51,0,1,0,1.55,0l1.26,0h.28c.29-.14,9.08-9.53,11.79-13h0l2.36-3h0l.61-.06.26,0,.13,0,2.12-.26c.22,0,.43-.06.65-.09l.15,0q.85-.1,1.68-.24l.65-.1c-.79-.21-1.61-.41-2.48-.59s-1.52-.32-2.32-.46l-.45-.08c-.88-.15-1.8-.3-2.75-.44l-.67-.09-2.1-.26c-.92-.11-1.85-.2-2.79-.28s-1.86-.15-2.8-.2-1.88-.11-2.83-.14-1.87-.06-2.81-.08H56.82c-1,0-2,0-3,.06s-2.11.08-3.15.14c-1.33.07-2.64.17-3.91.29a82.3,82.3,0,0,0-13.27,2.22,31.42,31.42,0,0,0-7.26,2.78C22.7,151.44,21.89,153.64,23.44,155.68Z" fill="#737780"/><g style="isolation:isolate"><g clip-path="url(#b)"><g style="isolation:isolate"><path d="M8.56,34.63,23.18,15.28A9.4,9.4,0,0,1,26,13c5-2.86,14.42-4.74,24.84-5.31L48.09,23.77c-14.88.82-28.3,3.5-35.48,7.59a13.28,13.28,0,0,0-4,3.27" fill="#55585e"/><path d="M48.09,23.77,50.85,7.68c2.62-.14,5.3-.2,8-.18l.67,16c-3.86,0-7.69.05-11.43.25" fill="#585b62"/><path d="M59.52,23.52l-.67-16c3.91,0,7.85.27,11.65.69L76.16,24.5a163,163,0,0,0-16.64-1" fill="#5b5f65"/><path d="M76.16,24.5,70.5,8.19c.75.08,1.51.18,2.25.28,1.5.2,2.93.43,4.27.68l8.46,16.72c-1.92-.36-4-.69-6.1-1-1.06-.14-2.14-.27-3.22-.39" fill="#5f6269"/><path d="M85.48,25.87,77,9.15a50.7,50.7,0,0,1,8.62,2.31L97.79,29.17a71.93,71.93,0,0,0-12.31-3.3" fill="#5b5f65"/><path d="M97.79,29.17,85.64,11.46a20.66,20.66,0,0,1,3.94,1.94l13.84,18.54a29.23,29.23,0,0,0-5.63-2.77" fill="#585b62"/><path d="M103.42,31.94,89.58,13.4a8,8,0,0,1,2,1.76l14.69,19.29a11.61,11.61,0,0,0-2.82-2.51" fill="#55585e"/></g></g></g><g style="isolation:isolate"><g clip-path="url(#c)"><g style="isolation:isolate"><path d="M7.68,134.51l-.18-97c0-2,1.64-4.14,5.11-6.12a39.43,39.43,0,0,1,7.73-3.2l.18,97a39.43,39.43,0,0,0-7.73,3.2c-3.47,2-5.11,4.06-5.11,6.12" fill="#55585e"/><path d="M20.52,125.19l-.18-97c1.18-.36,2.42-.71,3.72-1l.17,97c-1.29.32-2.53.67-3.71,1" fill="#585b62"/><path d="M24.23,124.15l-.17-97c1-.26,2.09-.5,3.19-.74l.18,97c-1.1.23-2.16.48-3.2.74" fill="#5b5f65"/><path d="M27.43,123.41l-.18-97c1-.2,1.94-.39,2.95-.58l.18,97c-1,.18-2,.37-2.95.58" fill="#5f6269"/><path d="M30.38,122.83l-.18-97c.93-.17,1.87-.33,2.83-.48l.18,97c-1,.15-1.91.31-2.83.48" fill="#62656d"/><path d="M33.21,122.35l-.18-97c.91-.14,1.84-.28,2.78-.4l.18,97c-.94.13-1.87.26-2.78.41" fill="#656970"/><path d="M36,121.94l-.18-97c.91-.13,1.83-.24,2.76-.35l.18,97c-.93.1-1.85.22-2.76.34" fill="#686c74"/><path d="M38.75,121.6l-.18-97,2.76-.29.18,97q-1.4.14-2.76.3" fill="#6c7077"/><path d="M41.51,121.3l-.18-97q1.37-.13,2.76-.24l.18,97-2.76.24" fill="#6f737b"/><path d="M44.27,121.06l-.18-97,2.79-.2.18,97c-.94,0-1.87.12-2.79.19" fill="#72767f"/><path d="M47.06,120.87l-.18-97c.93-.06,1.86-.11,2.8-.15l.18,97c-.94,0-1.87.09-2.8.15" fill="#757a82"/><path d="M49.86,120.72l-.18-97c.94,0,1.88-.08,2.82-.1l.18,97c-.94,0-1.88.06-2.82.11" fill="#797d86"/><path d="M52.68,120.61l-.18-97q1.41,0,2.82-.06l.18,97q-1.41,0-2.82.06" fill="#7c808a"/><path d="M55.5,120.55l-.18-97c1,0,1.9,0,2.85,0l.18,97-2.85,0" fill="#7f848d"/><path d="M58.35,120.53l-.18-97c1,0,2,0,3,0l.18,97-3,0" fill="#828791"/><path d="M61.31,120.56l-.18-97q1.57,0,3.15.09l.18,97q-1.57-.06-3.15-.09" fill="#868b94"/><path d="M64.46,120.65l-.18-97c1.31.05,2.62.11,3.92.19l.18,97c-1.3-.08-2.61-.14-3.92-.19" fill="#898e98"/><path d="M68.38,120.84l-.18-97c3.79.23,7.54.58,11.18,1.07q4.07.55,7.59,1.27l.18,97c-2.35-.47-4.88-.9-7.59-1.26-3.64-.49-7.39-.85-11.18-1.08" fill="#8c919c"/><path d="M87.15,123.18l-.18-97c1.73.35,3.37.73,4.9,1.13l.18,97c-1.53-.4-3.17-.78-4.9-1.13" fill="#898e98"/><path d="M92.05,124.31l-.18-97c1.16.31,2.27.63,3.31,1l.18,97c-1-.34-2.15-.66-3.31-1" fill="#868b94"/><path d="M95.36,125.28l-.18-97c.86.28,1.69.57,2.47.86l.18,97c-.78-.3-1.61-.58-2.47-.86" fill="#828791"/><path d="M97.83,126.14l-.18-97c.69.27,1.36.54,2,.81l.18,97c-.62-.28-1.29-.55-2-.81" fill="#7f848d"/><path d="M99.81,127l-.18-97c.58.26,1.13.52,1.64.78l.18,97c-.51-.27-1.06-.53-1.64-.78" fill="#7c808a"/><path d="M101.45,127.73l-.18-97c.49.25,1,.51,1.39.77l.18,97c-.43-.26-.9-.51-1.39-.76" fill="#797d86"/><path d="M102.84,128.49l-.18-97c.42.25.82.51,1.18.76l.18,97c-.36-.26-.76-.52-1.18-.77" fill="#757a82"/><path d="M104,129.26l-.18-97c.36.26.69.51,1,.77l.18,97c-.31-.26-.64-.52-1-.77" fill="#72767f"/><path d="M105,130l-.18-97c.3.26.58.52.83.78l.18,97A8.87,8.87,0,0,0,105,130" fill="#6f737b"/><path d="M105.85,130.81l-.18-97a7.75,7.75,0,0,1,.66.8l.18,97a7.67,7.67,0,0,0-.66-.79" fill="#6c7077"/><path d="M106.51,131.6l-.18-97a5.62,5.62,0,0,1,.51.83l.18,97a6.19,6.19,0,0,0-.51-.83" fill="#686c74"/><path d="M107,132.43l-.18-97a4.8,4.8,0,0,1,.34.86l.18,97a5.12,5.12,0,0,0-.34-.86" fill="#656970"/><path d="M107.36,133.29l-.18-97a4.1,4.1,0,0,1,.14.92l.18,97a4.18,4.18,0,0,0-.14-.92" fill="#62656d"/><path d="M107.5,134.21l-.18-97v.13l.18,97v-.13" fill="#5f6269"/></g></g></g><path d="M83.33,148.06l.3-.08.25-.08Z" fill="#9eabb7"/><path d="M87.29,146.78l.31-.12-.53.19Z" fill="#9eabb7"/><path d="M80.39,161l.53-.13.51-.13,1-.27.43-.12.67-.2.66-.21h0l1.2-.42.36-.14.8-.32.39-.16.38-.17.36-.17.29-.13,0,0,1-.51a11.26,11.26,0,0,0,1.57-1.05l.2-.16a6.47,6.47,0,0,0,1-1l14.37-18.07-.13.13c-.12.13-.24.27-.38.4a15.07,15.07,0,0,1-3.21,2.33c-.47.27-1,.53-1.49.78l-.34.16-1,.48-.35.15-.21.09-1.1.44-.92.34-.37.13-1.6.54-.29.09-.23.07c-1.59,2-3.18,4-4.76,6-2.64,3.32-5.27,6.64-7.92,9.95A8.22,8.22,0,0,1,80.39,161Z" fill="#9eabb7"/><path d="M8.88,137.52l14.56,18.16.09.12c.14.18.3.35.47.53l.19.17c.13.11.25.23.39.34l0,0a1.88,1.88,0,0,0,.24.18c.14.11.27.21.42.31l.33.21.46.29.28.15c.22.13.45.25.69.37l.39.19.27.12.43.2.44.19.77.31.47.18.46.16.48.16L31,160l.15.06.26.08.19,0,.4.12a2.77,2.77,0,0,0,.41.12l.52.15.8.22.58.14.83.2.62.14.88.19.64.13.95.18.63.12h0l1.07.17.55.09,1.73.25,2.28.28.19,0,.45.05,1.47.14,1,.08.46,0,2.36.16h.2c.85.05,1.69.08,2.53.11l.4,0c1.44,0,2.88.06,4.3.06h.3c.51,0,1,0,1.55,0l1.26,0h.28c.29-.14,9.08-9.53,11.79-13h0l2.36-3c-.56.07-1.12.13-1.69.18h0l-.24,0-.74.07-1.71.15h-.07l-.62.05-1.74.12-.43,0-.55,0-.38,0-1.28.06-.59,0-.39,0h-.44l-1.34,0h-.86c-.78,0-1.56,0-2.35,0h-.28c-.89,0-1.78,0-2.65,0h-.79l-1.95,0h-.94l-1.43,0h-.32l-.4,0-.46,0h-.27c-1.14,0-2.27-.1-3.39-.16l-.51,0-1.88-.13c-1.09-.08-2.16-.17-3.24-.27l-.47-.05-1.16-.11-.66-.07-.87-.1c-.88-.1-1.77-.21-2.65-.33-.58-.07-1.14-.15-1.7-.24l-.14,0-.25,0-.31,0L32,146.39l-.64-.11-1.14-.2-.59-.11-1.28-.24-.31-.07h0l-.37-.08-1.27-.27-.64-.15-.33-.07-1.92-.48-.32-.08h0l-.22-.05-1.29-.35-.25-.07L20,143.61l-.13,0-.32-.1-.33-.12-.67-.23-.2-.07-.69-.25-.25-.09h0l-.19-.07-.82-.32-.86-.36-.06,0-.07,0-.44-.2-.49-.23-.58-.28-.12-.07c-.2-.1-.4-.2-.59-.31l-.72-.4-.08-.05-.11-.06-.39-.25c-.16-.1-.32-.2-.47-.31l-.21-.15-.38-.28c-.13-.1-.27-.19-.39-.29s-.38-.33-.56-.49l-.27-.25A9.22,9.22,0,0,1,8.88,137.52Z" fill="#9eabb7"/><path d="M96.38,46l-.39.14.56-.19Z" fill="#bec4cc"/><path d="M87.2,48.49l-2,.4.88-.17Z" fill="#bec4cc"/><path d="M84.77,23.2l-.1,0,.19.24.39.5a1.34,1.34,0,0,0,.11.14l1.24,1.65a1.34,1.34,0,0,1,.11.14l.73,1a2,2,0,0,1,.17.23l.35.45c.25.33.5.66.74,1l7.56,9.94a5.85,5.85,0,0,1,.49.77l.1.17a6.2,6.2,0,0,1,.31.77.3.3,0,0,1,0,.1,3.32,3.32,0,0,1,.13.7.88.88,0,0,1,0,.17,3.63,3.63,0,0,1,0,.57c0-.13,0-.25,0-.38v4.33c.36-.13.72-.26,1.06-.4s.84-.35,1.25-.53l.31-.15c.27-.12.53-.24.78-.37.51-.25,1-.5,1.46-.76l.71-.42c.37-.24.73-.47,1.06-.71l.12-.09c.29-.21.54-.43.79-.64l.22-.19a9.32,9.32,0,0,0,.77-.77l.07-.08a6.75,6.75,0,0,0,.54-.72l.12-.17a6.2,6.2,0,0,0,.39-.77l0-.15a3.55,3.55,0,0,0,.19-.69.58.58,0,0,0,0-.14,4,4,0,0,0,0-.77.88.88,0,0,0,0-.17,3.32,3.32,0,0,0-.13-.7.3.3,0,0,0,0-.1,6.2,6.2,0,0,0-.31-.77l-.1-.17a5.85,5.85,0,0,0-.49-.77l-7.56-9.94c-.24-.3-.49-.63-.74-1l-.35-.45a2,2,0,0,0-.17-.23l-.73-1a1.34,1.34,0,0,0-.11-.14l-1.25-1.65a1.34,1.34,0,0,1-.11-.14c-.12-.16-.24-.33-.38-.5l-.45-.59q-.24-.33-.48-.63l-.49-.66,0-.06-1.82-2.38a4.32,4.32,0,0,1,.34.53.54.54,0,0,1,.07.13,2.7,2.7,0,0,1,.22.53s0,0,0,.07a4.21,4.21,0,0,1,.09.49s0,.08,0,.12a2.45,2.45,0,0,1,0,.54.36.36,0,0,1,0,.1,3.24,3.24,0,0,1-.13.49.36.36,0,0,1,0,.09,3.4,3.4,0,0,1-.27.54.83.83,0,0,0-.08.12,5.61,5.61,0,0,1-.38.51l0,.06a6.87,6.87,0,0,1-.54.54l-.06.06-.09.07c-.18.15-.35.3-.56.45l-.08.06c-.23.16-.48.33-.74.49l-.08.05-.42.25c-.32.18-.66.36-1,.53L87.6,22l-.17.08c-.4.18-.81.37-1.24.54l-.09,0h0C85.65,22.88,85.22,23,84.77,23.2Z" fill="#bec4cc"/><path d="M7.51,37.32c0,.16,0,.32,0,.48s0,.12,0,.19a3.67,3.67,0,0,0,.14.64.14.14,0,0,0,0,.07,4.12,4.12,0,0,0,.23.58,2.12,2.12,0,0,0,.11.21c.08.14.16.29.26.44a2.17,2.17,0,0,0,.15.22,4.67,4.67,0,0,0,.35.46l.15.18c.19.21.39.42.61.63a1.31,1.31,0,0,0,.12.11c.19.17.4.35.62.52l.25.2.67.48.25.17c.33.21.68.43,1,.64l.21.11,1,.56.32.15c.45.23.92.44,1.42.66l.23.09c.5.21,1,.42,1.56.62l.28.11,1.85.64.43.13c.6.19,1.22.38,1.86.56h0c.56.16,1.14.31,1.72.46l.62.16,1,.25.9.21.53.12,1.21.25.36.07,1.53.3.33,0,1.61.28.09,0,1.74.27.08,0,1.91.27,2.27.28.1,0,1.92.21.69.07,1.64.15.58,0,.91.07,1.63.13.88,0,1.83.11,1.69.08h.23c.78,0,1.57.06,2.36.08h0l2.31,0h5l2.32,0h0l2.27-.08h.23l2.06-.1.36,0c.69,0,1.37-.08,2-.12l.32,0,1.75-.13.51,0c.68-.05,1.36-.11,2-.18l.62-.06,1.49-.15.82-.1,1.24-.15,1.06-.14,1.09-.14.63-.09.46-.07.43-.07-.89.13s0-1,0-1.36v-.14s0,0,0-.06a7.76,7.76,0,0,0-.13-.82v0l0-.06a7,7,0,0,1-.31-.8h0a3.21,3.21,0,0,0-.47-.75l0-.07,0,0-.09-.12C77.17,41.65,74.39,33,72,29.8l-.22-.29-.73-1c-.12-.16-.23-.31-.35-.45l-1-1.33-.34-.44-.28,0-.42.05h-.09l-1.17.1h-.16l-.37,0-.65.05-.55,0-.24,0h-.16l-.94.06-.33,0h-.26l-.32,0-.74,0-.38,0h-.37l-.73,0-.63,0h-.67l-.62,0H55l-.66,0h-.67l-.67,0-.89,0h-.22l-.88,0h-.29l-1.3-.08-.45,0h-.16l-1.16-.09-.51,0H47l-.43,0-.84-.08-.29,0L45,26.33l-.51,0-.8-.09h-.11l-.68-.09-.78-.1H42l-.61-.09-.71-.1h-.07l-.62-.1-.59-.09-.09,0h0l-.79-.14-.3-.05-.22,0-.24-.05-.8-.15h0l-.26-.05L36,24.94l-.15,0-.38-.08L35,24.73l-.19-.05-.75-.18-.31-.08-.12,0-1.2-.32h0l-1.31-.39-.17-.05-.13-.05c-.45-.14-.89-.29-1.3-.45l-.07,0-.12-.05c-.38-.14-.74-.28-1.09-.43l-.11-.05-.05,0-1-.45-.1-.05L26.83,22c-.26-.12-.51-.25-.74-.38L26,21.54l0,0c-.26-.15-.51-.3-.74-.45l-.06,0L25,21c-.16-.11-.32-.22-.47-.34l-.11-.07-.07-.06L24,20.11l-.07-.06,0,0-.42-.44,0,0-.07-.09-.25-.33a.18.18,0,0,1-.05-.07L23,19a2.48,2.48,0,0,1-.18-.31l-.06-.1s0,0,0,0a3.47,3.47,0,0,1-.16-.41.08.08,0,0,0,0,0,4.14,4.14,0,0,1-.09-.46s0,0,0,0a.27.27,0,0,1,0-.09,1.9,1.9,0,0,1,0-.34s0-.05,0-.07,0-.06,0-.08a1.86,1.86,0,0,1,.06-.34.34.34,0,0,1,0-.1s0,0,0,0a3.12,3.12,0,0,1,.18-.48v0l0-.06a2.91,2.91,0,0,1,.23-.42.16.16,0,0,0,0-.07l.15-.21L8.57,34.63c-.11.14-.19.27-.28.4a5.24,5.24,0,0,0-.34.61l0,.1a4,4,0,0,0-.25.68,1.29,1.29,0,0,0,0,.19,2.78,2.78,0,0,0-.08.49C7.52,37.17,7.52,37.25,7.51,37.32Z" fill="#bec4cc"/><path d="M81.83,22.79c0,.05-.07.11-.11.15l0,0A.83.83,0,0,1,81.83,22.79Z" fill="#d5dbe2"/><path d="M80.73,24.07a.1.1,0,0,1,0,0l0,0Z" fill="#d5dbe2"/><path d="M78.33,25l-.8.17,1.24-.26Z" fill="#d5dbe2"/><path d="M42,26a120,120,0,0,0,27.3.35l-.91-1.21-.5-.64c-.14-.2-.29-.39-.45-.59L67,23.26c0-.07-.11-.14-.15-.21s-.22-.29-.33-.45l0-.06-.35-.45-1.47-1.93a4.87,4.87,0,0,0-.43-.49L64,19.51l-.35-.33L63.44,19l-.38-.3-.26-.18-.17-.12-.23-.14L62,18a3.81,3.81,0,0,0-.4-.23l-.49-.26-.46-.23L60.08,17l-.5-.22-.6-.24-.29-.12-.18-.07-1.63-.57-.14,0c-.54-.17-1.11-.34-1.7-.5l-.46-.12c-.64-.17-1.3-.34-2-.49l-.23-.06c-.64-.14-1.3-.27-2-.4l-.3-.06-.29-.05-1.33-.23-.62-.1c-.66-.11-1.33-.21-2-.3s-1.34-.18-2-.25l-.24,0-.27,0-2.54-.25h-.23c-.83-.07-1.68-.13-2.51-.18l-.33,0c-.86,0-1.71-.09-2.57-.12l-.49,0-2.49-.05a119,119,0,0,1,30.65,0c10.13,1.36,16.78,3.92,18.85,6.77a.56.56,0,0,0-.05-.08l1.82,2.38,0,.06.49.66q.24.3.48.63l.26.35a25,25,0,0,0,4.06-1.79c8.5-4.84,1.34-10.65-16-13S34.5,8.16,26,13,24.67,23.64,42,26Z" fill="#d5dbe2"/><path d="M96.3,141.39l-1.63,2.05v.22l.29-.09,1.6-.54.37-.13c.63-.22,1.23-.45,1.81-.69l.42-.18,1.29-.57.45-.22c.52-.25,1-.51,1.49-.78,3.47-2,5.11-4.06,5.11-6.12l-.18-97c0,2-1.64,4.14-5.11,6.12-.47.26-1,.52-1.49.78l-.45.21c-.42.2-.84.39-1.29.58l-.42.18c-.39.16-.8.31-1.21.46l0,16L97.51,134v4.33A4.85,4.85,0,0,1,96.3,141.39Z" fill="#aeb8c4"/><path d="M94.6,108.54l.05,26.19h0Z" fill="#aeb8c4"/><path d="M94.67,143.44c-.07.1-.15.19-.23.29l.23-.07Z" fill="#aeb8c4"/><path d="M94.52,62.37h0l.11,46.16Z" fill="#aeb8c4"/><path d="M90.88,113l0,22.53h0Z" fill="#aeb8c4"/><path d="M90.76,48.2h0Z" fill="#aeb8c4"/><path d="M88.58,49.19,89,49l-.54.22Z" fill="#aeb8c4"/><path d="M90.79,63.15h0l.09,37.07,0-23.2Z" fill="#aeb8c4"/><path d="M87.68,108.55l0,27.51h0l-.06-25.25Z" fill="#aeb8c4"/><path d="M86.77,49.88l.62-.23-.78.28Z" fill="#aeb8c4"/><polygon points="87.69 110.81 87.68 108.55 87.73 136.06 87.69 110.81" fill="#aeb8c4"/><path d="M87.6,63.7h0l.11,44.84v-2.21Z" fill="#aeb8c4"/><path d="M84.73,109.25l0,27.24h0Z" fill="#aeb8c4"/><path d="M84.62,50.59h0l.18-.06-.14,0Z" fill="#aeb8c4"/><path d="M82,136.85l0,9.64.66-.1.92-.15.71-.12.42-.08.12,0,.61-.11,1.3-.26,1-.21,0-9.38-.35.05-2.26.34-.32,0h0l-.1,0-2.52.32-.19,0Z" fill="#aeb8c4"/><path d="M82.63,146.39l-.66.1h0l.19,0Z" fill="#aeb8c4"/><path d="M84.51,50.64l.11,0h0l-.28.1Z" fill="#aeb8c4"/><polygon points="84.65 64.14 84.62 64.14 84.71 99.87 84.65 64.14" fill="#aeb8c4"/><path d="M81.9,108.54l0,28.31h0Z" fill="#aeb8c4"/><path d="M82,146.49l-.11,0H82Z" fill="#aeb8c4"/><polygon points="81.82 64.5 81.79 64.5 81.9 108.53 81.82 64.5" fill="#aeb8c4"/><path d="M79,49.88l.17,92.71.2-.25.23-.3.06-.1a6.49,6.49,0,0,0,.37-.6s0-.06,0-.09v0a5.33,5.33,0,0,0,.27-.68.14.14,0,0,0,0-.06.61.61,0,0,0,0-.13,4.42,4.42,0,0,0,.1-.5s0-.07,0-.11a.4.4,0,0,0,0-.11c0-.16,0-.33,0-.49,0,.07,0,.14,0,.2V137l-.14-72.36,0-12.88V49.68l-1,.14Z" fill="#aeb8c4"/><path d="M76.24,50.23l.18,95.18v.65l.45-.57c.77-1,1.55-1.93,2.31-2.9L79,49.88l-.41,0-1.83.23Z" fill="#aeb8c4"/><path d="M73.49,50.52l.18,97h0c.57,0,1.13-.11,1.69-.18h0l.81-.09.19,0v-1.84l-.18-95.18-.18,0-2.54.27Z" fill="#aeb8c4"/><path d="M70.73,50.76l.18,97h.24l2.28-.21.24,0-.18-97-.24,0-2.28.2Z" fill="#aeb8c4"/><path d="M68.37,50.93l1.74-.12.62-.05.18,97-.62.05-1.73.12-.44,0-.18-97Z" fill="#aeb8c4"/><path d="M65.72,51.08,67.39,51l.55,0,.18,97-.55,0-1.67.09-.58,0-.18-97Z" fill="#aeb8c4"/><path d="M63,51.19l1.78-.07h.39l.18,97-.39,0-1.78.06-.65,0-.18-97Z" fill="#aeb8c4"/><path d="M59.76,51.27l2.35-.05h.21l.18,97h-.21c-.78,0-1.57,0-2.35,0h-.26l-.18-97Z" fill="#aeb8c4"/><path d="M56.82,51.29H59.5l.18,97h0c-.89,0-1.77,0-2.66,0h-.17l-.18-97Z" fill="#aeb8c4"/><path d="M94.65,134.73l0,8.71,1.63-2.05a4.85,4.85,0,0,0,1.22-3V134l-.58.16-.37.09-1.6.41-.29.06Z" fill="#aeb8c4"/><path d="M54.09,51.26c.65,0,1.3,0,1.95,0h.61l.18,97h-.61l-1.95,0h-.4l-.18-97Z" fill="#aeb8c4"/><path d="M51.1,51.19l2,.06h.54l.18,97h-.54l-2-.06-.56,0-.18-97Z" fill="#aeb8c4"/><path d="M46.87,51c1.13.07,2.26.13,3.4.17h.27l.18,97h-.27c-1.14,0-2.27-.1-3.4-.16l-.25,0-.18-97Z" fill="#aeb8c4"/><path d="M28.15,48.7l1.29.25.59.11,1.14.2.64.1,1.23.2.56.09,1.84.26c1.76.23,3.54.44,5.33.61l.48,0c1.69.16,3.4.3,5.12.4l.25,0,.18,97h-.25c-1.72-.11-3.43-.24-5.12-.4l-.48-.05c-1.79-.17-3.57-.37-5.33-.61l-1.84-.26-.56-.09L32,146.39l-.64-.11-1.14-.2-.59-.1-1.29-.25-.3-.06-.18-97Z" fill="#aeb8c4"/><path d="M23.14,47.56l2.06.51.33.07c.74.17,1.5.34,2.28.49h0l.18,97H28l-2.27-.49-.33-.08c-.71-.16-1.39-.34-2.06-.51l-.19-.05-.18-97Z" fill="#aeb8c4"/><path d="M19.77,46.59,21.2,47l.25.07,1.29.36.21.06.18,97-.21-.06-1.29-.35-.25-.07L20,143.61l-.13,0-.18-97Z" fill="#aeb8c4"/><path d="M17.43,45.78l.69.25.46.16.75.25.31.11.18,97-.31-.1-.75-.25-.46-.16-.69-.26-.26-.09-.18-97Z" fill="#aeb8c4"/><path d="M15.31,44.93c.56.24,1.14.48,1.76.71l.1,0,.18,97-.1,0c-.62-.24-1.2-.47-1.76-.72l-.12,0-.18-97Z" fill="#aeb8c4"/><path d="M13.67,44.16c.45.22.92.45,1.42.67l.1.05.18,97-.1,0c-.5-.23-1-.45-1.43-.68l-.11-.06-.18-97Z" fill="#aeb8c4"/><path d="M12.24,43.38q.57.33,1.2.66l.11.06.18,97-.11-.05c-.42-.22-.82-.44-1.2-.67l-.08-.05-.18-97Z" fill="#aeb8c4"/><path d="M11,42.58c.33.23.68.46,1.05.68l.11.07.18,97-.11-.06q-.56-.34-1.05-.69h0l-.18-97Z" fill="#aeb8c4"/><path d="M10.06,41.86c.27.23.56.45.87.67l.05,0,.18,97-.05,0c-.31-.22-.6-.44-.87-.67l-.08-.06L10,41.8Z" fill="#aeb8c4"/><path d="M9.23,41.09c.22.22.46.45.72.68l0,0,.18,97,0,0a9.42,9.42,0,0,1-.72-.68L9.33,138,9.15,41Z" fill="#aeb8c4"/><path d="M8.52,40.26A8.85,8.85,0,0,0,9.1,41l.05.07.18,97L9.28,138a6.14,6.14,0,0,1-.58-.7l0,0-.18-97Z" fill="#aeb8c4"/><path d="M8,39.4a7.57,7.57,0,0,0,.46.75l.05.07.18,97-.05-.06a7.69,7.69,0,0,1-.46-.76h0L8,39.39Z" fill="#aeb8c4"/><path d="M7.67,38.59a4.89,4.89,0,0,0,.31.8H8l.18,97h0a5.71,5.71,0,0,1-.31-.8l0-.08-.18-97Z" fill="#aeb8c4"/><path d="M7.51,37.68a4.52,4.52,0,0,0,.13.82v0l.18,97h0a4.81,4.81,0,0,1-.13-.82c0-.06,0-.11,0-.17L7.5,37.62S7.51,37.66,7.51,37.68Z" fill="#aeb8c4"/><path d="M7.5,37.62l.18,96.92v0l-.18-97Z" fill="#aeb8c4"/><path d="M97.38,61.63,97.51,134l1.23-.36.42-.13,1.29-.43.45-.16c.52-.19,1-.38,1.49-.58,3.47-1.47,5.11-3,5.11-4.57l-.18-72.35c0,1.53-1.64,3.09-5.11,4.56-.47.2-1,.39-1.49.59l-.45.15c-.42.15-.84.29-1.29.43l-.42.14Z" fill="#af92ff"/><path d="M79,64.8l.17,69.14v3.21l.15,0,1.22-.12-.14-72.36h0l-1,.1Z" fill="#af92ff"/><path d="M76.24,65.06l.18,71v1.37l2.12-.19.65-.07v-3.21L79,64.8c-.13,0-.27,0-.41,0L76.77,65Z" fill="#af92ff"/><path d="M73.49,65.27l.18,70.44v1.92h0c.57,0,1.13-.08,1.69-.14h0l.81-.06.19,0V136l-.18-71h-.18l-2.54.2Z" fill="#af92ff"/><path d="M71,65.44l2.28-.15.24,0,.18,72.36-.24,0-2.28.15h-.24l-.18-72.36Z" fill="#af92ff"/><path d="M68.37,65.58l1.74-.09.62,0,.18,72.36-.62,0c-.58,0-1.15.07-1.73.09l-.44,0L67.94,65.6Z" fill="#af92ff"/><path d="M65.72,65.69l1.67-.07.55,0L68.12,138l-.55,0-1.67.07-.58,0-.18-72.36Z" fill="#af92ff"/><path d="M63,65.77l1.78,0h.39l.18,72.36h-.39l-1.78,0-.65,0-.18-72.36Z" fill="#af92ff"/><path d="M59.76,65.83l2.35,0h.21l.18,72.36h-.21l-2.35,0h-.26L59.5,65.84Z" fill="#af92ff"/><path d="M56.82,65.85H59.5l.18,72.35h0c-.89,0-1.77,0-2.66,0h-.17l-.18-72.35Z" fill="#af92ff"/><path d="M54.09,65.83h2.56l.18,72.35h-3l-.18-72.35Z" fill="#af92ff"/><path d="M51.1,65.77l2,0,.54,0,.18,72.35h-.54l-2,0-.56,0-.18-72.35Z" fill="#af92ff"/><path d="M46.87,65.63c1.13.05,2.26.09,3.4.12h.27l.18,72.35h-.27l-3.4-.13H46.8l-.18-72.35Z" fill="#af92ff"/><path d="M46.81,138h-.26c-1.71-.08-3.42-.18-5.12-.3l-.47,0c-1.8-.13-3.58-.28-5.33-.46L33.78,137l-.56-.07L32,136.77l-.63-.08-1.15-.15-.46-.06A8,8,0,0,0,31.17,132l.48-67.6.16,0,1.23.15.56.06,1.85.2c1.75.17,3.53.32,5.33.45l.47,0c1.7.12,3.41.21,5.12.29l.26,0Z" fill="#af92ff"/><path d="M15.67,61.21v.16l-.35,50-.13-50.33.13,0Z" fill="#af92ff"/><path d="M15.32,112.71l-.15,19.16a7.78,7.78,0,0,0,.14,1.53h0l-1.42-.51-.12,0-.18-72.35.12,0c.45.17.93.34,1.42.5l.1,0,.13,50.33Z" fill="#af92ff"/><path d="M12.24,60c.38.16.78.33,1.2.49l.11.05.18,72.35-.11,0c-.42-.16-.82-.33-1.2-.5l-.08,0-.18-72.36Z" fill="#af92ff"/><path d="M11,59.35l1.05.51.11,0,.18,72.36-.11-.05-1.05-.51h0L11,59.34Z" fill="#af92ff"/><path d="M10.06,58.82c.27.16.56.33.87.49l.05,0,.18,72.36-.05,0c-.31-.16-.6-.33-.87-.5l-.08,0L10,58.77Z" fill="#af92ff"/><path d="M9.23,58.24q.33.25.72.51l0,0,.18,72.35,0,0a8.3,8.3,0,0,1-.72-.51l-.08-.05L9.15,58.19Z" fill="#af92ff"/><path d="M8.52,57.62a7.57,7.57,0,0,0,.58.52l.05,0,.18,72.35-.05,0c-.22-.18-.41-.35-.58-.52l0,0L8.49,57.59Z" fill="#af92ff"/><path d="M8,57a4.7,4.7,0,0,0,.46.56l.05.05.18,72.35-.05,0a7.12,7.12,0,0,1-.46-.56h0L8,57Z" fill="#af92ff"/><path d="M7.67,56.38A3.43,3.43,0,0,0,8,57H8l.18,72.35h0a3.35,3.35,0,0,1-.31-.59l0-.06L7.64,56.33Z" fill="#af92ff"/><path d="M7.51,55.7a2.66,2.66,0,0,0,.13.61v0l.18,72.35h0a2.78,2.78,0,0,1-.13-.61s0-.08,0-.12L7.5,55.65S7.51,55.68,7.51,55.7Z" fill="#af92ff"/><path d="M7.5,55.65l.18,72.29v0L7.5,55.55Z" fill="#af92ff"/><path d="M83.88,147.9l-.25.08-.3.08Zm3.72-1.24-.31.12-.22.07ZM90.77,48.2h0Zm-2,.92-.15.07-.12,0Zm-1.34.53-.62.23-.16,0Zm3.38-1.45h0Zm-2,.92-.15.07-.12,0Zm-1.34.53-.62.23-.16,0Zm-2.77.94h0l.14,0-.18.06-.11,0-.17,0ZM70,26.26l-.15,0-.3,0Zm10.71-2.18,0,0a.1.1,0,0,0,0,0Zm1-1.17,0,0s.07-.1.11-.15A.83.83,0,0,0,81.75,22.91Zm.13,26.55,1.1-.18-1,.17-.19,0-.39.05Zm5.79-1.07-.1,0-.22,0Zm7-1.81.14,0-.29.1-.16,0Zm-7.25,3.07-.62.23-.16,0Zm1.34-.53-.15.07-.12,0Zm2-.92h0Zm-2,.92-.15.07-.12,0Zm2-.92h0Zm-4.06,97.45-.17,0-1.13.22Zm-10.29.41v1.19l-.13,0-.26,0-.61.06h0C75.74,146.92,76.09,146.49,76.42,146.06Z" fill="#fff"/><path d="M62.77,12.47c10.13,1.36,16.78,3.92,18.85,6.77a.56.56,0,0,0-.05-.08l1.82,2.38,0,.06.49.66q.24.3.48.63l.26.35h0l-.26.09-.95.31-.25.08-.19.05-1,.29-.28.08-.08,0c-.45.13-.9.24-1.37.36h0l-.21,0-1.17.27-.09,0-.44.09-.8.17-.1,0-.16,0-.46.08-.83.16-.22,0-.46.07-.8.13-.25,0-.47.07-.77.11-.26,0-.49.07-.75.09-.26,0-.59.07-.58.06H70l-.45,0-.27,0-.91-1.21-.5-.64c-.14-.2-.29-.39-.45-.59L67,23.26c0-.07-.11-.14-.15-.21s-.22-.29-.33-.45l0-.06-.35-.45-1.47-1.93a4.87,4.87,0,0,0-.43-.49L64,19.51l-.35-.33L63.44,19l-.38-.3-.26-.18-.17-.12-.23-.14L62,18a3.81,3.81,0,0,0-.4-.23l-.49-.26-.46-.23L60.08,17l-.5-.22-.6-.24-.29-.12-.18-.07-1.63-.57-.14,0c-.54-.17-1.11-.34-1.7-.5l-.46-.12c-.64-.17-1.3-.34-2-.49l-.23-.06c-.64-.14-1.3-.27-2-.4l-.3-.06-.29-.05-1.33-.23-.62-.1c-.66-.11-1.33-.21-2-.3s-1.34-.18-2-.25l-.24,0-.27,0-2.54-.25h-.23c-.83-.07-1.68-.13-2.51-.18l-.33,0c-.86,0-1.71-.09-2.57-.12l-.49,0-2.49-.05A119,119,0,0,1,62.77,12.47Zm19,10.44a.83.83,0,0,1,.08-.12c0,.05-.07.11-.11.15Zm-1,1.17h0a.1.1,0,0,1,0,0Z" fill="#d5dbe2"/><path d="M69.3,26.33l.34.44,1,1.33c.12.14.23.29.35.45l.73,1,.22.29c2.44,3.21,5.22,11.85,7.32,15.62l.09.12,0,0,0,.07a3.21,3.21,0,0,1,.47.75h0a7,7,0,0,0,.31.8l0,.06v0a7.76,7.76,0,0,1,.13.82s0,0,0,.06v.14c0,.34,0,1.36,0,1.36l.89-.13.11,0,.48-.07,1.1-.18,1-.17L84.5,49l.12,0,.31-.06,2.27-.45.15,0,.32-.07.12,0c.95-.21,1.87-.42,2.76-.64l.21,0,.53-.14,1-.28.8-.22,1-.29.23-.07.31-.1.14,0,.54-.18.6-.2.46-.16.37-.12.6-.23V41.32c0,.13,0,.25,0,.38a3.63,3.63,0,0,0,0-.57.88.88,0,0,0,0-.17,3.32,3.32,0,0,0-.13-.7.3.3,0,0,0,0-.1,6.2,6.2,0,0,0-.31-.77l-.1-.17a5.85,5.85,0,0,0-.49-.77L88.7,28.51c-.24-.3-.49-.63-.74-1l-.35-.45a2,2,0,0,0-.17-.23l-.73-1a1.34,1.34,0,0,0-.11-.14l-1.24-1.65a1.34,1.34,0,0,1-.11-.14l-.39-.5-.19-.24h0l-.26.09-.95.31-.25.08-.19.05-1,.29-.28.08-.08,0c-.45.13-.9.24-1.37.36h0l-.21,0-1.17.27-.09,0-.44.09-.8.17-.1,0-.16,0-.46.08-.83.16-.22,0-.46.07-.8.13-.25,0-.47.07-.77.11-.26,0-.49.07-.75.09-.26,0-.59.07-.58.06H70l-.15,0-.3,0Z" fill="#bec4cc"/><path d="M81.79,49.48l0,15,.16,0c.85-.1,1.7-.2,2.52-.32h.15l0-13.54-.11,0-.17,0,.28-.1V49l-.12,0-.53.09-1,.17-1,.17Z" fill="#aeb8c4"/><path d="M80.4,49.68v2.09l0,12.88.87-.1.5,0h0l0-15-.39.05-.11,0Z" fill="#aeb8c4"/><path d="M84.62,50.59V49l.31-.06,2.27-.45.15,0,.22,0v1.16l0,14.12h0l-.37,0-2.27.34-.28,0,0-13.54.18-.06-.14,0Zm2.15-.71.62-.23-.78.28Z" fill="#aeb8c4"/><path d="M87.67,48.39l.12,0c.95-.21,1.87-.42,2.76-.64l.21,0v.53l0,14.94h0l-.21,0c-.89.17-1.81.32-2.76.48l-.19,0,0-14.12V48.42Zm.91.8.15-.07-.27.11Z" fill="#aeb8c4"/><path d="M90.76,48.2h0l0,14.94.5-.1c.34-.07.69-.13,1-.21l.8-.16,1-.22.39-.08h0l0-15.73-.16,0-.23.07-1,.29-.8.22-1,.28-.53.14Z" fill="#aeb8c4"/><path d="M94.49,46.64l0,15.73.26-.06,1.6-.41.37-.09.63-.18,0-16-.6.23-.37.12-.46.16-.6.2-.54.18Z" fill="#aeb8c4"/><path d="M76.42,146.06v1.19l2.12-.26c.22,0,.43-.06.65-.09v-4.31c-.76,1-1.54,1.93-2.31,2.9Z" fill="#aeb8c4"/><path d="M79.18,142.59v4.31l.15,0q.85-.1,1.68-.24l.65-.1.19,0,.11,0,0-9.64h-.09l-.19,0L81,137l-.46,0v2.33c0-.06,0-.13,0-.2,0,.16,0,.33,0,.49a.4.4,0,0,1,0,.11s0,.07,0,.11a4.42,4.42,0,0,1-.1.5.61.61,0,0,1,0,.13.14.14,0,0,1,0,.06,5.33,5.33,0,0,1-.27.68v0s0,.06,0,.09a6.49,6.49,0,0,1-.37.6l-.06.1-.23.3Z" fill="#aeb8c4"/><path d="M87.73,136.06l0,9.38,1-.22.69-.16,1.45-.35h.06l0-9.19-.19,0c-.89.16-1.81.32-2.76.47l-.22,0Z" fill="#aeb8c4"/><path d="M90.92,135.51l0,9.19.66-.17c.45-.12.89-.23,1.32-.36l.09,0,.3-.08.3-.08.55-.17.28-.08c.08-.1.16-.19.23-.29l0-8.71-.37.09-1,.21-.8.17-1,.2-.53.11Z" fill="#aeb8c4"/><path d="M80.42,64.65,80.56,137l.46,0,.65-.08.19,0H82l0-28.31h0l-.11-44-.5,0Z" fill="#aeb8c4"/><path d="M81.9,108.54l0,28.31h0Z" fill="#c0ffea"/><path d="M81.82,64.5l.08,44h0l.07,28.3h0l.19,0,2.52-.32.1,0,0-27.24v-.71l0-8.67-.09-35.73H84.5c-.82.12-1.67.22-2.52.32Z" fill="#aeb8c4"/><path d="M84.8,136.49l-.07-27.24,0,27.24Z" fill="#c0ffea"/><polygon points="81.79 64.5 81.9 108.53 81.82 64.5 81.79 64.5" fill="#c0ffea"/><path d="M84.65,64.14l.06,35.73,0,8.67v.71l.07,27.24.32,0,2.26-.34.35-.05,0-27.51-.11-44.84-.37,0-2.27.34Z" fill="#aeb8c4"/><path d="M87.69,110.81v-2.26l0,27.51h0Z" fill="#c0ffea"/><polygon points="87.68 106.34 87.57 63.71 87.68 108.55 87.68 106.34" fill="#c0ffea"/><polygon points="84.62 64.14 84.71 99.87 84.65 64.14 84.62 64.14" fill="#c0ffea"/><path d="M87.6,63.7l.08,42.64v4.47l.06,25.25.22,0c1-.15,1.87-.31,2.76-.47l.19,0,0-22.53V100.23l-.09-37.07-.21,0c-.89.17-1.81.32-2.76.48Z" fill="#aeb8c4"/><path d="M90.94,135.51,90.88,113l0,22.53Z" fill="#c0ffea"/><path d="M87.57,63.71l.11,44.84v-2.21L87.6,63.7Z" fill="#c0ffea"/><path d="M90.79,63.15l0,13.88,0,23.2V113l.06,22.53.53-.11,1-.2.8-.17,1-.21.37-.09-.05-26.19-.11-46.16-.39.08-1,.22-.8.16c-.34.08-.69.14-1,.21Z" fill="#aeb8c4"/><path d="M94.67,134.73l-.07-26.19.05,26.19Z" fill="#c0ffea"/><path d="M90.76,63.16l.09,37.07,0-23.2,0-13.88Z" fill="#c0ffea"/><path d="M94.52,62.37l.08,46.17.07,26.19.29-.06,1.6-.41.37-.09.58-.16-.13-72.38-.63.18-.37.09-1.6.41Z" fill="#aeb8c4"/><path d="M94.49,62.38l.11,46.16-.08-46.17Z" fill="#c0ffea"/><path d="M87.29,146.78l.31-.12-.53.19Z" fill="#d3d3d3"/><path d="M81.67,146.54l1.26.35c.41.11.81.24,1.19.36s.76.25,1.12.38.52.19.77.29c0,0,0,0,0,0l.28.11.76.32.25.11.82.39c.26.13.52.27.76.41a8.61,8.61,0,0,1,.79.46c1.58-2,3.17-4,4.76-6l-.28.08-.55.17-.3.08-.3.08-.09,0c-.43.13-.87.24-1.32.36l-.66.17h-.06l-1.45.35-.69.16-1,.22-1,.21-.17,0-1.13.22-.61.11-.12,0-.42.08-.71.12-.92.15-.66.1-.11,0Z" fill="#9eabb7"/><path d="M73,150.33h0l2.36-3h0l.61-.06.26,0,.13,0,2.12-.26c.22,0,.43-.06.65-.09l.15,0q.85-.1,1.68-.24l.65-.1,1.26.35c.41.11.81.24,1.19.36s.76.25,1.12.38.52.19.77.29c0,0,0,0,0,0l.28.11.76.32.25.11.82.39c.26.13.52.26.76.41a8.61,8.61,0,0,1,.79.46c-2.64,3.32-5.27,6.64-7.92,9.95a8.22,8.22,0,0,1-1.37,1.3l-.48.11-.48.11-1.22.27-.2,0-.12,0c-.53.11-1.06.2-1.61.3l-.48.08h0l-1.13.19-.59.09-1.19.17-.55.07-1.56.19-.2,0-.15,0-1.64.16-.55,0-1.3.11-.65,0-1.27.08-.63,0-1.61.08-.27,0-.61,0h-.62C61.52,163.15,70.31,153.76,73,150.33ZM83.63,148l.25-.08-.55.16Z" fill="#9eabb7"/><path d="M80.58,51.73l.21,0,.52-.14Z" fill="#fff"/><path d="M71.66,28.17l.08,0,.28-.08Z" fill="#fff"/><path d="M73,27.78l.19-.05.25-.08h0Z" fill="#fff"/><path d="M74.4,27.34l.26-.09.13-.05h0Z" fill="#fff"/><path d="M76.09,26.71h0l.08,0Z" fill="#fff"/><path d="M77.45,26.12l.17-.08.11-.06h0Z" fill="#fff"/><path d="M78.75,25.45l.42-.25.07-.05.06,0C79.12,25.23,79,25.34,78.75,25.45Z" fill="#fff"/><path d="M79.84,24.76l.15-.1.08-.06h0Z" fill="#fff"/><path d="M80.68,24.11l0,0h0A.1.1,0,0,1,80.68,24.11Z" fill="#fff"/><path d="M81.28,23.52l0,0,.05-.06,0-.07Z" fill="#fff"/><path d="M90.76,48.2h0Z" fill="#fff"/><path d="M89,146.12l.55-.24.43-.19-.77.34-.22.09Z" fill="#fff"/><path d="M88.46,49.23l.12,0L89,49Z" fill="#fff"/><path d="M87.07,146.85l.22-.07.31-.12Z" fill="#fff"/><path d="M86.61,49.93l.16,0,.62-.23Z" fill="#fff"/><path d="M85.52,147.39l.07,0c.2-.06.38-.13.57-.2l-.91.31Z" fill="#fff"/><path d="M84.34,50.69l.17,0,.11,0,.18-.06-.14,0h0Z" fill="#fff"/><path d="M81.72,22.94l0,0a.83.83,0,0,1,.08-.12C81.79,22.84,81.76,22.9,81.72,22.94Z" fill="#fff"/><path d="M83.33,148.06l.3-.08.25-.08Z" fill="#fff"/><path d="M83.14,51l.56-.16-.87.25Z" fill="#fff"/><path d="M82.32,21.08v0s0-.08,0-.12h0C82.31,21,82.32,21,82.32,21.08Z" fill="#fff"/><path d="M82.3,21.57V21.5s0,.08,0,.12Z" fill="#fff"/><path d="M82.23,20.47a.09.09,0,0,1,0,0s0-.05,0-.07h0Z" fill="#fff"/><path d="M82.11,22.25h0l0,.06Z" fill="#fff"/><path d="M81.93,19.72v0s0,0,0,0Z" fill="#fff"/><path d="M81.62,148.53l.25-.07-.38.1-.16,0Z" fill="#fff"/><path d="M78.76,149.22l.68-.16,1.09-.26q-1.12.28-2.31.54Z" fill="#fff"/><path d="M76.56,149.69l.17,0c.24,0,.47-.1.71-.15h0c-.64.14-1.28.26-1.93.38Z" fill="#fff"/><path d="M77.14,151.61a14.62,14.62,0,0,1,4.25-.93,42.57,42.57,0,0,0,4.34-1,1.5,1.5,0,0,0-.8-2.89c-3,.83-6.52.79-9.31,2.2-1.72.88-.2,3.47,1.52,2.6Z" fill="#9eabb7"/><path d="M85.55,147.94l4.79-1.84c.6-.23.34-1.2-.26-1L85.28,147c-.59.23-.34,1.2.27,1Z" fill="#9eabb7"/><path d="M89.16,146a44.91,44.91,0,0,1-9.49,3.39c-.62.15-.36,1.11.27,1a45.48,45.48,0,0,0,9.72-3.49c.58-.29.07-1.15-.5-.86Z" fill="#9eabb7"/><ellipse cx="67.83" cy="17.19" rx="13.5" ry="3.76" transform="translate(-0.03 0.13) rotate(-0.11)" fill="#3d3e3f"/><path d="M86.12,117.77a132.9,132.9,0,0,1-.5,16.93c-.16,1.45,2.2,2.08,2.8.75,2.33-5.21,4.38-10.31,4-16.11a1.5,1.5,0,0,0-3,0c-.39,4.5-2.21,13.06.68,16.94a1.52,1.52,0,0,0,2.59,0,12.12,12.12,0,0,0,1.79-7.81l-2.79.76a7,7,0,0,1,1.21,5.11h3a14.41,14.41,0,0,0-1.09-5.2,1.5,1.5,0,0,0-2.89.8c1.36,6.48-2.55,6.11-6.85,7.59a13.77,13.77,0,0,0-5.59,3.37A1.5,1.5,0,0,0,81.63,143c3.52-3.53,8.78-2.46,12.45-5.32,2.52-2,1.32-5.92.76-8.57l-2.89.8a8.9,8.9,0,0,1,1,4.4,1.5,1.5,0,0,0,3,0,11.53,11.53,0,0,0-1.62-6.63c-.7-1.23-2.94-.77-2.8.76a9.56,9.56,0,0,1-1.38,6.3h2.59c-2.33-3.14-.59-11.78-.27-15.43h-3c.32,5.35-1.47,9.8-3.62,14.6l2.79.76a132.9,132.9,0,0,0,.5-16.93c0-1.92-3-1.93-3,0Z" fill="#aeb8c4"/><path d="M76.3,143.11c-.15.17-.3.33-.46.48a2.23,2.23,0,0,1-.42.32,3.14,3.14,0,0,1-1.07.5,1.52,1.52,0,0,0-1.08,1.65,1.54,1.54,0,0,0,1.48,1.3,4.47,4.47,0,0,0,2.65-.54,1.5,1.5,0,0,0-1.51-2.59,1.62,1.62,0,0,1-.45.16,3.38,3.38,0,0,1-.69,0l.4,2.95a7.05,7.05,0,0,0,3.27-2.08,1.54,1.54,0,0,0,0-2.12,1.52,1.52,0,0,0-2.12,0Z" fill="#aeb8c4"/><path d="M87.13,135a57.2,57.2,0,0,0-.36-10,1.5,1.5,0,0,0-3,0,52.54,52.54,0,0,1-1.87,11.76h2.9c-2.8-7.42,1.74-15.4,3.32-22.68a93.14,93.14,0,0,0,2-21.26h-3l.35,12.52a1.5,1.5,0,0,0,3,0c.3-6.93.33-13.87,0-20.8-.14-3.15-.36-6.3-.64-9.44s-2-9,.69-11.64H88.45c1.92,1.6,1.23,6.46,1.34,8.73.16,3.42.32,6.84.45,10.27.25,6.7.31,13.39,0,20.09-.09,1.73,2.47,2,3,.4C95,96.85,94.45,90.42,94.63,84.1c.22-7.28.77-14.54,1.31-21.8.12-1.67-2.7-2.08-3-.4a90.19,90.19,0,0,0-.09,25.94c.25,1.8,2.79,1.14,2.95-.4a5.32,5.32,0,0,0-.31-3.27c-.46-1.57-3-1.33-3,.4a403.18,403.18,0,0,1-.11,41c-.1,1.92,2.9,1.92,3,0a403.18,403.18,0,0,0,.11-41l-3,.4.21,2.47,2.94-.4a85.26,85.26,0,0,1,.09-24.35l-2.94-.39c-.5,6.6-1,13.2-1.24,19.82s.5,13.63-1.43,20.06l2.94.4c.42-8.3.2-16.58-.17-24.88-.15-3.48-.27-7-.49-10.45-.15-2.39,0-4.28-2-5.89a1.55,1.55,0,0,0-2.12,0c-4.35,4.23-1.64,12.27-1.26,17.54a231.48,231.48,0,0,1,.32,26.47h3l-.35-12.52c0-1.92-3-1.93-3,0a89.69,89.69,0,0,1-3.33,26c-1.8,6.29-4.37,12.23-1.93,18.72a1.52,1.52,0,0,0,2.9,0,57.37,57.37,0,0,0,2-12.56h-3a57.2,57.2,0,0,1,.36,10c-.09,1.93,2.91,1.93,3,0Z" fill="#aeb8c4"/><path d="M87.53,120.08c-2.35-9.61-4.13-19.29-1.44-29l-2.89-.8a13.39,13.39,0,0,0-.09,5.53c.24,1.41,2.06,1.28,2.74.36a27.48,27.48,0,0,0,4-7.8l-3-.4,0,4.76,2.8-.76C86.59,87.5,86.83,83.28,86.88,78Q87,70.69,87,63.34a1.5,1.5,0,0,0-3,0c0,6.21-.07,12.41-.12,18.61,0,4.61.64,7.73,3.33,11.52A1.51,1.51,0,0,0,90,92.71l0-4.76a1.5,1.5,0,0,0-2.94-.4,24.57,24.57,0,0,1-3.71,7.08L86,95l.09-3.93a1.5,1.5,0,0,0-2.89-.8c-2.83,10.23-1,20.51,1.43,30.62.46,1.87,3.35,1.08,2.9-.8Z" fill="#aeb8c4"/><path d="M81.12,63.86c1.22,12-.46,23.91.27,35.87.09,1.38,2.08,2.17,2.8.76a13.7,13.7,0,0,0,1.68-5.15c.2-2.21-.53-4.24.08-6.47l-2.5.67.59.68c1.28,1.45,3.4-.68,2.13-2.13l-.6-.67a1.51,1.51,0,0,0-2.51.66c-1,3.76.46,7.13-1.46,10.89l2.79.76c-.73-12,1-23.92-.27-35.87-.2-1.9-3.2-1.92-3,0Z" fill="#aeb8c4"/><path d="M81.37,100.11c-.77,8.19-.91,16.36,2.2,24.11.7,1.77,3.61,1,2.89-.8-3-7.53-2.84-15.37-2.09-23.31.18-1.92-2.82-1.91-3,0Z" fill="#aeb8c4"/><path d="M82.94,114.85c.63,1.77-.27,3.63-.57,5.4a24.63,24.63,0,0,0-.32,5.22l3-.4a28.85,28.85,0,0,1-.2-7.71c.13-1.93-2.88-1.92-3,0a31.51,31.51,0,0,0,.31,8.51c.33,1.65,3,1.28,2.94-.4a24.47,24.47,0,0,1,.71-6.66,8.05,8.05,0,0,0,.07-4.76c-.64-1.8-3.54-1-2.89.8Z" fill="#aeb8c4"/><path d="M80.49,53.7c4.53-1.59,9.41-1.75,14-3.41,1.79-.65,1.08-3.46-.8-2.89a109.32,109.32,0,0,1-12,2.92c-1.9.35-1.1,3.24.79,2.89a109.49,109.49,0,0,0,12-2.92l-.8-2.89c-4.53,1.66-9.42,1.82-14,3.41-1.8.63-1,3.53.8,2.89Z" fill="#aeb8c4"/><path d="M70.54,31.33c5.16-2.8,12-2.47,17.73-3,1.9-.18,1.92-3.18,0-3-6.31.61-13.54.34-19.25,3.44-1.69.92-.18,3.52,1.52,2.59Z" fill="#bec4cc"/><path d="M28,109.42a12.44,12.44,0,0,0,3.36-.56L31.17,132a8,8,0,0,1-1.42,4.49l-.12,0-1.3-.19-.3,0Z" fill="#bca9ff"/><path d="M31.65,64.39,31.57,76.3c-2.05-3.44-3.65-5.87-3.65-5.87l0,0,0-6.61.29.05,1.3.18.58.08,1.15.15Z" fill="#bca9ff"/><path d="M27.88,70.49C27.55,71,25.44,74,23,78l0-15,.18,0c.67.13,1.36.26,2.07.38l.33.06c.73.13,1.49.25,2.27.37h.05l0,6.61Z" fill="#bca9ff"/><path d="M28,136.23h0l-2.27-.36-.33-.06c-.71-.12-1.4-.25-2.07-.38l-.18,0-.07-26.75a12.76,12.76,0,0,0,4.48.8H28Z" fill="#bca9ff"/><path d="M23,78c-1.08,1.75-2.22,3.65-3.3,5.6l-.05-21.28.12,0,1.44.33.24,0,1.29.26L23,63Z" fill="#bca9ff"/><path d="M23.14,135.38l-.22,0-1.29-.27-.24,0L20,134.7l-.12,0-.07-27.86a12.69,12.69,0,0,0,3.31,1.82Z" fill="#bca9ff"/><path d="M19.7,83.61c-.88,1.59-1.72,3.2-2.45,4.75l-.07-26.69.25.07.69.19.47.12.74.18.32.08.05,21.28Z" fill="#bca9ff"/><path d="M19.83,134.67l-.32-.08-.74-.19-.47-.12-.69-.18-.25-.08-.07-29.69a12.89,12.89,0,0,0,2.47,2.48Z" fill="#bca9ff"/><path d="M17.25,88.39a39.55,39.55,0,0,0-1.8,4.34l.22-31.36v-.16c.45.15.92.29,1.4.43l.11,0,.07,26.69Z" fill="#bca9ff"/><path d="M17.36,134l-.11,0c-.61-.17-1.2-.35-1.75-.53l-.13,0,0-20.71V111.4l.07-10.56a12.4,12.4,0,0,0,1.9,3.46v0Z" fill="#bca9ff"/><path d="M15.37,133.42l-.06,0a7.78,7.78,0,0,1-.14-1.53l.15-19.16Z" fill="#bca9ff"/><path d="M29.75,136.48a8,8,0,0,1-6.58,3.45h-.06a8,8,0,0,1-7.8-6.53l.06,0,.13,0c.55.18,1.14.36,1.75.53l.11,0,.25.08.69.18.47.12.74.19.32.08.12,0,1.44.32.24,0,1.29.27.22,0,.18,0c.67.13,1.36.26,2.07.38l.33.06,2.27.36h0l.3,0,1.3.19Z" fill="#f9f9f9"/><path d="M31.67,61.49l0,2.9-.47-.06L30,64.18l-.58-.08-1.3-.18-.29-.05h-.05c-.78-.12-1.54-.24-2.27-.37l-.33-.06c-.71-.12-1.4-.25-2.07-.38L23,63,22.74,63l-1.29-.26-.24,0-1.44-.33-.12,0-.32-.08-.74-.18-.47-.12-.69-.19-.25-.07-.11,0c-.48-.14-.95-.28-1.4-.43a8,8,0,0,1,8-7.78h.06A8,8,0,0,1,31.67,61.49Z" fill="#f9f9f9"/><line x1="28.17" y1="37.93" x2="30.17" y2="33.93" fill="none" stroke="#fff" stroke-linecap="round" stroke-miterlimit="10" stroke-width="17"/><path d="M31.57,76.3l-.24,32.56a12.44,12.44,0,0,1-3.36.56l-.09-38.93h0l0,0S29.52,72.86,31.57,76.3Z" fill="#c7ffcf" opacity="0.65"/><path d="M28,109.42h-.42a12.76,12.76,0,0,1-4.48-.8L23,78c2.44-4,4.55-7,4.88-7.5Z" fill="#c7ffcf" opacity="0.65"/><path d="M23.07,108.63a12.69,12.69,0,0,1-3.31-1.82l-.06-23.2v0c1.08-2,2.22-3.85,3.3-5.6Z" fill="#c7ffcf" opacity="0.65"/><path d="M19.76,106.81a12.89,12.89,0,0,1-2.47-2.48v0l0-15.91v0c.73-1.55,1.57-3.16,2.45-4.75Z" fill="#c7ffcf" opacity="0.65"/><path d="M17.29,104.3a12.4,12.4,0,0,1-1.9-3.46v0l.06-8.08a39.55,39.55,0,0,1,1.8-4.34Z" fill="#c7ffcf" opacity="0.65"/><path d="M15.45,92.73l-.06,8.08a11.21,11.21,0,0,1,.06-8.08Z" fill="#c7ffcf" opacity="0.65"/><path d="M40.42,96.55a12.87,12.87,0,0,1-9.09,12.31l.24-32.56C35.26,82.5,40.42,92,40.42,96.55Z" fill="#94ffa8" opacity="0.65"/><path d="M75.68,117.92a16.51,16.51,0,1,1-33,0c0-9.12,17-33.49,17-33.49S75.68,108.8,75.68,117.92Z" fill="#94ffa8" opacity="0.65"/></svg>