<svg xmlns="http://www.w3.org/2000/svg" width="152.74" height="167.16" viewBox="0 0 152.74 167.16"><title>apple_outline_1</title><path d="M144,9.41C131.9,8,109.71,12.55,98,24.27A19.23,19.23,0,0,0,95.75,27,88.71,88.71,0,0,0,98,10.16c0-11.23-44-2.23-44,9C54,25,56.76,34.9,59.29,42.55A51.39,51.39,0,0,0,47,41.16c-43,0-42,50-42,50,0,.24,0,.47,0,.71,0,0,0,0,0,0,0,.5,0,1,0,1.48s0,1.19.06,1.78.09,1.22.14,1.83.09,1.18.15,1.76.15,1.2.23,1.8.15,1.16.24,1.73.21,1.19.32,1.78.2,1.14.32,1.7.26,1.17.4,1.75.26,1.12.4,1.67.32,1.15.49,1.72.31,1.09.48,1.63.37,1.13.57,1.69.36,1.07.55,1.6.43,1.09.65,1.64.41,1,.63,1.56.48,1.07.73,1.61.45,1,.7,1.52.53,1,.8,1.56.5,1,.77,1.49.58,1,.88,1.52.55,1,.83,1.43.63,1,1,1.48.59.93.9,1.39.68.95,1,1.42.63.91,1,1.35.71.91,1.07,1.37.68.87,1,1.3.77.88,1.15,1.32.71.83,1.08,1.24.81.84,1.21,1.26.75.8,1.14,1.19l1.27,1.21c.4.38.79.76,1.2,1.13s.88.77,1.33,1.15.82.72,1.24,1.07.92.72,1.39,1.09.85.68,1.29,1,1,.69,1.44,1,.88.65,1.34.95,1,.64,1.49,1l1.38.88c.51.31,1,.59,1.56.89s.93.55,1.41.81,1.06.54,1.59.81,1,.51,1.46.75,1.1.49,1.65.74,1,.46,1.49.67,1.15.45,1.72.68,1,.4,1.49.58,1.19.4,1.78.6,1,.35,1.51.51,1.22.35,1.83.52,1,.3,1.53.43,1.26.3,1.9.44,1,.25,1.53.35,1.31.24,2,.35,1,.19,1.52.27c.7.11,1.4.18,2.1.27.48.06,1,.13,1.45.18.81.08,1.62.13,2.44.19l1.15.08c1.21.06,2.42.1,3.64.1a71,71,0,0,0,71-71s0-25.5-14.2-40.08C143.41,37.13,153.41,10.53,144,9.41Z" fill="#fff" stroke="#fff" stroke-miterlimit="10" stroke-width="10"/><path d="M5,91.16s-1-50,42-50c21.41,0,29,11,29,11s13.83-11,32-11c39,0,39,50,39,50a71,71,0,0,1-142,0Z" fill="#ff5445"/><path d="M5,91.91a.1.1,0,0,1,.2,0c1.37,4.44,10.1,28.42,41.79,39.29,3.9,1.33,16.71,5,29,5,13.27,0,27.21-3.17,32-5,34-13,39-40,39-40A71,71,0,0,1,5,91.91Z" fill="#ff2b45"/><path d="M129.11,55.38c-11.72,11.71-35.36,4.24-35.36,4.24S86.28,36,98,24.27,131.9,8,144,9.41C154.5,10.66,140.82,43.66,129.11,55.38Z" fill="#6fbb5d"/><path d="M111.5,44.66c-6.26,6.26-13.61,12.1-13.61,12.1s-.42-9.07,5.84-15.34,18.4-14.14,21-11.51S117.77,38.39,111.5,44.66Z" fill="#568441" opacity="0.4"/><path d="M98,10.16c0-11.23-44-2.23-44,9,0,8.13,5.37,24.24,8,31,7,18,24,19,28,1C92.27,41,98,21.58,98,10.16Z" fill="#99694f"/><path d="M95.5,10.66c1-4.08-9-5-19-3-9.6,1.92-20,6.79-20,11s7.94,8,17.73,8S94.5,14.66,95.5,10.66Z" fill="#bd694f"/><path d="M56,58.84c5.38,7.7-1.25,16.74-8.95,22.11s-18.46,8.49-23.84.8-1-20,6.66-25.39S50.67,51.15,56,58.84Z" fill="#fff"/></svg>