<svg xmlns="http://www.w3.org/2000/svg"  width="30px" height="30px" viewBox="0 0 142.74 157.16"><defs><style>.cls-1{fill:#ff5445;}.cls-2{fill:#ff2b45;}.cls-3{fill:#6fbb5d;}.cls-4{fill:#568441;opacity:0.4;}.cls-5{fill:#99694f;}.cls-6{fill:#bd694f;}.cls-7{fill:#fff;}</style></defs><title>item_apple</title><g id="Layer_2" data-name="Layer 2"><g id="Layer_1-2" data-name="Layer 1"><g id="Apple"><path class="cls-1" d="M0,86.16s-1-50,42-50c21.41,0,29,11,29,11s13.83-11,32-11c39,0,39,50,39,50a71,71,0,0,1-142,0Z"/><path class="cls-2" d="M0,86.91a.1.1,0,0,1,.2,0C1.58,91.3,10.31,115.29,42,126.16c3.9,1.33,16.71,5,29,5,13.27,0,27.21-3.17,32-5,34-13,39-40,39-40A71,71,0,0,1,0,86.91Z"/><path class="cls-3" d="M124.11,50.38c-11.72,11.71-35.36,4.24-35.36,4.24S81.28,31,93,19.27,126.9,3,139,4.41C149.5,5.66,135.82,38.66,124.11,50.38Z"/><path class="cls-4" d="M106.5,39.66c-6.26,6.26-13.61,12.1-13.61,12.1s-.42-9.07,5.84-15.34,18.4-14.14,21-11.51S112.77,33.39,106.5,39.66Z"/><path class="cls-5" d="M93,5.16c0-11.23-44-2.23-44,9,0,8.13,5.37,24.24,8,31,7,18,24,19,28,1C87.27,36,93,16.58,93,5.16Z"/><path class="cls-6" d="M90.5,5.66c1-4.08-9-5-19-3-9.6,1.92-20,6.79-20,11s7.94,8,17.73,8S89.5,9.66,90.5,5.66Z"/><path class="cls-7" d="M51,53.84c5.38,7.7-1.25,16.74-8.95,22.11s-18.46,8.49-23.84.8-1-20,6.66-25.39S45.67,46.15,51,53.84Z"/></g></g></g></svg>