<svg xmlns="http://www.w3.org/2000/svg" xmlns:xlink="http://www.w3.org/1999/xlink" width="60px" height="60px" viewBox="0 0 134.38 167.24"><defs><clipPath id="a" transform="translate(-3.83)"><path d="M0,97.35a.1.1,0,0,1,.2,0c1.37,4.44,10.1,28.42,41.8,39.29,3.9,1.33,16.7,5,29,5,13.26,0,27.21-3.17,32-5,34-13,39-40,39-40A71,71,0,0,1,0,97.35Z" fill="none"/></clipPath></defs><title>Asset 18</title><path d="M62.55,51.13c5.46,1.65,11.86.55,17.4-.19,5.27-.71,10.61-1.67,15-4.92.51-.38,0-1.25-.51-.86C90.16,48.33,85,49.26,79.82,50c-5.38.72-11.71,1.82-17,.21a.5.5,0,0,0-.27,1Z" transform="translate(-3.83)" fill="#8c5d48"/><path d="M109.65,45.34C162,82.2,137.89,165.08,73.93,167.19c-1,0-2,.05-2.94.05s-1.93,0-2.89-.05c-64-2.07-88-85-35.69-121.87h0a67.08,67.08,0,0,1,77.24,0Z" transform="translate(-3.83)" fill="#999"/><g clip-path="url(#a)"><path d="M109.65,45.34C162,82.2,137.89,165.08,73.93,167.19c-1,0-2,.05-2.94.05s-1.93,0-2.89-.05c-64-2.07-88-85-35.69-121.87h0a67.08,67.08,0,0,1,77.24,0Z" transform="translate(-3.83)" fill="#85858e"/></g><path d="M92,58.6c-1.24-4.07-4.62-7.55-9.23-9.8l-.44-.21a29.27,29.27,0,0,0-23.14-.21c-.31.14-.61.27-.9.42-4.61,2.25-8,5.73-9.23,9.8a11.78,11.78,0,0,0-.53,3.5c0,8.84,9.85,16,22,16s22-7.16,22-16A11.78,11.78,0,0,0,92,58.6ZM70.5,71.1A28.89,28.89,0,0,1,62.42,70a10,10,0,0,1-3.28-7.76A17.73,17.73,0,0,0,70.5,66,17.51,17.51,0,0,0,82.16,62v0a13.65,13.65,0,0,1-3.3,7.9A28.92,28.92,0,0,1,70.5,71.1Z" transform="translate(-3.83)" fill="#85858e"/><path d="M92.5,55.1A11.78,11.78,0,0,1,92,58.6c-1.57,5.14-6.55,9.34-13.11,11.3a13.65,13.65,0,0,0,3.3-7.9v0A17.51,17.51,0,0,1,70.5,66a17.73,17.73,0,0,1-11.36-3.79A10,10,0,0,0,62.42,70C55.72,68.06,50.63,63.81,49,58.6a11.78,11.78,0,0,1-.53-3.5c0-5.51,3.83-10.37,9.65-13.25A28.13,28.13,0,0,1,70.5,39.1a28.42,28.42,0,0,1,11,2.12C88.05,44,92.5,49.16,92.5,55.1Z" transform="translate(-3.83)" fill="#999"/><path d="M85.5,55.1A9.21,9.21,0,0,1,82.16,62,17.51,17.51,0,0,1,70.5,66a17.73,17.73,0,0,1-11.36-3.79A9.36,9.36,0,0,1,55.5,55.1a9,9,0,0,1,2.76-6.3,10.73,10.73,0,0,1,.86-.79h0A17.73,17.73,0,0,1,70.5,44.19a17.48,17.48,0,0,1,11.78,4.16h0c.16.14.31.29.46.44A9,9,0,0,1,85.5,55.1Z" transform="translate(-3.83)" fill="#85858e"/><polygon points="67.27 46.48 56 36.06 40.68 35.36 47.1 21.43 43.03 6.64 58.26 8.44 71.07 0 74.06 15.05 86.05 24.62 72.67 32.12 67.27 46.48" fill="#f4d790"/><path d="M82.16,62A17.51,17.51,0,0,1,70.5,66a17.73,17.73,0,0,1-11.36-3.79c0-.07,0-.15,0-.22a69.64,69.64,0,0,0,0-13.62c0-.13,0-.25,0-.37h0q-.33-3.07-1-6.15c-.37-1.83-.83-3.68-1.38-5.53C52.56,22.07,74.76,16,79,30.21a86.38,86.38,0,0,1,2.5,11c.38,2.36.65,4.74.83,7.13h0c0,.08,0,.15,0,.23A82.78,82.78,0,0,1,82.16,62Z" transform="translate(-3.83)" fill="#99694f"/><path d="M46.32,84l-10,3.1a19.45,19.45,0,0,0-7.75,5l-9.16,9.31L21.6,89a8.9,8.9,0,0,0-.76-6l-4.73-8,10.22-3.18a18.12,18.12,0,0,0,7.23-4.7L43,57.6,41.09,68.54A12.41,12.41,0,0,0,42.16,77Z" transform="translate(-3.83)" fill="#aaa"/></svg>