<svg xmlns="http://www.w3.org/2000/svg" width="98.26" height="98.59" viewBox="0 0 98.26 98.59"><title>Asset 25</title><path d="M0,49.43a49.13,49.13,0,1,1,98.26-.08,48.9,48.9,0,0,1-49,49.24A48.82,48.82,0,0,1,0,49.43Zm7.4-.31a41.74,41.74,0,1,0,83.48.54A41.74,41.74,0,1,0,7.4,49.12Z" fill="#fff"/><path d="M26.51,76l-6-3.7C32,52.45,63.38,49.91,77.8,72c-1.72,1.67-3.93,2.63-6.09,4C66.12,68.3,58.81,63.8,49.06,63.83S32.16,68.27,26.51,76Z" fill="#fff"/><path d="M65.36,26.73a7.58,7.58,0,0,1,7.46,7.78A7.7,7.7,0,1,1,57.43,34,7.58,7.58,0,0,1,65.36,26.73Z" fill="#fff"/><path d="M25.87,34.42a7.37,7.37,0,0,1,7.45-7.69,7.5,7.5,0,0,1,7.79,7.4A7.66,7.66,0,0,1,33.47,42,7.53,7.53,0,0,1,25.87,34.42Z" fill="#fff"/></svg>