<svg xmlns="http://www.w3.org/2000/svg" width="98.26" height="98.59" viewBox="0 0 98.26 98.59"><title>Asset 27</title><path d="M49.07,0A49,49,0,0,0,0,49.44,48.81,48.81,0,0,0,49.29,98.59a48.88,48.88,0,0,0,49-49.23A49,49,0,0,0,49.07,0Zm-.23,91.19A41.5,41.5,0,0,1,7.4,49.13a41.74,41.74,0,1,1,83.48.54A41.61,41.61,0,0,1,48.84,91.19Z" fill="#fff"/><path d="M49.24,7.4A41.64,41.64,0,0,0,7.4,49.13a41.74,41.74,0,1,0,83.48.54A41.77,41.77,0,0,0,49.24,7.4ZM65.36,26.74a7.57,7.57,0,0,1,7.46,7.78A7.7,7.7,0,1,1,57.43,34,7.57,7.57,0,0,1,65.36,26.74Zm-32,0a7.49,7.49,0,0,1,7.78,7.4A7.64,7.64,0,0,1,33.47,42a7.54,7.54,0,0,1-7.61-7.6A7.38,7.38,0,0,1,33.32,26.73ZM71.7,76.07C66.12,68.3,58.8,63.81,49.06,63.83S32.15,68.27,26.51,76l-6-3.7C32,52.45,63.38,49.91,77.8,72,76.07,73.68,73.87,74.65,71.7,76.07Z" fill="#fff"/></svg>